<?xml version="1.0" encoding="UTF-8" standalone="no"?>
<svg
   viewBox="0 0 1440 320"
   version="1.1"
   id="svg1"
   xmlns:xlink="http://www.w3.org/1999/xlink"
   xmlns="http://www.w3.org/2000/svg"
   xmlns:svg="http://www.w3.org/2000/svg">
  <defs
     id="defs1">
    <linearGradient
       id="linearGradient1">
      <stop
         style="stop-color:#fe5314;stop-opacity:1;"
         offset="0"
         id="stop1" />
      <stop
         style="stop-color:#fe5314;stop-opacity:0;"
         offset="1"
         id="stop2" />
    </linearGradient>
    <linearGradient
       xlink:href="#linearGradient1"
       id="linearGradient2"
       x1="379.72253"
       y1="-473.03757"
       x2="379.72253"
       y2="393.04459"
       gradientUnits="userSpaceOnUse"
       gradientTransform="matrix(1.0104978,0,0,1.0372659,-7.5584096,-1.2040045)" />
  </defs>
  <path
     fill="#0099ff"
     fill-opacity="1"
     d="M -7.5584096,31.988506 0.02032385,76.279761 C 7.5990573,120.15611 22.756524,209.36098 37.913991,247.73982 c 15.157467,38.37884 30.314933,28.00618 45.472401,0 15.157467,-28.00618 30.314928,-71.57135 45.472408,-77.48376 15.15746,-5.49751 30.31492,27.695 45.47239,22.19749 15.15747,-5.91242 30.31494,-49.47759 45.4724,-38.79375 15.15747,11.09875 30.31493,77.48377 45.47241,82.98128 15.15746,5.91241 30.31493,-50.09995 45.47239,-77.38004 15.15747,-27.695 30.31494,-27.695 45.47241,-33.19251 15.15746,-5.91242 30.31493,-16.28508 45.4724,-5.60124 15.15747,11.09875 30.31493,44.29126 45.47239,49.78877 15.15747,5.91241 30.31494,-16.90744 45.47241,-44.18753 15.15746,-27.695004 30.31493,-60.887514 45.47239,-66.385024 15.15748,-5.912416 30.31494,16.907435 45.47241,60.783784 15.15746,44.29126 30.31494,110.67628 45.4724,110.67628 15.15747,0 30.31493,-66.38502 45.4724,-66.38502 15.15747,0 30.31494,66.38502 45.4724,66.38502 15.15746,0 30.31493,-66.38502 45.4724,-71.88253 15.15747,-5.91242 30.31493,50.09994 45.4724,44.18753 15.15746,-5.49751 30.31494,-71.88253 45.4724,-105.075044 15.15747,-33.19251 30.31493,-33.19251 45.47241,-11.098746 15.15746,22.50867 30.31493,66.07384 45.47239,82.98128 15.15747,16.28507 30.31494,5.91241 45.47241,-10.99502 15.15749,-16.28508 30.31489,-39.10493 45.47239,-33.19251 15.1575,5.49751 30.315,38.69002 45.4724,38.69002 15.1575,0 30.315,-33.19251 45.4724,-22.09377 15.1575,10.68384 30.3149,66.6962 45.4724,82.98128 15.1574,16.90743 30.3149,-5.91242 45.4724,-38.79375 15.1575,-33.50369 30.3149,-77.06886 45.4724,-71.88253 15.1575,5.18633 30.3149,61.19869 45.4724,55.28628 15.1575,-5.49751 30.315,-71.882534 45.4724,-82.98128 15.1575,-10.683839 30.315,32.88133 45.4724,44.29126 15.1575,11.40992 30.315,-11.40993 38.399,-22.09377 l 7.0734,-11.098744 V 330.7211 h -7.5787 c -7.5787,0 -22.7362,0 -37.8937,0 -15.1574,0 -30.3149,0 -45.4724,0 -15.1574,0 -30.3149,0 -45.4724,0 -15.1575,0 -30.3149,0 -45.4724,0 -15.1575,0 -30.3149,0 -45.4724,0 -15.1575,0 -30.315,0 -45.4724,0 -15.1575,0 -30.3149,0 -45.4724,0 -15.1574,0 -30.3149,0 -45.4724,0 -15.1574,0 -30.3149,0 -45.4724,0 -15.1575,0 -30.3149,0 -45.47239,0 -15.15747,0 -30.31494,0 -45.47241,0 -15.15746,0 -30.31493,0 -45.47239,0 -15.15748,0 -30.31494,0 -45.47241,0 -15.15746,0 -30.31494,0 -45.4724,0 -15.15747,0 -30.31493,0 -45.4724,0 -15.15747,0 -30.31494,0 -45.4724,0 -15.15746,0 -30.31493,0 -45.4724,0 -15.15747,0 -30.31493,0 -45.4724,0 -15.15746,0 -30.31494,0 -45.4724,0 -15.15747,0 -30.31493,0 -45.47241,0 -15.15746,0 -30.31493,0 -45.47239,0 -15.15747,0 -30.31494,0 -45.47241,0 -15.15746,0 -30.31492,0 -45.47239,0 -15.15747,0 -30.31494,0 -45.4724,0 -15.15747,0 -30.31494,0 -45.47241,0 -15.15746,0 -30.31493,0 -45.47239,0 -15.15748,0 -30.31494,0 -45.47241,0 -15.15746,0 -30.31493,0 -45.4724,0 -15.15747,0 -30.31493,0 -45.47239,0 -15.15748,0 -30.314941,0 -45.472408,0 -15.157468,0 -30.314934,0 -45.472401,0 -15.157467,0 -30.3149337,0 -37.38841825,0 H -7.5584096 Z"
     id="path1"
     style="fill:url(#linearGradient2);fill-opacity:1;stroke:#fe5314;stroke-width:1.0696063;stroke-dasharray:none;stroke-opacity:1" />
</svg>
