<?xml version="1.0" encoding="UTF-8" standalone="no"?>
<!-- Created with Inkscape (http://www.inkscape.org/) -->

<svg
   version="1.1"
   id="svg1"
   width="993.28802"
   height="579.56702"
   viewBox="0 0 993.28801 579.56702"
   xmlns="http://www.w3.org/2000/svg"
   xmlns:svg="http://www.w3.org/2000/svg">
  <defs
     id="defs1">
    <clipPath
       clipPathUnits="userSpaceOnUse"
       id="clipPath121">
      <path
         d="m 6496.34,2177.64 c 217.73,-39.35 362.32,-247.73 322.97,-465.44 -39.34,-217.67 -247.73,-362.29 -465.43,-322.95 -217.72,39.34 -362.31,247.73 -322.96,465.44 39.35,217.69 247.75,362.28 465.42,322.95"
         transform="translate(0,-2.5e-5)"
         id="path121" />
    </clipPath>
    <clipPath
       clipPathUnits="userSpaceOnUse"
       id="clipPath123">
      <path
         d="m 6496.34,2177.64 c 217.73,-39.35 362.32,-247.73 322.97,-465.44 -39.34,-217.67 -247.73,-362.29 -465.43,-322.95 -217.72,39.34 -362.31,247.73 -322.96,465.44 39.35,217.69 247.75,362.28 465.42,322.95"
         transform="translate(0,-2.5e-5)"
         id="path123" />
    </clipPath>
    <clipPath
       clipPathUnits="userSpaceOnUse"
       id="clipPath125">
      <path
         d="m 6496.34,2177.64 c 217.73,-39.35 362.32,-247.73 322.97,-465.44 -39.34,-217.67 -247.73,-362.29 -465.43,-322.95 -217.72,39.34 -362.31,247.73 -322.96,465.44 39.35,217.69 247.75,362.28 465.42,322.95"
         transform="translate(0,-2.5e-5)"
         id="path125" />
    </clipPath>
    <clipPath
       clipPathUnits="userSpaceOnUse"
       id="clipPath127">
      <path
         d="m 6496.34,2177.64 c 217.73,-39.35 362.32,-247.73 322.97,-465.44 -39.34,-217.67 -247.73,-362.29 -465.43,-322.95 -217.72,39.34 -362.31,247.73 -322.96,465.44 39.35,217.69 247.75,362.28 465.42,322.95"
         transform="translate(0,-2.5e-5)"
         id="path127" />
    </clipPath>
    <clipPath
       clipPathUnits="userSpaceOnUse"
       id="clipPath129">
      <path
         d="m 6496.34,2177.64 c 217.73,-39.35 362.32,-247.73 322.97,-465.44 -39.34,-217.67 -247.73,-362.29 -465.43,-322.95 -217.72,39.34 -362.31,247.73 -322.96,465.44 39.35,217.69 247.75,362.28 465.42,322.95"
         transform="translate(0,-2.5e-5)"
         id="path129" />
    </clipPath>
    <clipPath
       clipPathUnits="userSpaceOnUse"
       id="clipPath131">
      <path
         d="m 6496.34,2177.64 c 217.73,-39.35 362.32,-247.73 322.97,-465.44 -39.34,-217.67 -247.73,-362.29 -465.43,-322.95 -217.72,39.34 -362.31,247.73 -322.96,465.44 39.35,217.69 247.75,362.28 465.42,322.95"
         transform="translate(0,-2.5e-5)"
         id="path131" />
    </clipPath>
    <clipPath
       clipPathUnits="userSpaceOnUse"
       id="clipPath133">
      <path
         d="m 6496.34,2177.64 c 217.73,-39.35 362.32,-247.73 322.97,-465.44 -39.34,-217.67 -247.73,-362.29 -465.43,-322.95 -217.72,39.34 -362.31,247.73 -322.96,465.44 39.35,217.69 247.75,362.28 465.42,322.95"
         transform="translate(0,-2.5e-5)"
         id="path133" />
    </clipPath>
    <clipPath
       clipPathUnits="userSpaceOnUse"
       id="clipPath135">
      <path
         d="m 6496.34,2177.64 c 217.73,-39.35 362.32,-247.73 322.97,-465.44 -39.34,-217.67 -247.73,-362.29 -465.43,-322.95 -217.72,39.34 -362.31,247.73 -322.96,465.44 39.35,217.69 247.75,362.28 465.42,322.95"
         transform="translate(0,-2.5e-5)"
         id="path135" />
    </clipPath>
    <clipPath
       clipPathUnits="userSpaceOnUse"
       id="clipPath137">
      <path
         d="m 6496.34,2177.64 c 217.73,-39.35 362.32,-247.73 322.97,-465.44 -39.34,-217.67 -247.73,-362.29 -465.43,-322.95 -217.72,39.34 -362.31,247.73 -322.96,465.44 39.35,217.69 247.75,362.28 465.42,322.95"
         transform="translate(0,-2.5e-5)"
         id="path137" />
    </clipPath>
    <clipPath
       clipPathUnits="userSpaceOnUse"
       id="clipPath139">
      <path
         d="m 6496.34,2177.64 c 217.73,-39.35 362.32,-247.73 322.97,-465.44 -39.34,-217.67 -247.73,-362.29 -465.43,-322.95 -217.72,39.34 -362.31,247.73 -322.96,465.44 39.35,217.69 247.75,362.28 465.42,322.95"
         transform="translate(0,-2.5e-5)"
         id="path139" />
    </clipPath>
    <clipPath
       clipPathUnits="userSpaceOnUse"
       id="clipPath141">
      <path
         d="m 6496.34,2177.64 c 217.73,-39.35 362.32,-247.73 322.97,-465.44 -39.34,-217.67 -247.73,-362.29 -465.43,-322.95 -217.72,39.34 -362.31,247.73 -322.96,465.44 39.35,217.69 247.75,362.28 465.42,322.95"
         transform="translate(0,-2.5e-5)"
         id="path141" />
    </clipPath>
    <clipPath
       clipPathUnits="userSpaceOnUse"
       id="clipPath143">
      <path
         d="m 6496.34,2177.64 c 217.73,-39.35 362.32,-247.73 322.97,-465.44 -39.34,-217.67 -247.73,-362.29 -465.43,-322.95 -217.72,39.34 -362.31,247.73 -322.96,465.44 39.35,217.69 247.75,362.28 465.42,322.95"
         transform="translate(0,-2.5e-5)"
         id="path143" />
    </clipPath>
  </defs>
  <g
     id="g1"
     transform="translate(-84.933862,-116.29968)">
    <g
       id="g191"
       transform="translate(15.000049,15.000012)">
      <path
         id="path3"
         d="M 412.67466,663.86667 H 208.04399 V 663.804 H 173.47066 C 158.88933,662.47733 147.468,650.16133 147.468,635.23867 v -29.16533 h 60.57599 V 600.444 309.03068 307.73601 c 0,-19.72267 15.98534,-35.708 35.708,-35.708 h 149.644 54.98667 23.23599 c 8.14134,0 15.61334,2.86133 21.468,7.62933 7.652,6.23867 12.54267,15.732 12.54267,26.376 v 16.43067 h -57.24666 c 0,0 0,264.79333 0,277.97999 v 27.71867 c 0,18.71066 -14.39334,34.04533 -32.708,35.56933 0.48,0.024 0.95466,0.072 1.44,0.072 h -2.392 c -0.67867,0.0387 -1.36134,0.0627 -2.048,0.0627"
         style="fill:#e2e0e5;fill-opacity:1;fill-rule:nonzero;stroke:none;stroke-width:0.133333" />
      <path
         id="path4"
         d="m 877.22131,663.86667 h -0.83467 c 9.96,-4.056 16.99467,-13.83867 16.99734,-25.24667 V 465.64134 c -0.003,-11.40267 -7.03734,-21.18667 -16.99734,-25.24267 h 0.83467 c 13.91867,0 25.244,11.32534 25.244,25.24267 V 638.62 c 0,13.924 -11.32533,25.24667 -25.244,25.24667"
         style="fill:#e2e0e5;fill-opacity:1;fill-rule:nonzero;stroke:none;stroke-width:0.133333" />
      <path
         id="path5"
         d="m 866.13998,440.39867 c 13.92,0 25.244,11.32534 25.244,25.24267 V 638.62 c 0,13.924 -11.324,25.24667 -25.244,25.24667 H 754.35731 c -13.92133,0 -25.24666,-11.32267 -25.24666,-25.24667 V 465.64134 c 0,-13.91733 11.32533,-25.24267 25.24666,-25.24267 h 111.78267"
         style="fill:#ffffff;fill-opacity:1;fill-rule:nonzero;stroke:none;stroke-width:0.133333" />
      <path
         id="path6"
         d="m 866.13998,440.39867 v 2 c 6.412,0 12.212,2.60267 16.428,6.816 4.21333,4.21734 6.81466,10.016 6.816,16.42667 V 638.62 c -10e-4,6.41467 -2.60267,12.21467 -6.816,16.43067 -4.216,4.21333 -10.016,6.816 -16.428,6.816 H 754.35731 c -6.41333,0 -12.21333,-2.60267 -16.42933,-6.816 -4.21467,-4.216 -6.81733,-10.016 -6.81733,-16.43067 V 465.64134 c 0,-6.41067 2.60266,-12.20933 6.81733,-16.42667 4.216,-4.21333 10.016,-6.816 16.42933,-6.816 h 111.78267 v -2 -2 H 754.35731 c -15.02933,0.004 -27.24266,12.216 -27.24666,27.24267 V 638.62 c 0.004,15.032 12.21733,27.244 27.24666,27.24667 h 111.78267 c 15.028,-0.003 27.24,-12.21467 27.244,-27.24667 V 465.64134 c -0.004,-15.02533 -12.216,-27.23867 -27.244,-27.24267 v 2"
         style="fill:#3e3d3f;fill-opacity:1;fill-rule:nonzero;stroke:none;stroke-width:0.133333" />
      <path
         id="path7"
         d="M 742.82398,628.04534 H 877.16931 V 462.53867 H 742.82398 Z"
         style="fill:#fec6b0;fill-opacity:1;fill-rule:nonzero;stroke:none;stroke-width:0.133333" />
      <path
         id="path8"
         d="m 809.99598,637.31333 c -4.08933,0 -7.41733,3.30934 -7.41733,7.41467 0,4.09867 3.328,7.424 7.41733,7.424 4.10667,0 7.42133,-3.32533 7.42133,-7.424 0,-4.10533 -3.31466,-7.41467 -7.42133,-7.41467"
         style="fill:#ffffff;fill-opacity:1;fill-rule:nonzero;stroke:none;stroke-width:0.133333" />
      <path
         id="path9"
         d="m 809.99598,637.31333 v -2 c -5.19067,0 -9.41733,4.20134 -9.41733,9.41467 0.003,5.20533 4.22,9.42133 9.41733,9.424 2.59867,10e-4 4.968,-1.05867 6.66667,-2.76133 1.7,-1.7 2.756,-4.06934 2.75466,-6.66267 10e-4,-2.596 -1.05466,-4.96533 -2.75733,-6.66133 -1.69867,-1.70134 -4.068,-2.75467 -6.664,-2.75334 v 2 2 c 3.008,0.003 5.42,2.412 5.42133,5.41467 0,1.50533 -0.60266,2.848 -1.58533,3.836 -0.98667,0.984 -2.328,1.58667 -3.836,1.588 -1.49733,0 -2.84,-0.60267 -3.828,-1.58933 -0.98533,-0.988 -1.58933,-2.332 -1.59067,-3.83467 10e-4,-1.50667 0.60534,-2.84533 1.58934,-3.83067 0.98666,-0.98133 2.32933,-1.58266 3.82933,-1.584 v -2"
         style="fill:#3e3d3f;fill-opacity:1;fill-rule:nonzero;stroke:none;stroke-width:0.133333" />
      <path
         id="path10"
         d="m 764.56665,532.608 c 0,24.29067 19.68266,43.97734 43.97066,43.97734 24.28534,0 43.97334,-19.68667 43.97334,-43.97734 0,-24.28266 -19.688,-43.97199 -43.97334,-43.97199 -24.288,0 -43.97066,19.68933 -43.97066,43.97199"
         style="fill:#9fd450;fill-opacity:1;fill-rule:nonzero;stroke:none;stroke-width:0.133333" />
      <path
         id="path11"
         d="m 764.56665,532.608 h -2 c 10e-4,25.39467 20.576,45.976 45.97066,45.976 25.39067,0 45.972,-20.58 45.97334,-45.976 -0.001,-25.388 -20.58267,-45.97066 -45.97334,-45.97199 -25.39466,10e-4 -45.96933,20.58399 -45.97066,45.97199 h 2 2 c 10e-4,-11.596 4.69333,-22.076 12.29066,-29.67733 7.60134,-7.59866 18.08134,-12.29333 29.68,-12.29466 11.59734,10e-4 22.07734,4.696 29.68,12.29466 7.59867,7.60133 12.292,18.08267 12.29334,29.67733 -0.001,11.6 -4.69467,22.08134 -12.29467,29.68267 -7.60133,7.6 -18.08133,12.29333 -29.67867,12.29467 -11.59866,-10e-4 -22.07866,-4.69467 -29.68,-12.29467 -7.59733,-7.60133 -12.28933,-18.08267 -12.29066,-29.68267 h -2"
         style="fill:#3e3d3f;fill-opacity:1;fill-rule:nonzero;stroke:none;stroke-width:0.133333" />
      <path
         id="path12"
         d="m 808.54798,532.608 v -48.26266 c 26.788,0 48.536,21.552 48.86267,48.26266 h -48.86267"
         style="fill:#ffffff;fill-opacity:1;fill-rule:nonzero;stroke:none;stroke-width:0.133333" />
      <path
         id="path13"
         d="m 808.54798,532.608 h 2 v -48.26266 h -2 v 2 c 25.69067,-0.001 46.55067,20.67066 46.86267,46.28666 l 2,-0.024 v -2 h -48.86267 v 2 h 2 -2 v 2 h 50.88667 l -0.0253,-2.024 c -0.34,-27.80666 -22.976,-50.23733 -50.86133,-50.23866 h -2 V 534.608 h 2 v -2"
         style="fill:#3e3d3f;fill-opacity:1;fill-rule:nonzero;stroke:none;stroke-width:0.133333" />
      <path
         id="path14"
         d="m 852.51731,532.33734 v 0.27066 c 0,24.29067 -19.68666,43.97734 -43.96933,43.97734 -24.29067,0 -43.98,-19.68667 -43.98,-43.97734 l 0.016,-0.27066 h 87.93333"
         style="fill:#54bfd3;fill-opacity:1;fill-rule:nonzero;stroke:none;stroke-width:0.133333" />
      <path
         id="path15"
         d="m 852.51731,532.33734 h -2 v 0.27066 c -10e-4,11.6 -4.696,22.08134 -12.29333,29.68267 -7.60133,7.6 -18.08133,12.29333 -29.676,12.29467 -11.6,-10e-4 -22.08133,-4.696 -29.68533,-12.29467 -7.6,-7.60133 -12.29334,-18.084 -12.29467,-29.68267 h -2 l 1.996,0.11467 0.016,-0.27067 -1.996,-0.11466 v 2 h 87.93333 v -2 h -2 2 v -2 h -89.82266 l -0.12667,2.212 v 0.0587 c 10e-4,25.396 20.58533,45.976 45.98,45.976 25.388,0 45.968,-20.58 45.968,-45.976 v -0.27066 -2 h -1.99867 v 2"
         style="fill:#3e3d3f;fill-opacity:1;fill-rule:nonzero;stroke:none;stroke-width:0.133333" />
      <path
         id="path16"
         d="m 808.54798,532.38934 37.01467,-37.024 c 20.54133,20.548 20.684,53.756 0.45466,74.48933 l -37.46933,-37.46533"
         style="fill:#f7d85c;fill-opacity:1;fill-rule:nonzero;stroke:none;stroke-width:0.133333" />
      <path
         id="path17"
         d="m 808.54798,532.38934 1.41467,1.41466 37.01466,-37.02399 -1.41466,-1.41467 -1.41467,1.41467 c 9.96,9.96533 14.928,23.00399 14.93067,36.06133 -0.001,12.864 -4.83067,25.71066 -14.49334,35.616 l 1.432,1.39733 1.41334,-1.41467 -37.468,-37.46533 -1.41467,1.41467 1.41467,1.41466 -1.41467,-1.41466 -1.41467,1.41466 38.9,38.896 1.41467,-1.44933 c 10.41467,-10.67333 15.63333,-24.54933 15.63067,-38.40933 0.003,-14.06667 -5.368,-28.15334 -16.10134,-38.88933 l -1.41466,-1.41467 -39.84267,39.852 1.41333,1.41466 1.41467,-1.41466"
         style="fill:#3e3d3f;fill-opacity:1;fill-rule:nonzero;stroke:none;stroke-width:0.133333" />
      <path
         id="path18"
         d="m 808.52531,532.65467 -21.98533,42.98 c -23.84533,-12.20533 -33.38933,-41.30133 -21.51067,-65.22933 l 43.496,22.24933"
         style="fill:#ffffff;fill-opacity:1;fill-rule:nonzero;stroke:none;stroke-width:0.133333" />
      <path
         id="path19"
         d="m 808.52531,532.65467 -1.78133,-0.91067 -21.984,42.97867 1.78,0.912 0.912,-1.78133 c -16.20933,-8.29334 -25.524,-24.72134 -25.52667,-41.76267 10e-4,-7.004 1.57334,-14.10533 4.896,-20.796 l -1.792,-0.88933 -0.91066,1.78 43.49466,22.25066 0.912,-1.78133 -1.78133,-0.91067 1.78133,0.91067 0.91067,-1.78 -45.29733,-23.172 -0.9,1.81333 c -3.60267,7.252 -5.31334,14.972 -5.31334,22.57467 -0.003,18.48667 10.116,36.32133 27.704,45.324 l 1.78,0.912 23.80667,-46.54133 -1.78,-0.91067 -0.91067,1.78"
         style="fill:#3e3d3f;fill-opacity:1;fill-rule:nonzero;stroke:none;stroke-width:0.133333" />
      <path
         id="path20"
         d="m 808.58931,532.33734 15.692,48.58533 c -26.95866,8.70667 -55.86,-5.91333 -64.864,-32.69733 l 49.172,-15.888"
         style="fill:#f05a78;fill-opacity:1;fill-rule:nonzero;stroke:none;stroke-width:0.133333" />
      <path
         id="path21"
         d="m 808.58931,532.33734 -1.90266,0.61466 15.69066,48.58534 1.904,-0.61467 -0.61466,-1.90267 c -5.07867,1.64 -10.22134,2.41734 -15.28,2.41734 -20.77867,-10e-4 -40.11734,-13.144 -47.07467,-33.84934 l -1.896,0.63734 0.61467,1.90266 49.17333,-15.888 -0.61467,-1.90266 -1.90266,0.61466 1.90266,-0.61466 -0.61466,-1.904 -51.09867,16.51066 0.64533,1.91867 c 7.524,22.37333 28.40667,36.576 50.86534,36.57467 5.46933,0 11.03066,-0.84134 16.50933,-2.61067 l 1.90267,-0.61467 -16.92134,-52.39333 -1.90266,0.61467 0.61466,1.904"
         style="fill:#3e3d3f;fill-opacity:1;fill-rule:nonzero;stroke:none;stroke-width:0.133333" />
      <path
         id="path22"
         d="m 791.26131,532.33734 c 0,9.55066 7.744,17.288 17.28667,17.288 9.54667,0 17.27733,-7.73734 17.27733,-17.288 0,-9.536 -7.73066,-17.28534 -17.27733,-17.28534 -9.54267,0 -17.28667,7.74934 -17.28667,17.28534"
         style="fill:#77d2eb;fill-opacity:1;fill-rule:nonzero;stroke:none;stroke-width:0.133333" />
      <path
         id="path23"
         d="m 791.26131,532.33734 h -2 c 10e-4,10.656 8.63867,19.28666 19.28667,19.288 10.652,-0.001 19.27733,-8.63334 19.27733,-19.288 -10e-4,-10.64134 -8.62266,-19.28267 -19.27733,-19.28534 -10.64933,0.003 -19.284,8.64267 -19.28667,19.28534 h 2 2 c 10e-4,-4.22134 1.70934,-8.03067 4.47867,-10.80534 2.77333,-2.77066 6.584,-4.47866 10.808,-4.48 4.22667,10e-4 8.03333,1.70934 10.804,4.48 2.768,2.77334 4.472,6.58267 4.47333,10.80534 -10e-4,4.23066 -1.70666,8.04 -4.47333,10.812 -2.77067,2.768 -6.576,4.47466 -10.804,4.476 -4.22533,-0.001 -8.03467,-1.708 -10.808,-4.47734 -2.76933,-2.772 -4.47733,-6.58133 -4.47867,-10.81066 h -2"
         style="fill:#3e3d3f;fill-opacity:1;fill-rule:nonzero;stroke:none;stroke-width:0.133333" />
      <path
         id="path24"
         d="m 759.21598,600.59734 h 89.15067 v 5.52666 h -89.15067 v -5.52666"
         style="fill:#ffffff;fill-opacity:1;fill-rule:nonzero;stroke:none;stroke-width:0.133333" />
      <path
         id="path25"
         d="m 834.37331,615.99867 h -75.15733 v -5.52533 h 75.15733 v 5.52533"
         style="fill:#ffffff;fill-opacity:1;fill-rule:nonzero;stroke:none;stroke-width:0.133333" />
      <path
         id="path26"
         d="m 744.10931,663.86667 h -6.396 c -17.16399,0 -31.12933,-13.96 -31.12933,-31.132 V 414.29201 c 0,-17.16134 -2.632,-29.93334 14.532,-29.93334 h 13.24133 c 12.524,0 22.67734,10.15467 22.67734,22.67734 v 31.36266 h -2.67734 c -15.02933,0.004 -27.24266,12.216 -27.24666,27.24267 V 638.62 c 0.003,11.408 7.03733,21.192 16.99866,25.24667"
         style="fill:#e2e0e5;fill-opacity:1;fill-rule:nonzero;stroke:none;stroke-width:0.133333" />
      <path
         id="path27"
         d="m 767.64531,661.86667 h -13.288 c -6.41333,0 -12.21333,-2.60267 -16.42933,-6.816 -4.21467,-4.216 -6.81733,-10.016 -6.81733,-16.43067 V 465.64134 c 0,-6.41067 2.60266,-12.20933 6.81733,-16.42667 4.216,-4.21333 10.016,-6.816 16.42933,-6.816 h 2.67734 v 20.14 h -14.21067 v 165.50667 h 47.012 v 0.452 c 0,17.31733 -8.81067,27.89199 -22.19067,33.36933"
         style="fill:#dbdbdb;fill-opacity:1;fill-rule:nonzero;stroke:none;stroke-width:0.133333" />
      <path
         id="path28"
         d="M 761.78665,663.86667 H 744.10931 C 734.14798,659.812 727.11332,650.028 727.11065,638.62 V 465.64134 c 0.004,-15.02667 12.21733,-27.23867 27.24666,-27.24267 h 2.67734 v 4 h -2.67734 c -6.41333,0 -12.21333,2.60267 -16.42933,6.816 -4.21467,4.21734 -6.81733,10.016 -6.81733,16.42667 V 638.62 c 0,6.41467 2.60266,12.21467 6.81733,16.43067 4.216,4.21333 10.016,6.816 16.42933,6.816 h 13.288 c -1.868,0.76533 -3.824,1.43066 -5.85866,2"
         style="fill:#353435;fill-opacity:1;fill-rule:nonzero;stroke:none;stroke-width:0.133333" />
      <path
         id="path29"
         d="m 789.83598,628.04534 h -47.012 V 462.53867 h 14.21067 l -0.003,84.35467 -0.156,0.0507 0.156,0.46667 -10e-4,75.16933 h 32.80533 v 5.46534"
         style="fill:#dfae9a;fill-opacity:1;fill-rule:nonzero;stroke:none;stroke-width:0.133333" />
      <path
         id="path30"
         d="m 757.03198,547.41067 -0.156,-0.46667 0.156,-0.0507 v 0.51733"
         style="fill:#353435;fill-opacity:1;fill-rule:nonzero;stroke:none;stroke-width:0.133333" />
      <path
         id="path31"
         d="m 432.13732,303.34268 c 0,-15.812 12.812,-28.62134 28.62134,-28.62134 5.96266,0 11.49866,1.82 16.08266,4.936 -5.856,-4.768 -13.32666,-7.62933 -21.46933,-7.62933 h -23.23467 -54.988 -149.64266 c -19.72267,0 -35.708,15.98533 -35.708,35.708 v 1.29333 291.41466 63.42267 h 204.62933 c 19.72,0 35.70933,-15.98134 35.70933,-35.704 V 600.444 c 0,-13.18666 0,-275.91066 0,-293.55599 v -3.54533"
         style="fill:#ffffff;fill-opacity:1;fill-rule:nonzero;stroke:none;stroke-width:0.133333" />
      <path
         id="path32"
         d="m 432.13732,303.34268 h 1.99867 c 0.001,-7.36 2.976,-14.00267 7.79733,-18.82534 4.824,-4.82 11.46667,-7.79466 18.82534,-7.796 5.55333,10e-4 10.69199,1.692 14.95733,4.59067 0.884,0.6 2.09066,0.39733 2.72933,-0.46 0.63733,-0.856 0.48667,-2.07067 -0.34133,-2.74533 -6.19467,-5.04667 -14.11733,-8.08 -22.732,-8.07867 h -23.23467 -54.988 -149.64266 c -20.828,0 -37.708,16.88 -37.708,37.708 v 1.29333 291.41466 63.42267 c 0,0.52666 0.21334,1.04266 0.58534,1.41466 0.372,0.372 0.888,0.58534 1.41466,0.58534 h 204.62933 c 20.82533,0 37.708,-16.876 37.708,-37.704 V 600.444 c 0,-13.18666 0,-275.91066 0,-293.55599 v -3.54533 h -1.99867 -2 v 3.54533 c -10e-4,17.64533 -10e-4,280.36933 0,293.55599 v 27.71867 c -10e-4,9.316 -3.77066,17.72933 -9.87333,23.83333 -6.10667,6.10267 -14.52133,9.87067 -23.836,9.87067 H 193.79733 l 0.001,-61.42267 v -291.41466 -1.29333 c 0,-9.316 3.76934,-17.73067 9.872,-23.836 6.10533,-6.10267 14.52,-9.872 23.836,-9.872 h 149.64266 54.988 23.23467 c 7.66933,0 14.68933,2.69067 20.20666,7.18 l 1.26267,-1.55067 1.124,-1.65333 c -4.90133,-3.33333 -10.83467,-5.284 -17.20666,-5.28267 -16.91467,10e-4 -30.62134,13.70534 -30.62134,30.62134 h 2"
         style="fill:#3e3d3f;fill-opacity:1;fill-rule:nonzero;stroke:none;stroke-width:0.133333" />
      <path
         id="path33"
         d="m 432.13732,303.34268 v 3.54533 h 57.24533 v -0.85467 c 0,-10.644 -4.89066,-20.13733 -12.54133,-26.376 -4.584,-3.116 -10.12,-4.936 -16.08266,-4.936 -15.80934,0 -28.62134,12.80934 -28.62134,28.62134"
         style="fill:#f2f2f2;fill-opacity:1;fill-rule:nonzero;stroke:none;stroke-width:0.133333" />
      <path
         id="path34"
         d="m 432.13732,303.34268 h -2 v 3.54533 c 0,0.52667 0.212,1.04133 0.58534,1.41467 0.372,0.372 0.888,0.58533 1.41466,0.58533 h 57.24533 c 0.52667,0 1.04134,-0.21333 1.41467,-0.58533 0.372,-0.37334 0.58533,-0.888 0.58533,-1.41467 v -0.85467 c 10e-4,-11.26533 -5.18266,-21.328 -13.27733,-27.92533 l -0.14,-0.104 c -4.90133,-3.33333 -10.83467,-5.284 -17.20666,-5.28267 -16.91467,10e-4 -30.62134,13.70534 -30.62134,30.62134 h 2 1.99867 c 0.001,-7.36 2.976,-14.00267 7.79733,-18.82534 4.824,-4.82 11.46667,-7.79466 18.82534,-7.796 5.55333,10e-4 10.69199,1.692 14.95733,4.59067 l 1.12533,-1.65467 -1.264,1.55067 c 7.20667,5.87867 11.804,14.80267 11.80533,24.82533 v 0.85467 h 2 v -2 h -55.24666 v -1.54533 h -1.99867"
         style="fill:#3e3d3f;fill-opacity:1;fill-rule:nonzero;stroke:none;stroke-width:0.133333" />
      <path
         id="path35"
         d="m 369.43732,360.86534 h -13.91066 v -6.19733 h 13.91066 v 6.19733"
         style="fill:#ceced0;fill-opacity:1;fill-rule:nonzero;stroke:none;stroke-width:0.133333" />
      <path
         id="path36"
         d="m 369.43732,390.38134 h -13.91066 v -6.196 h 13.91066 v 6.196"
         style="fill:#ceced0;fill-opacity:1;fill-rule:nonzero;stroke:none;stroke-width:0.133333" />
      <path
         id="path37"
         d="m 369.43732,419.89601 h -13.91066 v -6.2 h 13.91066 v 6.2"
         style="fill:#ceced0;fill-opacity:1;fill-rule:nonzero;stroke:none;stroke-width:0.133333" />
      <path
         id="path38"
         d="m 369.43732,331.35601 h -13.91066 v -6.2 h 13.91066 v 6.2"
         style="fill:#ceced0;fill-opacity:1;fill-rule:nonzero;stroke:none;stroke-width:0.133333" />
      <path
         id="path39"
         d="m 369.43732,449.40801 h -13.91066 v -6.19867 h 13.91066 v 6.19867"
         style="fill:#ceced0;fill-opacity:1;fill-rule:nonzero;stroke:none;stroke-width:0.133333" />
      <path
         id="path40"
         d="m 369.43732,478.92001 h -13.91066 v -6.19867 h 13.91066 v 6.19867"
         style="fill:#ceced0;fill-opacity:1;fill-rule:nonzero;stroke:none;stroke-width:0.133333" />
      <path
         id="path41"
         d="m 369.43732,508.43067 h -13.91066 v -6.19733 h 13.91066 v 6.19733"
         style="fill:#ceced0;fill-opacity:1;fill-rule:nonzero;stroke:none;stroke-width:0.133333" />
      <path
         id="path42"
         d="m 369.43732,537.94267 h -13.91066 v -6.19733 h 13.91066 v 6.19733"
         style="fill:#ceced0;fill-opacity:1;fill-rule:nonzero;stroke:none;stroke-width:0.133333" />
      <path
         id="path43"
         d="m 369.43732,537.944 h -13.91066 v -6.19733 h 13.91066 v 6.19733"
         style="fill:#ceced0;fill-opacity:1;fill-rule:nonzero;stroke:none;stroke-width:0.133333" />
      <path
         id="path44"
         d="m 369.43732,567.456 h -13.91066 v -6.19866 h 13.91066 v 6.19866"
         style="fill:#ceced0;fill-opacity:1;fill-rule:nonzero;stroke:none;stroke-width:0.133333" />
      <path
         id="path45"
         d="M 369.43732,596.96667 H 355.52666 V 590.768 h 13.91066 v 6.19867"
         style="fill:#ceced0;fill-opacity:1;fill-rule:nonzero;stroke:none;stroke-width:0.133333" />
      <path
         id="path46"
         d="m 385.77999,315.87468 h -9.132 v 317.47465 l 9.132,4.89467 V 315.87468"
         style="fill:#ceced0;fill-opacity:1;fill-rule:nonzero;stroke:none;stroke-width:0.133333" />
      <path
         id="path47"
         d="M 372.24666,635.24 V 606.07334 H 131.22133 v 29.16533 c 0,14.92266 11.42133,27.23866 26.00267,28.56533 h 243.64399 c -15.812,0 -28.62133,-12.75733 -28.62133,-28.564"
         style="fill:#ffffff;fill-opacity:1;fill-rule:nonzero;stroke:none;stroke-width:0.133333" />
      <path
         id="path48"
         d="m 372.24666,635.24 h 1.99866 v -29.16666 c 0,-0.52667 -0.21333,-1.04267 -0.58533,-1.41467 -0.372,-0.372 -0.888,-0.58533 -1.41333,-0.58533 H 131.22133 c -0.52653,0 -1.0416,0.21333 -1.414,0.58533 -0.37293,0.372 -0.586,0.888 -0.586,1.41467 v 29.16533 c 0.005,15.964 12.20933,29.13466 27.82133,30.55733 l 0.18134,0.008 h 243.64399 c 0.52667,0 1.04267,-0.21333 1.41467,-0.58533 0.372,-0.372 0.58533,-0.888 0.58533,-1.41467 0,-0.52667 -0.21333,-1.04133 -0.58533,-1.41333 -0.372,-0.37334 -0.888,-0.58667 -1.41467,-0.58667 -7.36267,0 -14.00667,-2.964 -18.828,-7.77067 -4.81867,-4.80933 -7.79333,-11.436 -7.79467,-18.79333 h -1.99866 -2 c -0.001,8.44933 3.42933,16.10533 8.968,21.62533 5.536,5.52534 13.204,8.94 21.65333,8.93867 0.52667,0 1.04267,-0.21333 1.41467,-0.58533 0.372,-0.372 0.58533,-0.888 0.58533,-1.41467 0,-0.52667 -0.21333,-1.04133 -0.58533,-1.41333 -0.372,-0.37334 -0.888,-0.58667 -1.41467,-0.58667 H 157.224 v 2 l 0.18133,-1.99067 C 143.856,660.58267 133.21666,649.12 133.22133,635.23867 v -27.16533 h 237.02399 l 0.001,27.16666 h 2"
         style="fill:#3e3d3f;fill-opacity:1;fill-rule:nonzero;stroke:none;stroke-width:0.133333" />
      <path
         id="path49"
         d="M 237.21866,628.58534 V 619.66 h 7.06667 v 8.92534 h -7.06667"
         style="fill:#afb1b4;fill-opacity:1;fill-rule:nonzero;stroke:none;stroke-width:0.133333" />
      <path
         id="path50"
         d="M 221.17199,628.58534 V 619.66 h 7.06667 v 8.92534 h -7.06667"
         style="fill:#afb1b4;fill-opacity:1;fill-rule:nonzero;stroke:none;stroke-width:0.133333" />
      <path
         id="path51"
         d="M 205.12399,628.58534 V 619.66 h 7.06934 v 8.92534 h -7.06934"
         style="fill:#afb1b4;fill-opacity:1;fill-rule:nonzero;stroke:none;stroke-width:0.133333" />
      <path
         id="path52"
         d="M 189.07866,628.58534 V 619.66 h 7.06534 v 8.92534 h -7.06534"
         style="fill:#afb1b4;fill-opacity:1;fill-rule:nonzero;stroke:none;stroke-width:0.133333" />
      <path
         id="path53"
         d="M 173.02933,628.58534 V 619.66 h 7.06933 v 8.92534 h -7.06933"
         style="fill:#afb1b4;fill-opacity:1;fill-rule:nonzero;stroke:none;stroke-width:0.133333" />
      <path
         id="path54"
         d="M 156.98533,628.58534 V 619.66 h 7.064 v 8.92534 h -7.064"
         style="fill:#afb1b4;fill-opacity:1;fill-rule:nonzero;stroke:none;stroke-width:0.133333" />
      <path
         id="path55"
         d="M 140.93733,628.58534 V 619.66 h 7.06533 v 8.92534 h -7.06533"
         style="fill:#afb1b4;fill-opacity:1;fill-rule:nonzero;stroke:none;stroke-width:0.133333" />
      <path
         id="path56"
         d="M 333.49999,628.58534 V 619.66 h 7.06533 v 8.92534 h -7.06533"
         style="fill:#afb1b4;fill-opacity:1;fill-rule:nonzero;stroke:none;stroke-width:0.133333" />
      <path
         id="path57"
         d="M 317.45333,628.58534 V 619.66 h 7.06666 v 8.92534 h -7.06666"
         style="fill:#afb1b4;fill-opacity:1;fill-rule:nonzero;stroke:none;stroke-width:0.133333" />
      <path
         id="path58"
         d="M 349.54666,628.58534 V 619.66 h 7.06666 v 8.92534 h -7.06666"
         style="fill:#afb1b4;fill-opacity:1;fill-rule:nonzero;stroke:none;stroke-width:0.133333" />
      <path
         id="path59"
         d="M 301.40533,628.58534 V 619.66 h 7.068 v 8.92534 h -7.068"
         style="fill:#afb1b4;fill-opacity:1;fill-rule:nonzero;stroke:none;stroke-width:0.133333" />
      <path
         id="path60"
         d="M 285.35999,628.58534 V 619.66 h 7.06534 v 8.92534 h -7.06534"
         style="fill:#afb1b4;fill-opacity:1;fill-rule:nonzero;stroke:none;stroke-width:0.133333" />
      <path
         id="path61"
         d="M 269.31066,628.58534 V 619.66 h 7.06933 v 8.92534 h -7.06933"
         style="fill:#afb1b4;fill-opacity:1;fill-rule:nonzero;stroke:none;stroke-width:0.133333" />
      <path
         id="path62"
         d="M 253.26666,628.58534 V 619.66 h 7.06533 v 8.92534 h -7.06533"
         style="fill:#afb1b4;fill-opacity:1;fill-rule:nonzero;stroke:none;stroke-width:0.133333" />
      <path
         id="path63"
         d="m 270.74266,346.29601 c 8.70933,8.06933 21.196,-5.07867 12.36267,-13.31867 -8.87734,-8.24933 -21.08134,5.20134 -12.36267,13.31867 z m -3.796,4.076 c -14.18933,-13.17333 5.74133,-34.68267 19.95733,-21.48533 14.204,13.24266 -5.76133,34.648 -19.95733,21.48533"
         style="fill:#77d2eb;fill-opacity:1;fill-rule:nonzero;stroke:none;stroke-width:0.133333" />
      <path
         id="path64"
         d="m 272.04933,572.28134 c -4.12667,2.82 -5.18534,8.47466 -2.35734,12.61066 2.828,4.136 8.47334,5.192 12.6,2.37067 9.89067,-6.764 -0.332,-21.75733 -10.24266,-14.98133 z m -6.97734,15.76666 c -10.936,-16 13.26267,-32.544 24.20134,-16.544 10.932,15.98934 -13.26667,32.53467 -24.20134,16.544"
         style="fill:#fe5314;fill-opacity:1;fill-rule:nonzero;stroke:none;stroke-width:0.133333" />
      <path
         id="path65"
         d="m 276.86533,503.868 c -4.13467,2.82934 -5.2,8.48134 -2.372,12.616 2.83066,4.14267 8.47866,5.188 12.61333,2.36134 9.88667,-6.76 -0.328,-21.752 -10.24133,-14.97734 z m -6.976,15.76534 c -10.93334,-15.996 13.264,-32.54 24.19866,-16.54534 10.932,15.988 -13.26533,32.532 -24.19866,16.54534"
         style="fill:#fe5314;fill-opacity:1;fill-rule:nonzero;stroke:none;stroke-width:0.133333" />
      <path
         id="path66"
         d="m 262.71466,462.80667 c 6.76667,9.89867 21.75733,-0.332 14.98,-10.23866 -6.76,-9.88934 -21.74667,0.34266 -14.98,10.23866 z m -4.61467,3.15734 c -10.92933,-15.98667 13.28,-32.53867 24.20934,-16.55334 10.93866,15.99734 -13.27067,32.55067 -24.20934,16.55334"
         style="fill:#77d2eb;fill-opacity:1;fill-rule:nonzero;stroke:none;stroke-width:0.133333" />
      <path
         id="path67"
         d="m 220.31066,512.11334 c 6.76533,9.892 21.75867,-0.34934 14.98933,-10.25067 -6.76933,-9.89466 -21.764,0.34133 -14.98933,10.25067 z m -4.60667,3.15066 c -10.93866,-15.99866 13.27067,-32.55199 24.208,-16.55466 10.93067,15.984 -13.27866,32.53733 -24.208,16.55466"
         style="fill:#77d2eb;fill-opacity:1;fill-rule:nonzero;stroke:none;stroke-width:0.133333" />
      <path
         id="path68"
         d="m 233.39466,570.81334 c 6.77067,9.90133 21.75333,-0.32934 14.97867,-10.24267 -6.76934,-9.9 -21.752,0.332 -14.97867,10.24267 z m -4.616,3.156 c -10.93333,-15.99334 13.26933,-32.54267 24.20533,-16.552 10.93334,15.992 -13.27466,32.54 -24.20533,16.552"
         style="fill:#77d2eb;fill-opacity:1;fill-rule:nonzero;stroke:none;stroke-width:0.133333" />
      <path
         id="path69"
         d="m 250.96133,402.33867 c 6.772,9.9 21.76,-0.33066 14.98,-10.24533 -6.76,-9.888 -21.74667,0.344 -14.98,10.24533 z m -4.6,3.14534 c -10.928,-15.98534 13.26533,-32.528 24.192,-16.544 10.94133,16.00133 -13.252,32.54266 -24.192,16.544"
         style="fill:#77d2eb;fill-opacity:1;fill-rule:nonzero;stroke:none;stroke-width:0.133333" />
      <path
         id="path70"
         d="m 332.92666,462.16801 c -9.89867,6.76666 0.312,21.74933 10.23466,14.968 9.89067,-6.76534 -0.33466,-21.73734 -10.23466,-14.968 z m 13.39866,19.59333 c -15.99466,10.93867 -32.57333,-13.27467 -16.56266,-24.22133 15.98666,-10.92934 32.548,13.292 16.56266,24.22133"
         style="fill:#fe5314;fill-opacity:1;fill-rule:nonzero;stroke:none;stroke-width:0.133333" />
      <path
         id="path71"
         d="m 299.86666,418.79601 c -9.88933,6.76 0.352,21.75733 10.24933,14.99066 9.90134,-6.768 -0.32533,-21.77733 -10.24933,-14.99066 z m 13.39733,19.59333 c -15.984,10.928 -32.528,-13.26933 -16.544,-24.19867 16.008,-10.944 32.552,13.25334 16.544,24.19867"
         style="fill:#fe5314;fill-opacity:1;fill-rule:nonzero;stroke:none;stroke-width:0.133333" />
      <path
         id="path72"
         d="m 283.59733,567.972 -11.12934,-0.93466 3.7,-44.128 11.13734,0.93733 -3.708,44.12533"
         style="fill:#fe5314;fill-opacity:1;fill-rule:nonzero;stroke:none;stroke-width:0.133333" />
      <path
         id="path73"
         d="m 244.53333,552.53867 -10.864,2.54667 -8.36534,-35.716 10.872,-2.556 8.35734,35.72533"
         style="fill:#77d2eb;fill-opacity:1;fill-rule:nonzero;stroke:none;stroke-width:0.133333" />
      <path
         id="path74"
         d="m 239.57199,500.236 -8.29333,-7.48933 26.79467,-29.75333 8.316,7.488 -26.81734,29.75466"
         style="fill:#77d2eb;fill-opacity:1;fill-rule:nonzero;stroke:none;stroke-width:0.133333" />
      <path
         id="path75"
         d="m 274.80533,444.43334 -10.92534,2.33867 -8.04133,-37.424 10.928,-2.332 8.03867,37.41733"
         style="fill:#77d2eb;fill-opacity:1;fill-rule:nonzero;stroke:none;stroke-width:0.133333" />
      <path
         id="path76"
         d="m 268.48799,387.45334 -10.804,-2.83733 9.40934,-35.97867 10.80666,2.83067 -9.412,35.98533"
         style="fill:#77d2eb;fill-opacity:1;fill-rule:nonzero;stroke:none;stroke-width:0.133333" />
      <path
         id="path77"
         d="m 326.29866,463.61067 -17.70933,-23.416 8.93066,-6.72133 17.70533,23.408 -8.92666,6.72933"
         style="fill:#fe5314;fill-opacity:1;fill-rule:nonzero;stroke:none;stroke-width:0.133333" />
      <path
         id="path78"
         d="m 309.57199,379.81334 c 6.76534,9.89733 21.75334,-0.332 14.97734,-10.24 -6.76267,-9.888 -21.748,0.344 -14.97734,10.24 z m -4.60666,3.152 c -10.932,-15.98933 13.26266,-32.53333 24.196,-16.54533 10.93866,16 -13.256,32.54133 -24.196,16.54533"
         style="fill:#fe5314;fill-opacity:1;fill-rule:nonzero;stroke:none;stroke-width:0.133333" />
      <path
         id="path79"
         d="m 312.99466,415.09601 -10.696,-3.208 8.10267,-27.10934 10.69066,3.21734 -8.09733,27.1"
         style="fill:#fe5314;fill-opacity:1;fill-rule:nonzero;stroke:none;stroke-width:0.133333" />
      <path
         id="path80"
         d="m 294.50133,507.32267 -6.50267,-9.09467 37.272,-26.59599 6.48,9.08933 -37.24933,26.60133"
         style="fill:#fe5314;fill-opacity:1;fill-rule:nonzero;stroke:none;stroke-width:0.133333" />
      <path
         id="path81"
         d="m 350.99866,403.05601 c 0,-10.33067 8.36933,-18.696 18.69466,-18.696 h 353.956 c 10.32266,0 18.69599,8.36533 18.69599,18.696 l -0.005,221.63066 H 350.99199 l 0.007,-221.63066"
         style="fill:#f2f2f2;fill-opacity:1;fill-rule:nonzero;stroke:none;stroke-width:0.133333" />
      <path
         id="path82"
         d="m 350.99866,403.05601 h 2 c 0.001,-4.62 1.86533,-8.78134 4.88933,-11.808 3.028,-3.024 7.188,-4.888 11.80533,-4.888 h 353.956 c 4.61466,0 8.776,1.864 11.80399,4.888 3.02534,3.02666 4.89067,7.188 4.892,11.808 l -0.005,219.63066 H 352.99199 l 0.007,-219.63066 h -2 -2 l -0.007,221.63066 c 0,0.52667 0.21333,1.04133 0.58533,1.41333 0.37334,0.37334 0.888,0.58667 1.41467,0.58667 h 391.34799 c 1.104,0 2,-0.896 2,-2 l 0.005,-221.63066 c -10e-4,-11.436 -9.26933,-20.696 -20.69599,-20.696 h -353.956 c -11.42933,0 -20.69333,9.26 -20.69466,20.696 h 2"
         style="fill:#3e3d3f;fill-opacity:1;fill-rule:nonzero;stroke:none;stroke-width:0.133333" />
      <path
         id="path83"
         d="m 324.21866,624.68667 v 8.096 c 0,22.532 18.26533,31.084 40.8,31.084 h 363.29866 c 22.53466,0 40.79999,-8.552 40.79999,-31.084 v -8.096 H 324.21866"
         style="fill:#f2f2f2;fill-opacity:1;fill-rule:nonzero;stroke:none;stroke-width:0.133333" />
      <path
         id="path84"
         d="m 324.21866,624.68667 h -2 v 8.096 c -10e-4,5.9 1.20133,11 3.432,15.28533 3.34267,6.44 8.95733,10.93733 15.792,13.75333 6.844,2.82534 14.936,4.04267 23.576,4.04534 h 363.29866 c 11.51333,-0.008 22.07999,-2.156 29.96399,-7.432 3.93467,-2.636 7.17734,-6.08 9.404,-10.36667 2.22934,-4.28533 3.43334,-9.38533 3.432,-15.28533 v -8.096 c 0,-0.52667 -0.21333,-1.04267 -0.58666,-1.41467 -0.372,-0.372 -0.88667,-0.58533 -1.41334,-0.58533 H 324.21866 c -0.52667,0 -1.04133,0.21333 -1.41467,0.58533 -0.372,0.372 -0.58533,0.888 -0.58533,1.41467 h 2 v 2 h 442.89865 v 6.096 c -0.003,5.36533 -1.08133,9.784 -2.98133,13.44 -2.85067,5.47066 -7.58133,9.33466 -13.77067,11.90133 -6.18,2.55867 -13.78666,3.74533 -22.04799,3.74267 H 365.01866 c -11.02134,0.009 -20.85467,-2.11867 -27.736,-6.75334 -3.44934,-2.31733 -6.18,-5.236 -8.084,-8.89066 -1.89867,-3.656 -2.97867,-8.07467 -2.98,-13.44 v -8.096 h -2 v 2 -2"
         style="fill:#3e3d3f;fill-opacity:1;fill-rule:nonzero;stroke:none;stroke-width:0.133333" />
      <path
         id="path85"
         d="m 720.00132,414.39067 h -342.052 v 197.06 h 342.052 v -197.06"
         style="fill:#fec6b0;fill-opacity:1;fill-rule:nonzero;stroke:none;stroke-width:0.133333" />
      <path
         id="path86"
         d="m 720.00132,414.39067 v -2 h -342.052 c -0.52666,0 -1.04266,0.21334 -1.41466,0.58534 -0.372,0.37333 -0.58534,0.888 -0.58534,1.41466 v 197.06 c 0,0.52667 0.21334,1.04133 0.58534,1.41467 0.372,0.372 0.888,0.58533 1.41466,0.58533 h 342.052 c 0.52666,0 1.04133,-0.21333 1.41466,-0.58667 0.372,-0.372 0.58534,-0.88666 0.58534,-1.41333 v -197.06 c 0,-0.52666 -0.21334,-1.04133 -0.58534,-1.41466 -0.37333,-0.372 -0.888,-0.58534 -1.41466,-0.58534 v 2 h -2 v 195.06 h -338.052 v -193.06 h 340.052 v -2 h -2 2"
         style="fill:#3e3d3f;fill-opacity:1;fill-rule:nonzero;stroke:none;stroke-width:0.133333" />
      <path
         id="path87"
         d="m 486.69599,456.34667 h -43.104 v -4.13866 h 43.104 v 4.13866"
         style="fill:#ffffff;fill-opacity:1;fill-rule:nonzero;stroke:none;stroke-width:0.133333" />
      <path
         id="path88"
         d="m 510.34532,465.07467 h -66.75333 v -4.13733 h 66.75333 v 4.13733"
         style="fill:#ffffff;fill-opacity:1;fill-rule:nonzero;stroke:none;stroke-width:0.133333" />
      <path
         id="path89"
         d="m 499.86665,473.80267 h -56.27466 v -4.13733 h 56.27466 v 4.13733"
         style="fill:#ffffff;fill-opacity:1;fill-rule:nonzero;stroke:none;stroke-width:0.133333" />
      <path
         id="path90"
         d="m 471.84132,583.556 h -26.824 v -32.048 h 26.824 v 32.048"
         style="fill:#f05a78;fill-opacity:1;fill-rule:nonzero;stroke:none;stroke-width:0.133333" />
      <path
         id="path91"
         d="m 471.84132,583.556 v -2 h -24.82533 v -28.048 h 22.82533 v 30.048 h 2 v -2 2 h 2 v -34.048 h -30.824 v 36.04667 h 30.824 V 583.556 h -2"
         style="fill:#3e3d3f;fill-opacity:1;fill-rule:nonzero;stroke:none;stroke-width:0.133333" />
      <path
         id="path92"
         d="m 511.86265,583.556 h -26.82533 v -50.62 h 26.82533 v 50.62"
         style="fill:#f7d85c;fill-opacity:1;fill-rule:nonzero;stroke:none;stroke-width:0.133333" />
      <path
         id="path93"
         d="m 511.86265,583.556 v -2 h -24.82533 v -46.62 h 22.82533 v 48.62 h 2 v -2 2 h 2 v -52.62 h -30.82533 v 54.61867 h 30.82533 V 583.556 h -2"
         style="fill:#3e3d3f;fill-opacity:1;fill-rule:nonzero;stroke:none;stroke-width:0.133333" />
      <path
         id="path94"
         d="m 551.88799,583.556 h -26.828 v -67.86 h 26.828 v 67.86"
         style="fill:#9fd450;fill-opacity:1;fill-rule:nonzero;stroke:none;stroke-width:0.133333" />
      <path
         id="path95"
         d="m 551.88799,583.556 v -2 h -24.82934 v -63.86 h 22.828 l 10e-4,65.86 h 2 v -2 2 h 1.99866 v -69.86 h -30.82666 v 71.85867 h 30.82666 V 583.556 h -1.99866"
         style="fill:#3e3d3f;fill-opacity:1;fill-rule:nonzero;stroke:none;stroke-width:0.133333" />
      <path
         id="path96"
         d="m 591.90932,583.556 h -26.82533 v -59.94266 h 26.82533 V 583.556"
         style="fill:#f05a78;fill-opacity:1;fill-rule:nonzero;stroke:none;stroke-width:0.133333" />
      <path
         id="path97"
         d="m 591.90932,583.556 v -2 h -24.82533 v -55.94266 h 22.824 l 10e-4,57.94266 h 2 v -2 2 h 1.99867 v -61.94266 h -30.824 v 63.94133 h 30.824 V 583.556 h -1.99867"
         style="fill:#3e3d3f;fill-opacity:1;fill-rule:nonzero;stroke:none;stroke-width:0.133333" />
      <path
         id="path98"
         d="m 631.93198,583.556 h -26.82533 v -97.28399 h 26.82533 V 583.556"
         style="fill:#f7d85c;fill-opacity:1;fill-rule:nonzero;stroke:none;stroke-width:0.133333" />
      <path
         id="path99"
         d="m 631.93198,583.556 v -2 h -24.82666 v -93.28399 h 22.82533 l 10e-4,95.28399 h 2 v -2 2 h 1.99867 v -99.28399 h -30.824 v 101.28266 h 30.824 V 583.556 h -1.99867"
         style="fill:#3e3d3f;fill-opacity:1;fill-rule:nonzero;stroke:none;stroke-width:0.133333" />
      <path
         id="path100"
         d="M 671.95332,583.556 H 645.12798 V 444.70801 h 26.82534 V 583.556"
         style="fill:#9fd450;fill-opacity:1;fill-rule:nonzero;stroke:none;stroke-width:0.133333" />
      <path
         id="path101"
         d="m 671.95332,583.556 v -2 H 647.12798 V 446.70801 h 22.82534 V 583.556 h 2 v -2 2 h 2 V 442.70801 h -30.82534 v 142.84666 h 30.82534 V 583.556 h -2"
         style="fill:#3e3d3f;fill-opacity:1;fill-rule:nonzero;stroke:none;stroke-width:0.133333" />
      <path
         id="path102"
         d="m 425.37066,457.67067 h -9.60934 v -4.28 h 9.60934 v 4.28"
         style="fill:#ffffff;fill-opacity:1;fill-rule:nonzero;stroke:none;stroke-width:0.133333" />
      <path
         id="path103"
         d="m 425.37066,479.16667 h -9.60934 v -4.28133 h 9.60934 v 4.28133"
         style="fill:#ffffff;fill-opacity:1;fill-rule:nonzero;stroke:none;stroke-width:0.133333" />
      <path
         id="path104"
         d="m 425.37066,500.66267 h -9.60934 v -4.28133 h 9.60934 v 4.28133"
         style="fill:#ffffff;fill-opacity:1;fill-rule:nonzero;stroke:none;stroke-width:0.133333" />
      <path
         id="path105"
         d="m 425.37066,522.15867 h -9.60934 v -4.28133 h 9.60934 v 4.28133"
         style="fill:#ffffff;fill-opacity:1;fill-rule:nonzero;stroke:none;stroke-width:0.133333" />
      <path
         id="path106"
         d="m 425.37066,543.652 h -9.60934 v -4.28 h 9.60934 v 4.28"
         style="fill:#ffffff;fill-opacity:1;fill-rule:nonzero;stroke:none;stroke-width:0.133333" />
      <path
         id="path107"
         d="m 425.37066,565.14534 h -9.60934 v -4.28 h 9.60934 v 4.28"
         style="fill:#ffffff;fill-opacity:1;fill-rule:nonzero;stroke:none;stroke-width:0.133333" />
      <path
         id="path108"
         d="m 425.37066,586.64134 h -9.60934 V 582.36 h 9.60934 v 4.28134"
         style="fill:#ffffff;fill-opacity:1;fill-rule:nonzero;stroke:none;stroke-width:0.133333" />
      <path
         id="path110"
         d="m 429.64266,453.40001 v 133.27333 h 250.09066 v -4 H 433.64266 V 453.40001 h -3.99867"
         style="fill:#3e3d3f;fill-opacity:1;fill-rule:nonzero;stroke:none;stroke-width:0.133333" />
      <path
         id="path111"
         d="m 951.84931,613.324 -7.54933,22.39333 -33.81867,-11.40666 7.55333,-22.388 33.81467,11.40133"
         style="fill:#ffffff;fill-opacity:1;fill-rule:nonzero;stroke:none;stroke-width:0.133333" />
      <path
         id="path112"
         d="m 951.84931,613.324 -1.896,-0.63866 -6.91067,20.49733 -30.02666,-10.12667 6.27466,-18.59866 31.91867,10.76266 0.64,-1.896 -1.896,-0.63866 1.896,0.63866 0.63867,-1.89466 -35.70934,-12.04 -8.832,26.17733 37.60934,12.68533 8.82666,-26.184 -1.89466,-0.63866 -0.63867,1.89466"
         style="fill:#3e3d3f;fill-opacity:1;fill-rule:nonzero;stroke:none;stroke-width:0.133333" />
      <path
         id="path113"
         d="m 878.41198,529.26934 c 35.58533,12.00133 54.704,50.576 42.70133,86.16133 -12.00267,35.58133 -50.57733,54.704 -86.16133,42.70266 -35.58667,-12.004 -54.70267,-50.57466 -42.70267,-86.16399 12.00134,-35.58 50.57867,-54.70134 86.16267,-42.7"
         style="fill:#ffffff;fill-opacity:1;fill-rule:nonzero;stroke:none;stroke-width:0.133333" />
      <path
         id="path114"
         d="m 878.41198,529.26934 -0.63867,1.89466 c 27.54533,9.28667 44.92267,34.98667 44.924,62.52667 0,6.992 -1.12,14.10267 -3.47867,21.1 -9.288,27.54533 -34.98933,44.924 -62.53066,44.92666 -6.992,-10e-4 -14.10133,-1.12 -21.09733,-3.48 -27.548,-9.288 -44.924,-34.98666 -44.92667,-62.52799 10e-4,-6.992 1.12,-14.10134 3.48,-21.1 9.28667,-27.544 34.99067,-44.92267 62.532,-44.924 6.99067,0 14.09866,1.11866 21.09733,3.47866 l 0.63867,-1.89466 0.63866,-1.896 c -7.412,-2.5 -14.95733,-3.688 -22.37466,-3.688 -29.21733,-10e-4 -56.46667,18.43466 -66.32133,47.64533 -2.50134,7.41333 -3.69067,14.96 -3.68934,22.37867 -0.003,29.21733 18.43334,56.45999 47.64667,66.31866 7.412,2.5 14.95733,3.68933 22.376,3.68933 29.216,0.001 56.46266,-18.436 66.32,-47.64799 2.5,-7.41334 3.68933,-14.96 3.68933,-22.37867 0.003,-29.216 -18.43333,-56.46133 -47.64667,-66.31733 l -0.63866,1.896"
         style="fill:#3e3d3f;fill-opacity:1;fill-rule:nonzero;stroke:none;stroke-width:0.133333" />
      <path
         id="path115"
         d="m 873.57864,543.596 c 27.67334,9.33467 42.54,39.332 33.20667,67.00267 -9.33067,27.668 -39.32933,42.53866 -67.00133,33.20533 -27.67333,-9.332 -42.53867,-39.33066 -33.20533,-67.00133 9.332,-27.67067 39.332,-42.53733 66.99999,-33.20667"
         style="fill:#77d2eb;fill-opacity:1;fill-rule:nonzero;stroke:none;stroke-width:0.133333" />
      <path
         id="path116"
         d="m 873.57864,543.596 -0.21333,0.632 c 21.792,7.34934 35.54,27.67734 35.54,49.46667 0,5.53067 -0.88533,11.15733 -2.752,16.69067 -7.34667,21.78933 -27.67733,35.53866 -49.46666,35.53999 -5.532,0 -11.15734,-0.88666 -16.68934,-2.752 -21.792,-7.348 -35.54,-27.67733 -35.54,-49.46533 0,-5.532 0.88534,-11.15866 2.75334,-16.692 7.348,-21.79066 27.67866,-35.53866 49.468,-35.54 5.52933,0 11.15333,0.88534 16.68666,2.752 l 0.21333,-0.632 0.212,-0.632 c -5.67066,-1.912 -11.43999,-2.82133 -17.11199,-2.82133 -22.34667,0 -43.19467,14.1 -50.732,36.44667 -1.91467,5.67333 -2.82267,11.444 -2.82267,17.11866 -10e-4,22.34667 14.1,43.19067 36.44667,50.728 5.67066,1.91333 11.44133,2.82267 17.116,2.82267 22.34799,0 43.19333,-14.10267 50.73066,-36.44667 1.912,-5.672 2.82133,-11.444 2.82133,-17.11733 10e-4,-22.34667 -14.1,-43.192 -36.448,-50.73067 l -0.212,0.632"
         style="fill:#3e3d3f;fill-opacity:1;fill-rule:nonzero;stroke:none;stroke-width:0.133333" />
      <path
         id="path117"
         d="m 1004.7626,623.34 c 10.0307,3.384 15.4227,14.26 12.0374,24.28933 -3.3854,10.03067 -14.26,15.424 -24.28802,12.03867 l -48.39334,-16.25067 c -3.02933,-1.01866 -4.65466,-4.30133 -3.63466,-7.33333 l 8.55333,-25.36133 c 1.02133,-3.02667 4.30533,-4.652 7.332,-3.632 L 1004.7626,623.34"
         style="fill:#f05a78;fill-opacity:1;fill-rule:nonzero;stroke:none;stroke-width:0.133333" />
      <path
         id="path118"
         d="m 1004.7626,623.34 -0.6386,1.89467 c 7.164,2.41467 11.684,9.10533 11.6853,16.26533 0,1.81867 -0.2907,3.66533 -0.9053,5.49067 -2.4147,7.16533 -9.1067,11.68666 -16.26669,11.688 -1.81733,0 -3.66533,-0.29067 -5.48667,-0.90534 h -0.003 l -48.39334,-16.252 c -1.58,-0.528 -2.57466,-2.00533 -2.576,-3.58533 0,-0.40133 0.0627,-0.80667 0.2,-1.21067 v -0.003 l 8.55334,-25.36 c 0.52933,-1.58 2.01066,-2.57467 3.588,-2.57733 0.4,10e-4 0.804,0.064 1.21066,0.2 l 48.396,16.25066 v -0.001 l 0.6386,-1.89467 0.6374,-1.896 -48.39473,-16.24933 c -0.81867,-0.276 -1.66,-0.40933 -2.48533,-0.40933 -3.252,-0.001 -6.27734,2.05066 -7.37867,5.29866 l -8.552,25.36133 v -0.003 c -0.27867,0.824 -0.41067,1.668 -0.41067,2.49333 -0.003,3.25333 2.052,6.28 5.30134,7.37733 l 48.39466,16.25067 h -0.003 c 2.23733,0.75467 4.52,1.11467 6.76533,1.11467 8.83597,10e-4 17.07197,-5.57734 20.05727,-14.41067 0.7547,-2.23867 1.1147,-4.52267 1.1147,-6.768 0,-8.836 -5.5747,-17.072 -14.4067,-20.05466 v -10e-4 l -0.6374,1.896"
         style="fill:#3e3d3f;fill-opacity:1;fill-rule:nonzero;stroke:none;stroke-width:0.133333" />
      <path
         id="path119"
         d="m 866.17865,541.14 c 29.03066,5.24934 48.30933,33.032 43.06266,62.06 -5.24533,29.02267 -33.03067,48.30533 -62.05733,43.06 -29.02933,-5.24533 -48.308,-33.03066 -43.06133,-62.05866 5.24666,-29.02534 33.03333,-48.304 62.056,-43.06134"
         style="fill:#fec6b0;fill-opacity:1;fill-rule:nonzero;stroke:none;stroke-width:0.133333" />
      <path
         id="path120"
         d="m 6062.15,2115.19 -60.17,571.84 c 317.39,33.4 601.95,-194.84 639.1,-510.92 l -578.93,-60.92"
         style="fill:#54bfd3;fill-opacity:1;fill-rule:nonzero;stroke:none"
         transform="matrix(0.13333333,0,0,-0.13333333,0,831.49333)"
         clip-path="url(#clipPath121)" />
      <path
         id="path122"
         d="m 6062.15,2115.19 29.84,3.14 -60.18,571.84 -29.83,-3.14 3.14,-29.83 c 19.66,2.07 39.17,3.08 58.49,3.08 138.37,0 266.99,-51.83 365.27,-138.76 98.25,-86.96 165.91,-208.71 182.41,-348.91 l 29.79,3.5 -3.14,29.84 -578.93,-60.92 3.14,-29.84 29.84,3.14 -29.84,-3.14 3.14,-29.83 609.13,64.09 -3.54,30.17 c -18.24,155.26 -93.41,290.59 -202.24,386.84 -108.82,96.29 -251.57,153.82 -405.03,153.82 -21.41,0 -43.02,-1.12 -64.77,-3.41 l -29.84,-3.14 66.45,-631.51 29.84,3.14 -3.14,29.83"
         style="fill:#3e3d3f;fill-opacity:1;fill-rule:nonzero;stroke:none"
         transform="matrix(0.13333333,0,0,-0.13333333,0,831.49333)"
         clip-path="url(#clipPath123)" />
      <path
         id="path124"
         d="m 6582.77,2173.23 c 0.12,-1.16 0.23,-2.22 0.33,-3.22 30.28,-287.8 -178.43,-545.59 -466.13,-575.86 -287.8,-30.28 -545.63,178.41 -575.92,466.22 -0.1,1 -0.03,2.07 -0.16,3.23 l 1041.88,109.63"
         style="fill:#9fd450;fill-opacity:1;fill-rule:nonzero;stroke:none"
         transform="matrix(0.13333333,0,0,-0.13333333,0,831.49333)"
         clip-path="url(#clipPath125)" />
      <path
         id="path126"
         d="m 6582.77,2173.23 -14.93,-1.52 c 0.13,-1.24 0.25,-2.29 0.33,-3.16 l 0.01,-0.11 c 1.91,-18.11 2.83,-36.1 2.84,-53.91 0,-257.12 -194.27,-477.99 -455.62,-505.46 -18.11,-1.9 -36.11,-2.84 -53.92,-2.84 -257.12,0 -478.03,194.25 -505.51,455.7 v 0.04 l -3.63,-0.39 3.65,0.14 -0.02,0.25 -3.63,-0.39 3.65,0.14 c -0.03,0.14 0.03,1.42 -0.19,3.51 l -14.91,-1.63 1.57,-14.92 1041.88,109.63 -1.57,14.92 -14.93,-1.52 14.93,1.52 -1.57,14.91 -1056.86,-111.2 1.64,-14.98 3.16,0.35 -3.17,-0.23 0.01,-0.12 3.16,0.35 -3.17,-0.23 v -0.11 c 0.03,-0.33 -0.02,-1.33 0.17,-3.21 v 0.04 c 29.15,-276.88 262.95,-482.56 535.34,-482.57 18.86,0 37.9,0.99 57.06,3.01 276.77,29.15 482.47,262.9 482.47,535.29 0.01,18.85 -0.98,37.89 -2.99,57.05 l 0.01,-0.11 c -0.11,1.13 -0.23,2.2 -0.34,3.27 l -1.52,14.98 -14.97,-1.58 1.57,-14.91"
         style="fill:#3e3d3f;fill-opacity:1;fill-rule:nonzero;stroke:none"
         transform="matrix(0.13333333,0,0,-0.13333333,0,831.49333)"
         clip-path="url(#clipPath127)" />
      <path
         id="path128"
         d="m 6061.88,2117.79 392.4,484.81 c 269.01,-217.85 312.09,-611.13 98.24,-881.99 l -490.64,397.18"
         style="fill:#f7d85c;fill-opacity:1;fill-rule:nonzero;stroke:none"
         transform="matrix(0.13333333,0,0,-0.13333333,0,831.49333)"
         clip-path="url(#clipPath129)" />
      <path
         id="path130"
         d="m 6061.88,2117.79 11.65,-9.44 392.41,484.81 -11.66,9.44 -9.44,-11.66 c 150.46,-121.85 228.47,-299.79 228.49,-479.42 -0.01,-133.94 -43.39,-268.62 -132.58,-381.62 l 11.77,-9.29 9.44,11.66 -490.65,397.18 -9.43,-11.66 11.65,-9.44 -11.65,9.44 -9.44,-11.66 502.45,-406.73 9.41,11.92 c 93.49,118.41 139.04,259.81 139.03,400.2 0.02,188.25 -81.88,375.01 -239.61,502.74 l -11.67,9.44 -411.27,-508.13 11.66,-9.44 9.44,11.66"
         style="fill:#3e3d3f;fill-opacity:1;fill-rule:nonzero;stroke:none"
         transform="matrix(0.13333333,0,0,-0.13333333,0,831.49333)"
         clip-path="url(#clipPath131)" />
      <path
         id="path132"
         d="m 6061.93,2114.61 -206.9,-536.64 c -297.75,114.88 -447.11,447.72 -336.2,746.05 l 543.1,-209.41"
         style="fill:#f05a78;fill-opacity:1;fill-rule:nonzero;stroke:none"
         transform="matrix(0.13333333,0,0,-0.13333333,0,831.49333)"
         clip-path="url(#clipPath133)" />
      <path
         id="path134"
         d="m 6061.93,2114.61 -27.99,10.8 -206.9,-536.65 27.99,-10.79 10.8,27.99 c -109.69,42.34 -197.95,115.66 -258.99,206.24 -61.01,90.58 -94.63,198.35 -94.62,309.13 0,63.91 11.16,128.84 34.73,192.23 l -28.12,10.46 -10.79,-27.99 543.1,-209.41 10.79,27.99 -27.99,10.8 27.99,-10.8 10.79,27.99 -571.43,220.33 -10.58,-28.46 c -26.09,-70.15 -38.5,-142.24 -38.49,-213.14 0,-122.93 37.25,-242.26 104.86,-342.65 67.59,-100.37 165.73,-181.86 287.15,-228.7 l 27.99,-10.8 228.49,592.63 -27.99,10.79 -10.79,-27.99"
         style="fill:#3e3d3f;fill-opacity:1;fill-rule:nonzero;stroke:none"
         transform="matrix(0.13333333,0,0,-0.13333333,0,831.49333)"
         clip-path="url(#clipPath135)" />
      <path
         id="path136"
         d="m 6062.29,2118.46 246.5,-556.1 c -308.56,-136.76 -669.22,0.43 -809.3,306.54 l 562.8,249.56"
         style="fill:#f05a78;fill-opacity:1;fill-rule:nonzero;stroke:none"
         transform="matrix(0.13333333,0,0,-0.13333333,0,831.49333)"
         clip-path="url(#clipPath137)" />
      <path
         id="path138"
         d="m 6062.29,2118.46 -13.71,-6.08 246.5,-556.1 13.71,6.08 -6.08,13.72 c -79.17,-35.09 -161.77,-51.68 -243.08,-51.68 -228.08,0.01 -445.78,130.59 -546.5,350.74 l -13.64,-6.24 6.08,-13.71 562.8,249.55 -6.08,13.72 -13.71,-6.08 13.71,6.08 -6.08,13.71 -576.67,-255.71 6.31,-13.8 c 105.79,-231.14 334.33,-368.28 573.78,-368.26 85.39,-0.01 172.2,17.44 255.24,54.25 l 13.71,6.07 -258.66,583.53 -13.71,-6.08 6.08,-13.71"
         style="fill:#3e3d3f;fill-opacity:1;fill-rule:nonzero;stroke:none"
         transform="matrix(0.13333333,0,0,-0.13333333,0,831.49333)"
         clip-path="url(#clipPath139)" />
      <path
         id="path140"
         d="m 5856.98,2096.85 c 11.91,-113.15 113.31,-195.17 226.38,-183.27 113.12,11.9 195.06,113.22 183.15,226.37 -11.89,112.99 -113.13,195.16 -226.25,183.26 -113.07,-11.9 -195.16,-113.35 -183.28,-226.36"
         style="fill:#77d2eb;fill-opacity:1;fill-rule:nonzero;stroke:none"
         transform="matrix(0.13333333,0,0,-0.13333333,0,831.49333)"
         clip-path="url(#clipPath141)" />
      <path
         id="path142"
         d="m 5856.98,2096.85 -14.92,-1.57 c 11.98,-113.54 107.84,-197.84 219.5,-197.85 7.73,0 15.52,0.41 23.37,1.23 113.5,11.96 197.73,107.75 197.73,219.45 0,7.74 -0.41,15.55 -1.23,23.4 -11.96,113.4 -107.68,197.83 -219.39,197.84 -7.72,0 -15.52,-0.4 -23.35,-1.23 -113.48,-11.97 -197.84,-107.89 -197.85,-219.53 -0.01,-7.7 0.39,-15.48 1.23,-23.32 l 14.91,1.58 14.92,1.58 c -0.72,6.77 -1.06,13.49 -1.07,20.16 0,96.36 72.96,179.42 171,189.7 6.79,0.72 13.53,1.06 20.21,1.06 96.41,0.01 179.27,-72.99 189.55,-170.97 0.72,-6.81 1.07,-13.58 1.07,-20.27 0,-96.45 -72.79,-179.32 -170.87,-189.61 -6.8,-0.72 -13.55,-1.07 -20.23,-1.07 -96.39,0 -179.37,72.88 -189.66,170.99 l -14.92,-1.57"
         style="fill:#3e3d3f;fill-opacity:1;fill-rule:nonzero;stroke:none"
         transform="matrix(0.13333333,0,0,-0.13333333,0,831.49333)"
         clip-path="url(#clipPath143)" />
      <path
         id="path144"
         d="m 866.17865,541.14 -0.356,1.96934 c 24.85199,4.488 42.27866,26.148 42.27866,50.53066 0,3.03334 -0.26933,6.11067 -0.828,9.204 -4.48667,24.84534 -26.148,42.276 -50.532,42.276 -3.03333,0 -6.10933,-0.26933 -9.20266,-0.828 -24.85067,-4.48667 -42.27734,-26.14666 -42.27734,-50.52933 0,-3.03333 0.26934,-6.11067 0.82934,-9.204 4.48666,-24.85067 26.15066,-42.27733 50.532,-42.27733 3.032,0 6.108,0.26933 9.2,0.828 l 0.356,-1.96934 0.356,-1.968 c -3.328,-0.60133 -6.64267,-0.89066 -9.912,-0.89066 -26.29467,0 -49.62267,18.78133 -54.46934,45.56533 -0.60133,3.32933 -0.892,6.64533 -0.892,9.916 0,26.296 18.78267,49.62133 45.56667,54.46533 3.328,0.60133 6.64267,0.892 9.91333,0.892 26.29733,0 49.624,-18.78533 54.468,-45.564 0.60133,-3.33066 0.892,-6.64533 0.892,-9.916 0,-26.296 -18.78267,-49.62133 -45.56666,-54.468 l -0.356,1.968"
         style="fill:#3e3d3f;fill-opacity:1;fill-rule:nonzero;stroke:none;stroke-width:0.133333" />
      <path
         id="path145"
         d="M 1048.2213,663.86667 H 84.933865"
         style="fill:#fffffe;fill-opacity:1;fill-rule:nonzero;stroke:none;stroke-width:0.133333" />
      <path
         id="path146"
         d="M 84.933865,665.86667 H 1048.2218 v -4 H 84.933865 Z"
         style="fill:#3e3d3f;fill-opacity:1;fill-rule:nonzero;stroke:none;stroke-width:0.133333" />
      <path
         id="path147"
         d="m 390.73466,163.52001 h 120.32133 v -4 H 390.73466 Z"
         style="fill:#fe5314;fill-opacity:1;fill-rule:nonzero;stroke:none;stroke-width:0.133333" />
      <path
         id="path148"
         d="m 513.36265,225.79201 h -2.66666 v 4 h 2.66666 z m -5.33333,0 h -2.66667 v 4 h 2.66667 z m -5.33333,0 h -2.66667 v 4 h 2.66667 z m -5.33334,0 h -2.66666 v 4 h 2.66666 z m -5.33333,0 h -2.66667 v 4 h 2.66667 z m -5.33333,0 h -2.66667 v 4 h 2.66667 z m -5.33334,0 h -2.66666 v 4 h 2.66666 z m -5.33333,0 h -2.66667 v 4 h 2.66667 z m -5.33333,0 h -2.66667 v 4 h 2.66667 z m -5.33333,0 h -2.66667 v 4 h 2.66667 z m -5.33334,0 h -2.66666 v 4 h 2.66666 z m -5.33333,0 h -2.66667 v 4 h 2.66667 z m -5.33333,0 h -2.66667 v 4 h 2.66667 z m -5.33334,0 h -2.66666 v 4 h 2.66666 z m -5.33333,0 h -2.66667 v 4 h 2.66667 z m -5.33333,0 h -2.66667 v 4 h 2.66667 z m -5.33334,0 h -2.66666 v 4 h 2.66666 z m -5.33333,0 h -2.66667 v 4 h 2.66667 z m -5.33333,0 h -2.66667 v 4 h 2.66667 z m -5.33334,0 h -2.36093 v 4 h 2.36093 z"
         style="fill:#fe5314;fill-opacity:1;fill-rule:nonzero;stroke:none;stroke-width:0.133333" />
      <path
         id="path149"
         d="m 529.41732,163.52001 h 53.21773 v -4 h -53.21773 z"
         style="fill:#fe5314;fill-opacity:1;fill-rule:nonzero;stroke:none;stroke-width:0.133333" />
      <path
         id="path150"
         d="m 967.78131,469.71467 h 53.21769 v -4 h -53.21769 z"
         style="fill:#fe5314;fill-opacity:1;fill-rule:nonzero;stroke:none;stroke-width:0.133333" />
      <path
         id="path151"
         d="m 107.22026,445.99867 10.84947,10.85334 20.91827,-20.91867 -2.828,-2.828 -18.08974,18.08933 -8.02133,-8.024 -2.82867,2.828"
         style="fill:#fe5314;fill-opacity:1;fill-rule:nonzero;stroke:none;stroke-width:0.133333" />
      <path
         id="path152"
         d="m 296.14799,168.98668 h 24.8828 v -4 h -24.8828 z"
         style="fill:#fe5314;fill-opacity:1;fill-rule:nonzero;stroke:none;stroke-width:0.133333" />
      <path
         id="path153"
         d="m 306.58799,179.42801 h 4 v -24.88386 h -4 z"
         style="fill:#fe5314;fill-opacity:1;fill-rule:nonzero;stroke:none;stroke-width:0.133333" />
      <path
         id="path154"
         d="m 706.44532,298.14401 -17.59467,-17.596 -2.82933,2.828 17.596,17.59733"
         style="fill:#fe5314;fill-opacity:1;fill-rule:nonzero;stroke:none;stroke-width:0.133333" />
      <path
         id="path155"
         d="m 688.85065,300.97334 17.59467,-17.59733 -2.828,-2.828 -17.596,17.596"
         style="fill:#fe5314;fill-opacity:1;fill-rule:nonzero;stroke:none;stroke-width:0.133333" />
      <path
         id="path156"
         d="m 850.86131,238.23734 h 120.31973 v -4 H 850.86131 Z"
         style="fill:#fe5314;fill-opacity:1;fill-rule:nonzero;stroke:none;stroke-width:0.133333" />
      <path
         id="path157"
         d="m 933.61331,257.25201 h 53.2172 v -4 h -53.2172 z"
         style="fill:#fe5314;fill-opacity:1;fill-rule:nonzero;stroke:none;stroke-width:0.133333" />
      <path
         id="path158"
         d="m 100.29893,286.99201 h 53.2172 v -4 h -53.2172 z"
         style="fill:#fe5314;fill-opacity:1;fill-rule:nonzero;stroke:none;stroke-width:0.133333" />
      <path
         id="path159"
         d="m 141.05733,320.74401 h 18.7932 v -4 h -18.7932 z"
         style="fill:#fe5314;fill-opacity:1;fill-rule:nonzero;stroke:none;stroke-width:0.133333" />
      <path
         id="path160"
         d="m 159.19066,215.92268 h 97.29733 v -4 h -97.29733 z"
         style="fill:#fe5314;fill-opacity:1;fill-rule:nonzero;stroke:none;stroke-width:0.133333" />
      <path
         id="path161"
         d="m 853.09331,219.22668 h 53.21613 v -4 h -53.21613 z"
         style="fill:#fe5314;fill-opacity:1;fill-rule:nonzero;stroke:none;stroke-width:0.133333" />
      <path
         id="path162"
         d="m 628.02798,215.91068 h 53.21614 v -4 h -53.21614 z"
         style="fill:#fe5314;fill-opacity:1;fill-rule:nonzero;stroke:none;stroke-width:0.133333" />
      <path
         id="path163"
         d="m 347.06932,250.65868 h 57.9964 v -4 h -57.9964 z"
         style="fill:#fe5314;fill-opacity:1;fill-rule:nonzero;stroke:none;stroke-width:0.133333" />
      <path
         id="path164"
         d="m 1044.668,467.99734 h -2 c 0,1.552 -0.6267,2.94533 -1.6507,3.96933 -1.0267,1.02267 -2.424,1.648 -3.9813,1.64934 -1.5547,-0.001 -2.948,-0.62667 -3.972,-1.648 -1.0214,-1.024 -1.6467,-2.416 -1.6467,-3.97067 0,-1.564 0.6267,-2.95867 1.648,-3.984 1.024,-1.02267 2.416,-1.648 3.9707,-1.64933 1.5573,10e-4 2.9533,0.628 3.98,1.65066 1.024,1.02534 1.6506,2.42134 1.652,3.98267 h 2 2 c 0,-5.324 -4.3187,-9.63067 -9.632,-9.63333 -5.3134,0.003 -9.6174,4.31333 -9.6187,9.63333 0,5.30933 4.3067,9.616 9.6187,9.61867 5.3133,-0.003 9.628,-4.30534 9.632,-9.61867 h -2"
         style="fill:#fe5314;fill-opacity:1;fill-rule:nonzero;stroke:none;stroke-width:0.133333" />
      <path
         id="path165"
         d="m 826.25065,292.80401 h 1.33333 v -4 h -1.33333 z"
         style="fill:#fe5314;fill-opacity:1;fill-rule:nonzero;stroke:none;stroke-width:0.133333" />
      <path
         id="path166"
         d="m 823.63598,288.80401 h -2.61563 v 4 h 2.61563 z m -5.23067,0 h -2.61458 v 4 h 2.61458 z m -5.22933,0 h -2.61459 v 4 h 2.61459 z m -5.23067,0 h -2.61458 v 4 h 2.61458 z m -5.22933,0 h -2.61459 v 4 h 2.61459 z m -5.22933,0 h -2.61459 v 4 h 2.61459 z m -5.22934,0 h -2.61614 v 4 h 2.61614 z m -5.23066,0 h -2.61459 v 4 h 2.61459 z m -5.22934,0 h -2.61458 v 4 h 2.61458 z m -5.22933,0 h -2.61459 v 4 h 2.61459 z m -5.23067,0 h -2.61458 v 4 h 2.61458 z m -5.22933,0 h -2.61459 v 4 h 2.61459 z m -5.22933,0 h -2.61459 v 4 h 2.61459 z m -5.22934,0 h -2.61614 v 4 h 2.61614 z m -5.23066,0 h -2.61459 v 4 h 2.61459 z m -5.22934,0 h -2.61458 v 4 h 2.61458 z m -5.22933,0 h -2.61459 v 4 h 2.61459 z m -5.23067,0 h -2.61458 v 4 h 2.61458 z m -5.22933,0 h -2.61458 v 4 h 2.61458 z m -5.22933,0 h -2.61459 v 4 h 2.61459 z m -5.22933,0 h -2.61563 v 4 h 2.61563 z"
         style="fill:#fe5314;fill-opacity:1;fill-rule:nonzero;stroke:none;stroke-width:0.133333" />
      <path
         id="path167"
         d="m 712.47732,292.80401 h 1.33333 v -4 h -1.33333 z"
         style="fill:#fe5314;fill-opacity:1;fill-rule:nonzero;stroke:none;stroke-width:0.133333" />
      <path
         id="path168"
         d="m 703.08932,348.28534 h 58.30106 v -4 h -58.30106 z"
         style="fill:#fe5314;fill-opacity:1;fill-rule:nonzero;stroke:none;stroke-width:0.133333" />
      <path
         id="path169"
         d="m 557.83199,126.00935 h -2.66667 v 4 h 2.66667 z m -5.33334,0 h -2.66666 v 4 h 2.66666 z m -5.33333,0 h -2.66667 v 4 h 2.66667 z m -5.33333,0 h -2.66667 v 4 h 2.66667 z m -5.33334,0 h -2.66666 v 4 h 2.66666 z m -5.33333,0 h -2.66667 v 4 h 2.66667 z m -5.33333,0 h -2.66667 v 4 h 2.66667 z m -5.33334,0 h -2.66666 v 4 h 2.66666 z m -5.33333,0 h -2.66667 v 4 h 2.66667 z m -5.33333,0 h -2.66667 v 4 h 2.66667 z m -5.33334,0 h -2.66666 v 4 h 2.66666 z m -5.33333,0 h -2.66667 v 4 h 2.66667 z m -5.33333,0 h -2.66667 v 4 h 2.66667 z"
         style="fill:#fe5314;fill-opacity:1;fill-rule:nonzero;stroke:none;stroke-width:0.133333" />
      <path
         id="path170"
         d="m 848.12665,404.83734 v -2 h -9.17867 v -12.86267 h 7.17733 l 10e-4,14.86267 h 2 v -2 2 h 1.99866 v -18.86267 h -15.17733 v 20.86267 h 15.17733 v -2 h -1.99866"
         style="fill:#fe5314;fill-opacity:1;fill-rule:nonzero;stroke:none;stroke-width:0.133333" />
      <path
         id="path171"
         d="m 867.83998,404.83734 v -2 h -9.18 v -33.56533 h 7.18 v 35.56533 h 2 v -2 2 h 2 v -39.56533 h -15.17867 v 41.56533 h 15.17867 v -2 h -2"
         style="fill:#fe5314;fill-opacity:1;fill-rule:nonzero;stroke:none;stroke-width:0.133333" />
      <path
         id="path172"
         d="m 887.55464,404.83734 v -2 h -9.18 v -27.044 h 7.18 v 29.044 h 2 v -2 2 h 2 v -33.044 h -15.18 v 35.044 h 15.18 v -2 h -2"
         style="fill:#fe5314;fill-opacity:1;fill-rule:nonzero;stroke:none;stroke-width:0.133333" />
      <path
         id="path173"
         d="m 907.26798,404.83734 v -2 h -9.17867 v -44.33066 h 7.17867 v 46.33066 h 2 v -2 2 h 1.99866 v -50.33066 h -15.17733 v 52.33066 h 15.17733 v -2 h -1.99866"
         style="fill:#fe5314;fill-opacity:1;fill-rule:nonzero;stroke:none;stroke-width:0.133333" />
      <path
         id="path174"
         d="m 913.87198,402.83734 h -83.46 v -51.688 h -3.99867 v 55.688 h 87.45867 v -4"
         style="fill:#fe5314;fill-opacity:1;fill-rule:nonzero;stroke:none;stroke-width:0.133333" />
      <path
         id="path175"
         d="m 769.09598,193.43335 h -75.9 v -27.41067 h -3.99866 l -10e-4,31.41067 h 79.9 v -4"
         style="fill:#fe5314;fill-opacity:1;fill-rule:nonzero;stroke:none;stroke-width:0.133333" />
      <path
         id="path176"
         d="m 740.33731,186.22135 c -1.38533,-0.096 -2.532,-0.43734 -3.54666,-0.984 -1.76267,-0.95334 -3.2,-2.60134 -4.38,-4.99067 -1.768,-3.568 -2.82,-8.704 -3.40267,-14.55867 -0.592,-5.856 -0.74666,-12.432 -0.89733,-18.97333 v 0.001 c -0.14533,-6.26133 -0.30133,-13.308 -1.03733,-18.97466 -0.37467,-2.84267 -0.876,-5.332 -1.69334,-7.332 -0.41466,-1 -0.908,-1.89467 -1.616,-2.648 -0.692,-0.748 -1.70533,-1.35334 -2.85333,-1.44534 l -0.176,-0.016 -0.17467,0.016 c -1.14933,0.092 -2.16133,0.69734 -2.85466,1.44534 -0.62,0.65866 -1.07334,1.42666 -1.456,2.27733 -0.66534,1.488 -1.11867,3.25867 -1.48,5.268 -1.068,6.00267 -1.24134,14.21333 -1.41067,21.408 v 0 c -0.224,9.96267 -0.48133,20.02933 -2.23333,27.46 -0.86534,3.71333 -2.112,6.732 -3.732,8.74 -0.81067,1.008 -1.70134,1.77467 -2.71467,2.32267 -1.01467,0.54666 -2.16133,0.888 -3.548,0.984 l 0.272,3.99066 c 1.90267,-0.128 3.648,-0.62666 5.17867,-1.456 2.69333,-1.456 4.64933,-3.86133 6.06533,-6.74133 2.12533,-4.336 3.17467,-9.84267 3.79467,-15.92533 0.61333,-6.08 0.764,-12.73734 0.91733,-19.28134 v -0.001 c 0.14133,-6.248 0.308,-13.22133 1.004,-18.54933 0.34267,-2.65467 0.836,-4.90667 1.42667,-6.32667 0.288,-0.70933 0.60133,-1.19467 0.82,-1.41867 0.23333,-0.22933 0.26666,-0.2 0.30133,-0.212 l -0.176,-1.992 -0.17467,1.992 c 0.0333,0.012 0.0667,-0.0173 0.30134,0.212 0.18933,0.19734 0.456,0.59067 0.71066,1.164 0.45334,1.00134 0.86934,2.51734 1.192,4.33467 0.98534,5.47733 1.18667,13.62533 1.34667,20.796 v 0.001 c 0.23867,9.97867 0.45067,20.19067 2.33867,28.28 0.95466,4.04534 2.324,7.596 4.50666,10.32934 1.09067,1.36266 2.39867,2.51066 3.932,3.33866 1.53067,0.82934 3.276,1.328 5.17867,1.456 l 0.272,-3.99066"
         style="fill:#fe5314;fill-opacity:1;fill-rule:nonzero;stroke:none;stroke-width:0.133333" />
      <path
         id="path177"
         d="m 765.13198,186.22001 c -2.95867,-0.007 -5.14533,-0.73866 -6.936,-1.93866 -1.34267,-0.904 -2.46933,-2.1 -3.44,-3.54134 -1.45333,-2.156 -2.52667,-4.86266 -3.34267,-7.73333 -0.82,-2.87067 -1.388,-5.89333 -1.90933,-8.68533 v 0.001 c -0.70133,-3.73467 -1.324,-6.86667 -2.21467,-9.28933 -0.45466,-1.212 -0.96933,-2.268 -1.73866,-3.15867 -0.38534,-0.44133 -0.848,-0.84 -1.39867,-1.136 -0.548,-0.296 -1.184,-0.476 -1.82133,-0.50533 l -0.0987,-0.005 -0.0987,0.005 c -0.63733,0.0293 -1.27333,0.208 -1.82133,0.50533 -0.96933,0.52533 -1.64133,1.328 -2.168,2.20667 -0.78533,1.33066 -1.31333,2.932 -1.80933,4.83333 -0.488,1.89867 -0.92,4.096 -1.37867,6.54267 v 0.001 c -0.91467,4.95867 -2.02533,10.66933 -4.33466,14.90267 -1.15067,2.12133 -2.56667,3.852 -4.35467,5.056 -1.792,1.2 -3.97867,1.932 -6.936,1.93866 v 4 c 3.63867,0.007 6.71733,-0.96 9.172,-2.62133 1.84267,-1.24133 3.32533,-2.84267 4.52267,-4.62533 1.79866,-2.67734 2.98266,-5.76134 3.87066,-8.86934 0.88533,-3.10933 1.46933,-6.25333 1.992,-9.048 v 0.001 c 0.68533,-3.688 1.32,-6.71734 2.036,-8.63334 0.35067,-0.95733 0.728,-1.616 0.99867,-1.91466 0.13466,-0.15334 0.23066,-0.21867 0.28133,-0.24667 l 0.12667,-0.0347 -0.0987,-1.99733 -0.0987,1.99733 0.12534,0.0347 c 0.0853,0.04 0.32933,0.23333 0.624,0.73067 0.44533,0.73466 0.932,2.05866 1.37066,3.78266 0.44534,1.72667 0.86667,3.85734 1.31867,6.28 v 10e-4 c 0.94,4.972 2.03067,11.02666 4.75467,16.07466 1.36533,2.52 3.17466,4.80934 5.63333,6.46667 2.45333,1.66 5.532,2.628 9.172,2.62133 v -4"
         style="fill:#fe5314;fill-opacity:1;fill-rule:nonzero;stroke:none;stroke-width:0.133333" />
      <path
         id="path178"
         d="m 597.77332,330.80934 c -4.436,0 -8.04533,-3.608 -8.04533,-8.044 0,-4.436 3.60933,-8.044 8.04533,-8.044 4.43466,0 8.044,3.608 8.044,8.044 0,4.436 -3.60934,8.044 -8.044,8.044 z m 5.32933,-37.836 v 0 c -1.97067,0 -3.628,1.18134 -4.22266,3.01067 l -0.26,0.80667 c -0.27734,-0.009 -0.552,-0.0147 -0.82667,-0.0147 -0.31733,0 -0.636,0.007 -0.95733,0.02 l -0.26134,-0.79467 c -0.59733,-1.808 -2.268,-3.01466 -4.15866,-3.01466 h -0.632 l -0.60134,0.19466 -5.29466,1.716 c -2.29867,0.768 -3.54534,3.23334 -2.816,5.50667 l 0.264,0.80667 c -0.49467,0.336 -0.97867,0.688 -1.44934,1.05733 l -0.66533,-0.48133 c -0.8,-0.576 -1.668,-0.86534 -2.58933,-0.86534 -1.388,0 -2.67067,0.672 -3.52,1.844 l -3.192,4.42134 c -0.67067,0.91733 -0.95867,2.112 -0.77467,3.25733 0.18533,1.148 0.804,2.15867 1.744,2.844 l 0.66267,0.48 c -0.112,0.304 -0.216,0.60667 -0.31467,0.908 -0.0867,0.26933 -0.168,0.54 -0.24533,0.81333 l -0.79467,0.003 c -1.164,0 -2.308,0.48267 -3.12533,1.32533 -0.788,0.788 -1.25334,1.93734 -1.23734,3.10934 l 0.012,5.39866 c 0.0227,2.42 1.98667,4.36667 4.37867,4.36667 l 0.77867,-0.003 c 0.16933,0.58667 0.36,1.16667 0.57066,1.74134 l -0.61866,0.452 c -0.91867,0.66533 -1.55467,1.69866 -1.73734,2.83333 -0.18533,1.13333 0.092,2.316 0.76267,3.25333 l 3.23733,4.42667 c 0.83867,1.15867 2.12134,1.82933 3.50934,1.82933 0.93866,0 1.81866,-0.29733 2.61733,-0.88533 l 0.57333,-0.41867 c 0.488,0.38 0.99067,0.744 1.50534,1.08934 l -0.22134,0.68666 c -0.35866,1.112 -0.26133,2.30134 0.276,3.344 0.53734,1.04267 1.448,1.81334 2.56667,2.168 l 5.296,1.68534 0.592,0.18933 h 0.62133 c 1.89467,0 3.56667,-1.21067 4.16,-3.012 l 0.22267,-0.692 c 0.29867,0.012 0.59333,0.0173 0.888,0.0173 0.32533,0 0.65067,-0.007 0.98133,-0.0213 l 0.21734,0.66533 c 0.59333,1.80267 2.26533,3.012 4.16266,3.012 h 0.632 l 0.60133,-0.19466 5.292,-1.716 c 1.132,-0.37334 2.03334,-1.15067 2.56,-2.19867 0.52534,-1.04533 0.612,-2.23333 0.24267,-3.34533 l -0.216,-0.65867 c 0.51467,-0.34933 1.016,-0.71733 1.504,-1.10267 l 0.57733,0.41734 c 0.76667,0.54666 1.64667,0.82933 2.564,0.82933 1.384,0 2.70134,-0.66533 3.52267,-1.78 l 3.21333,-4.45067 c 0.68134,-0.94 0.96267,-2.14 0.76934,-3.28666 -0.17734,-1.11467 -0.79867,-2.12667 -1.74134,-2.81467 l -0.62266,-0.44933 c 0.1,-0.27467 0.19333,-0.54667 0.27866,-0.81467 0.0987,-0.30667 0.19334,-0.62 0.28134,-0.93733 l 0.75466,-0.001 c 1.152,0 2.272,-0.46666 3.08667,-1.28533 0.82533,-0.824 1.29067,-1.95733 1.27867,-3.13067 l -0.0133,-5.41733 c -0.007,-2.40933 -1.97066,-4.368 -4.37733,-4.368 l -0.816,0.003 c -0.17067,-0.576 -0.36133,-1.14667 -0.572,-1.712 l 0.65867,-0.48 c 1.932,-1.39867 2.37466,-4.13734 0.968,-6.09467 l -3.23067,-4.42 c -0.85733,-1.16533 -2.13333,-1.828 -3.50933,-1.82933 -0.92134,0 -1.78934,0.28933 -2.58267,0.85866 l -0.69867,0.51067 c -0.47066,-0.36533 -0.95466,-0.71333 -1.452,-1.044 l 0.256,-0.796 c 0.36667,-1.09733 0.25867,-2.35467 -0.30933,-3.408 -0.516,-0.98267 -1.41067,-1.73867 -2.50267,-2.09467 l -5.19733,-1.67333 -0.48267,-0.156 -0.50533,-0.0293 -0.11867,-0.008 z m -5.32933,41.836 c 6.64133,0 12.044,-5.40133 12.044,-12.044 0,-6.64 -5.40267,-12.044 -12.044,-12.044 -6.64133,0 -12.04533,5.404 -12.04533,12.044 0,6.64267 5.404,12.044 12.04533,12.044 m 5.32933,-37.836 0.0587,10e-4 5.18266,1.66933 c 0.12934,0.0427 0.19334,0.136 0.22134,0.188 0.0267,0.0507 0.0653,0.15867 0.0227,0.288 l -1.24,3.85333 0.72267,0.38667 c 1.72267,0.92 3.30533,2.05867 4.70133,3.38 l 0.59334,0.56533 3.256,-2.38266 0.25066,-0.108 c 0.088,0 0.17867,0.0507 0.28134,0.18933 l 3.212,4.39467 c 0.12133,0.16933 0.088,0.408 -0.0813,0.53066 l -3.25733,2.38134 0.36133,0.74 c 0.85734,1.75866 1.476,3.61333 1.83467,5.50533 l 0.15467,0.804 3.99733,-0.012 c 0.20667,0 0.37733,0.17067 0.37733,0.37733 l 0.0147,5.44534 c 10e-4,0.136 -0.068,0.22533 -0.11067,0.26666 -0.04,0.0427 -0.128,0.112 -0.26666,0.112 l -3.97867,0.0107 -0.144,0.81067 c -0.176,1 -0.41467,1.97466 -0.71067,2.896 -0.26933,0.83733 -0.62,1.70666 -1.06933,2.66 l -0.348,0.73733 3.21333,2.32133 0.152,0.24534 -0.0667,0.28133 -3.188,4.416 c -0.10267,0.14 -0.248,0.156 -0.30534,0.156 l -0.22133,-0.072 -3.188,-2.30133 -0.59067,0.57066 c -1.408,1.36 -2.996,2.52534 -4.724,3.46534 l -0.72,0.39066 1.21867,3.724 c 0.0653,0.19734 -0.0427,0.412 -0.24,0.476 l -5.292,1.716 c -0.13733,0 -0.30267,-0.08 -0.36133,-0.25866 l -1.22134,-3.72667 -0.812,0.11067 c -1.06666,0.14533 -2.01466,0.21866 -2.96666,0.21866 -0.92133,0 -1.84667,-0.0693 -2.892,-0.208 l -0.81467,-0.10933 -1.20266,3.74 c -0.06,0.18133 -0.22534,0.264 -0.36134,0.264 l -5.29733,-1.68667 c -0.20133,-0.064 -0.31067,-0.27733 -0.24667,-0.476 l 1.204,-3.73866 -0.72266,-0.388 c -1.73867,-0.93334 -3.33334,-2.088 -4.73867,-3.43334 l -0.59467,-0.56933 -3.18266,2.32533 -0.248,0.108 c -0.088,0 -0.18,-0.0507 -0.28134,-0.18933 l -3.21333,-4.396 -0.0667,-0.28267 0.15067,-0.24666 3.204,-2.34134 -0.35467,-0.73866 c -0.852,-1.768 -1.46133,-3.63334 -1.81333,-5.54134 l -0.148,-0.808 -3.98,0.0107 c -0.20667,0 -0.376,-0.16933 -0.37867,-0.376 l -0.012,-5.44667 c -10e-4,-0.136 0.068,-0.22533 0.10934,-0.26666 0.04,-0.0427 0.12933,-0.11067 0.26666,-0.11067 l 3.99734,-0.0133 0.148,-0.80267 c 0.17866,-0.98133 0.404,-1.88533 0.688,-2.768 0.284,-0.88 0.64666,-1.78133 1.112,-2.75333 l 0.35333,-0.74134 -3.26267,-2.356 c -0.168,-0.12266 -0.208,-0.36 -0.084,-0.52933 l 3.188,-4.41467 c 0.10134,-0.14133 0.19334,-0.192 0.28,-0.192 l 0.24667,0.10667 3.264,2.36 0.592,-0.568 c 1.39867,-1.33867 2.97467,-2.488 4.68267,-3.41333 l 0.72133,-0.38934 -1.256,-3.83733 c -0.064,-0.19867 0.0427,-0.412 0.23867,-0.47733 l 5.296,-1.716 c 0.136,0 0.29866,0.08 0.35866,0.26 l 1.26267,3.85466 0.81067,-0.10933 c 1.06266,-0.144 2.00266,-0.216 2.94533,-0.216 0.90533,0 1.81467,0.0667 2.83333,0.20267 l 0.81333,0.10933 1.244,-3.868 c 0.0547,-0.16667 0.19867,-0.24667 0.41867,-0.24667"
         style="fill:#fe5314;fill-opacity:1;fill-rule:nonzero;stroke:none;stroke-width:0.133333" />
      <path
         id="path179"
         d="m 577.99332,278.92001 1.17333,-1.61867 -0.61333,0.84667 0.948,-0.44533 c -0.064,-0.13867 -0.18,-0.29067 -0.33467,-0.40134 l -0.61333,0.84667 0.948,-0.44533 -0.81867,0.384 h 0.90667 c 0,-0.11467 -0.0227,-0.24267 -0.088,-0.384 l -0.81867,0.384 h 0.90667 -0.86267 l 0.84134,0.18933 0.0213,-0.18933 h -0.86267 l 0.84134,0.18933 0.005,-0.02 c 0.24133,-1.132 0.38,-2.31333 0.38,-3.53467 0,-1.22133 -0.13867,-2.40266 -0.38,-3.53466 l -10e-4,-0.005 -0.804,0.17334 0.82133,10e-4 -0.0173,-0.17467 -0.804,0.17334 0.82133,10e-4 h -0.904 l 0.816,0.38267 c 0.0667,-0.14134 0.088,-0.26934 0.088,-0.38267 h -0.904 l 0.816,0.38267 -0.94933,-0.44534 0.61466,0.848 c 0.15334,-0.11066 0.27067,-0.26266 0.33467,-0.40266 l -0.94933,-0.44534 0.61466,0.848 4.66667,-3.38933 0.005,-0.004 c 0.712,-0.52133 1.09467,-1.34133 1.092,-2.15467 10e-4,-0.54 -0.168,-1.09466 -0.50266,-1.55866 l -0.0293,-0.0413 -5.756,-7.92266 0.29334,0.404 c -0.52,-0.716 -1.34,-1.1 -2.15734,-1.09867 -0.54,-10e-4 -1.10266,0.16933 -1.57333,0.51467 l -4.496,3.26533 0.63733,0.87733 v -1.08933 c -0.17333,-0.003 -0.428,0.0587 -0.63733,0.21333 l 0.63733,0.876 v -1.08933 0.816 l 0.43334,-0.69867 c -0.11067,-0.0653 -0.23334,-0.11333 -0.43334,-0.11733 v 0.816 l 0.43334,-0.69867 -0.003,-10e-4 c -2.088,-1.292 -4.476,-2.14533 -7.02533,-2.44533 l -0.0973,0.832 0.5,-0.668 c -0.13866,-0.10267 -0.268,-0.14667 -0.40133,-0.164 l -0.0987,0.832 0.5,-0.668 -0.61333,0.81866 0.96933,-0.31333 c -0.072,-0.22533 -0.21866,-0.40533 -0.356,-0.50533 l -0.61333,0.81866 0.96933,-0.31333 -10e-4,-0.003 -1.65333,-5.08533 10e-4,0.001 c -0.37067,-1.128 -1.412,-1.84533 -2.53733,-1.844 -0.27334,0 -0.55334,0.0427 -0.828,0.132 l -8.872,2.884 0.003,-0.001 c -1.128,0.368 -1.848,1.40933 -1.84533,2.53733 -10e-4,0.26534 0.04,0.556 0.13733,0.84667 l 1.89467,-0.64133 -1.90133,0.61866 1.59866,4.92134 -0.0413,-0.12934 0.848,-0.27333 h -0.88933 l 0.0413,0.27333 0.848,-0.27333 h -0.88933 1.11333 l -1.024,-0.43067 c -0.0707,0.16934 -0.0893,0.31467 -0.0893,0.43067 h 1.11333 l -1.024,-0.43067 1.18267,0.49734 -0.80667,-0.996 c -0.17467,0.13866 -0.30667,0.32933 -0.376,0.49866 l 1.18267,0.49734 -0.80667,-0.996 10e-4,-10e-4 c -2.15333,1.73867 -3.87466,3.984 -4.99066,6.56 l 0.64666,0.28 -0.432,-0.54666 c -0.132,0.108 -0.17866,0.18933 -0.21466,0.26666 l 0.64666,0.28 -0.432,-0.54666 0.66534,0.84133 v -1.064 c -0.284,-0.003 -0.54134,0.11733 -0.66534,0.22267 l 0.66534,0.84133 v -1.064 h -4.88934 c -1.472,0.003 -2.664,1.19467 -2.66666,2.66667 v 9.33333 c 0.003,1.472 1.19466,2.664 2.66666,2.66667 h 4.88934 v -0.93867 l -0.45334,0.816 c 0.18267,0.0987 0.32134,0.12133 0.45334,0.12267 v -0.93867 l -0.45334,0.816 0.58934,-1.06133 -1.11467,0.464 c 0.11867,0.28933 0.34667,0.50266 0.52533,0.59733 l 0.58934,-1.06133 -1.11467,0.464 v -0.001 c 1.08,2.59734 2.772,4.86534 4.89733,6.63467 l 0.47067,-0.56533 -0.64933,0.34133 0.17866,0.224 0.47067,-0.56533 -0.64933,0.34133 0.896,-0.47067 h -1.00667 c 0,0.20667 0.056,0.36667 0.11067,0.47067 l 0.896,-0.47067 h -1.00667 1.12533 l -1.07333,-0.34 -0.052,0.34 h 1.12533 l -1.07333,-0.34 0.005,-0.0147 -1.55866,4.79466 -0.001,0.003 c -0.084,0.25867 -0.13066,0.53733 -0.12933,0.82133 0,0.56534 0.17733,1.104 0.49733,1.552 0.31734,0.44667 0.79067,0.80667 1.34934,0.98534 l -0.004,-0.001 8.876,2.88534 c 0.27066,0.088 0.55066,0.13066 0.824,0.13066 1.12666,10e-4 2.16666,-0.71733 2.536,-1.84133 l 1.65333,-5.08667 0.003,-0.005 -0.992,-0.31867 0.59066,0.86934 c 0.12934,-0.0827 0.31734,-0.284 0.40134,-0.55067 l -0.992,-0.31867 0.59066,0.86934 -0.35466,-0.52134 0.0787,0.63334 c 0.0653,-0.0107 0.14267,-0.0253 0.276,-0.112 l -0.35466,-0.52134 0.0787,0.63334 c 2.544,-0.312 4.92667,-1.17467 7.00934,-2.47734 l -0.51867,-0.828 v 0.97467 c 0.19067,0 0.36533,-0.052 0.51867,-0.14667 l -0.51867,-0.828 v 0.97467 -1.04667 l -0.61333,0.84667 c 0.18666,0.136 0.41466,0.20133 0.61333,0.2 v -1.04667 l -0.61333,0.84667 -0.003,-0.001 4.50267,3.27066 -0.004,-0.004 c 0.46933,0.344 1.02933,0.51467 1.57066,0.51334 0.81867,0.003 1.636,-0.384 2.15467,-1.096 l 0.004,-0.003 5.48667,-7.552 0.001,-0.003 c 0.34,-0.468 0.508,-1.02666 0.50667,-1.564 10e-4,-0.82 -0.38267,-1.63333 -1.09067,-2.152 l -0.008,-0.007 -4.66533,-3.388 -10e-4,-10e-4 -1.17333,1.61867 -1.17467,1.61867 4.66534,3.38933 -0.008,-0.007 0.78666,-1.072 h -1.33066 c -10e-4,0.408 0.192,0.81334 0.544,1.072 l 0.78666,-1.072 h -1.33066 1.33466 l -1.08,-0.78266 c -0.16933,0.232 -0.256,0.51733 -0.25466,0.78266 h 1.33466 l -1.08,-0.78266 -5.48533,7.54933 0.003,-0.004 1.07466,0.78533 v -1.33066 c -0.40666,-0.003 -0.81733,0.19333 -1.07466,0.54533 l 1.07466,0.78533 v -1.33066 1.33733 l 0.78934,-1.08 c -0.23334,-0.172 -0.52,-0.25867 -0.78934,-0.25733 v 1.33733 l 0.78934,-1.08 -0.005,-0.003 -4.556,-3.31066 0.0507,0.0373 c -0.52,-0.37867 -1.14,-0.56133 -1.732,-0.56 -0.56533,10e-4 -1.11733,0.15867 -1.60133,0.46133 -1.596,0.99734 -3.416,1.65734 -5.37734,1.89867 -0.49866,0.064 -1.00133,0.22533 -1.484,0.55067 -0.47866,0.31866 -0.94133,0.848 -1.15866,1.53066 l -1.652,5.08 1.268,0.412 v -1.332 c -0.564,-0.003 -1.08134,0.35867 -1.268,0.92 l 1.268,0.412 v -1.332 1.33334 l 0.41066,-1.268 c -0.132,-0.044 -0.27466,-0.0653 -0.41066,-0.0653 v 1.33334 l 0.41066,-1.268 -8.87466,-2.88534 -0.004,-0.001 -0.40934,1.272 1.08534,-0.77733 c -0.15734,-0.22267 -0.4,-0.40667 -0.676,-0.49467 l -0.40934,1.272 1.08534,-0.77733 -1.084,0.77466 h 1.332 c 0,-0.284 -0.088,-0.55066 -0.248,-0.77466 l -1.084,0.77466 h 1.332 -1.332 l 1.268,0.41067 c 0.04,-0.12267 0.0653,-0.26133 0.064,-0.41067 h -1.332 l 1.268,0.41067 v 0.003 l 1.56666,-4.82134 -0.003,0.009 c 0.088,-0.28 0.13333,-0.576 0.13333,-0.86534 0,-0.52666 -0.14267,-1 -0.34933,-1.39333 -0.20934,-0.39467 -0.48267,-0.71867 -0.80267,-0.98667 -1.636,-1.36133 -2.936,-3.10533 -3.76267,-5.09466 l -0.15333,-0.36934 0.15333,0.368 c -0.25866,-0.628 -0.73866,-1.096 -1.224,-1.36133 -0.49066,-0.27067 -0.99333,-0.38 -1.49066,-0.38133 h -4.88934 v 1.33333 h 1.33334 c -10e-4,-0.73467 -0.59867,-1.332 -1.33334,-1.33333 v 1.33333 h 1.33334 v -9.33333 h -1.33334 v 1.33333 c 0.73467,-10e-4 1.332,-0.59867 1.33334,-1.33333 h -1.33334 v 1.33333 h 4.88934 c 0.716,0.003 1.364,-0.27733 1.816,-0.64 0.46,-0.36667 0.76666,-0.80667 0.97466,-1.28 0.856,-1.976 2.17867,-3.70133 3.83467,-5.04 l 10e-4,-0.001 c 0.36534,-0.29334 0.63467,-0.67734 0.79467,-1.05867 0.16,-0.38533 0.22133,-0.76533 0.22133,-1.12 0,-0.33867 -0.0547,-0.656 -0.15066,-0.95733 l -0.0413,-0.12667 -1.51866,-4.672 -0.008,-0.0227 -1.28667,0.436 h 1.35867 c 0.001,-0.12933 -0.02,-0.28266 -0.072,-0.436 l -1.28667,0.436 h 1.35867 -1.33334 l 0.41067,1.268 c 0.564,-0.18533 0.92533,-0.70266 0.92267,-1.268 h -1.33334 l 0.41067,1.268 h 0.003 l 8.876,-2.88533 0.005,-10e-4 -0.41733,-1.27334 v 1.34 c 0.136,0 0.27733,-0.0213 0.41733,-0.0667 l -0.41733,-1.27334 v 1.34 -1.33333 l -1.268,0.412 c 0.18666,0.564 0.704,0.92267 1.268,0.92133 v -1.33333 l -1.268,0.412 v 0.001 l 1.65466,5.08534 -10e-4,-0.004 c 0.19867,0.62133 0.596,1.12666 1.05333,1.46666 0.45867,0.34134 0.98,0.54 1.524,0.60534 1.96534,0.232 3.79067,0.88533 5.38934,1.87466 l -10e-4,-0.001 c 0.48667,0.3 1.04534,0.48133 1.676,0.484 0.55467,0.004 1.184,-0.16267 1.71467,-0.552 l 4.50267,-3.27067 0.007,-0.005 -0.792,-1.08 v 1.34 c 0.268,10e-4 0.556,-0.0853 0.792,-0.26 l -0.792,-1.08 v 1.34 -1.332 l -1.07733,0.784 c 0.26,0.356 0.672,0.55067 1.07733,0.548 v -1.332 l -1.07733,0.784 v -0.001 l 5.51467,7.592 -0.0347,-0.048 1.08,-0.77734 h -1.33067 c -10e-4,0.26934 0.0853,0.54934 0.25067,0.77734 l 1.08,-0.77734 h -1.33067 1.332 l -0.78666,-1.07466 c -0.35467,0.26133 -0.548,0.67333 -0.54534,1.07466 h 1.332 l -0.78666,-1.07466 -4.65734,3.38533 0.001,-0.003 c -0.42267,0.30534 -0.74134,0.712 -0.94,1.13867 -0.2,0.42933 -0.28934,0.876 -0.28934,1.316 0,0.22933 0.024,0.45333 0.072,0.672 l -10e-4,-0.005 c 0.188,0.88133 0.292,1.78 0.292,2.69866 0,0.92 -0.104,1.81734 -0.292,2.69867 l 1.956,0.41733 -1.952,-0.43866 c -0.0533,0.23866 -0.0747,0.46933 -0.0747,0.688 0,0.44133 0.0893,0.88933 0.29067,1.316 0.19867,0.42666 0.51733,0.83333 0.93867,1.13733 l -10e-4,-0.001 1.17467,-1.61867"
         style="fill:#fe5314;fill-opacity:1;fill-rule:nonzero;stroke:none;stroke-width:0.133333" />
      <path
         id="path180"
         d="m 568.24532,274.72134 h -2 c -0.004,2.024 -1.64267,3.66267 -3.66667,3.66667 -2.024,-0.004 -3.664,-1.64267 -3.668,-3.66667 0.004,-2.024 1.644,-3.66266 3.668,-3.66666 2.024,0.004 3.66267,1.64266 3.66667,3.66666 h 2 1.99867 c 0,-4.23466 -3.43067,-7.66533 -7.66534,-7.66666 -4.23466,10e-4 -7.66533,3.432 -7.66666,7.66666 0.001,4.23467 3.432,7.66534 7.66666,7.66667 4.23467,-0.001 7.66534,-3.432 7.66534,-7.66667 h -1.99867"
         style="fill:#fe5314;fill-opacity:1;fill-rule:nonzero;stroke:none;stroke-width:0.133333" />
    </g>
  </g>
</svg>
