<?xml version="1.0" encoding="UTF-8" standalone="no"?>
<!-- Created with Inkscape (http://www.inkscape.org/) -->

<svg
   version="1.1"
   id="svg1"
   width="3887.3457"
   height="2036.96"
   viewBox="0 0 3887.3457 2036.96"
   xmlns="http://www.w3.org/2000/svg"
   xmlns:svg="http://www.w3.org/2000/svg">
  <defs
     id="defs1">
    <clipPath
       clipPathUnits="userSpaceOnUse"
       id="clipPath23">
      <path
         d="m 12531.7,2310.3 h -692.3 c -302,0.4 -558.1,1.3 -705.4,3.2 -252.4,3.2 -296.6,224.4 -298.7,367.6 l 2863.3,538.7 c -29.8,-328.1 -47.2,-537.6 -47.4,-577.4 0,-0.7 0,-1.5 0,-2.2 0,-22.4 2,-43.3 5.7,-62.7 47.9,-255.6 387.7,-264 431.6,-264 -66,-0.2 -813.7,-2.5 -1556.8,-3.2"
         transform="translate(0,2.5000001e-4)"
         id="path23" />
    </clipPath>
  </defs>
  <g
     id="g1"
     transform="translate(-230.18747,-348.74677)">
    <path
       id="path3"
       d="m 490.02265,2380.8534 c 0,0 -449.964784,-483.12 -76.09599,-1006.16 331.72132,-464.09332 718.47594,-432.35999 1002.23334,-244.04 120.8533,80.2133 469.2933,9.8933 765.8533,-462.33332 404.44,-643.973314 1806.3466,-253.39999 1550.7333,737.37332 -123.6934,479.4667 376.4666,496.8933 121.6133,976.1733 l -3364.33725,-1.0133"
       style="opacity:0.1;fill:#fe5314;fill-opacity:1;fill-rule:nonzero;stroke:none;stroke-width:0.133333" />
    <path
       id="path4"
       d="M 853.58931,1726.4001 1146.6666,2044.84 828.22798,2337.92 535.14932,2019.48 853.58931,1726.4001"
       style="fill:#dfebfd;fill-opacity:1;fill-rule:nonzero;stroke:none;stroke-width:0.133333" />
    <path
       id="path5"
       d="m 853.58931,1726.4001 59.02533,64.1333 -318.43865,293.08 -59.02667,-64.1334 318.43999,-293.0799"
       style="fill:#bed7fb;fill-opacity:1;fill-rule:nonzero;stroke:none;stroke-width:0.133333" />
    <path
       id="path6"
       d="m 1783.5866,471.94675 218.36,31.14667 -144.9066,-98.76 -7.36,31.66667 -53.1067,9.61333 -12.9867,26.33333"
       style="fill:#9ec3f6;fill-opacity:1;fill-rule:nonzero;stroke:none;stroke-width:0.133333" />
    <path
       id="path7"
       d="m 2001.9466,503.09342 -181.7066,-93.68 -178.0934,-8.96 z"
       style="fill:#cde0fb;fill-opacity:1;fill-rule:nonzero;stroke:none;stroke-width:0.133333" />
    <path
       id="path8"
       d="m 1857.04,404.33342 144.9066,98.76 -112.1733,-154.34666 z"
       style="fill:#cde0fb;fill-opacity:1;fill-rule:nonzero;stroke:none;stroke-width:0.133333" />
    <path
       id="path9"
       d="m 3004.6133,902.72008 -54.92,39.41333 -55.2,-38.98667 c 12.2266,-17.21333 32.44,-28.6 55.2,-28.6 22.6266,0 42.6933,11.09334 54.92,28.17334"
       style="fill:#ffffff;fill-opacity:1;fill-rule:nonzero;stroke:none;stroke-width:0.133333" />
    <path
       id="path10"
       d="m 2949.6933,778.50675 c -55.2,0 -104.0134,27.45333 -133.6134,69.44 l 34.8667,24.46666 c 21.9067,-31.02666 58.0533,-51.22666 98.7467,-51.22666 40.4133,0 76.2666,19.92 98.1866,50.51999 l 34.72,-24.90666 c -29.7466,-41.4 -78.2666,-68.29333 -132.9066,-68.29333"
       style="fill:#ffffff;fill-opacity:1;fill-rule:nonzero;stroke:none;stroke-width:0.133333" />
    <path
       id="path11"
       d="m 2949.6933,595.94675 c -116.8134,0 -220.12,58.05333 -282.72,146.84 l 34.8533,24.48 c 54.92,-77.69333 145.56,-128.64 247.8667,-128.64 101.4533,0 191.52,50.09333 246.5866,126.78666 l 34.5734,-24.90666 c -62.7467,-87.50667 -165.3334,-144.56 -281.16,-144.56"
       style="fill:#ffffff;fill-opacity:1;fill-rule:nonzero;stroke:none;stroke-width:0.133333" />
    <path
       id="path12"
       d="m 2949.6933,695.82675 c -83.0934,0 -156.8,41.12 -201.6134,104.16 l 34.8534,24.48 c 37.1333,-51.94667 98.04,-85.94667 166.76,-85.94667 68.16,0 128.6266,33.44 165.9066,84.66667 l 34.5734,-24.76 c -44.96,-62.18667 -118.0934,-102.6 -200.48,-102.6"
       style="fill:#ffffff;fill-opacity:1;fill-rule:nonzero;stroke:none;stroke-width:0.133333" />
    <path
       id="path13"
       d="m 1523.3466,1443.9867 c -33.8533,33.96 -71.1466,63.4667 -111.4266,88.32 -97.6014,-71.3333 -201.8907,-132.4 -310.5427,-181.8266 14.9373,-27.3734 29.6587,-56.28 44.032,-86.4667 99.452,13.1867 195.0573,21.0933 282.3507,23.1333 22.7866,0.6667 44.9066,0.6667 66.36,0.4934 55.64,-0.6534 105.1733,-3.96 147.6,-9.8934 -29.72,61.5734 -69.5067,117.3734 -118.3734,166.24 z m -618.79729,150.8 c 45.31733,-23.76 90.84933,-78.3066 125.91469,-128.5733 18.0853,-25.92 36.1586,-54.6133 54.0013,-85.5867 102.876,46.5867 201.7947,103.8267 294.7213,170.5067 -153.1706,81.8533 -325.6586,91.12 -474.63729,43.6533 z M 521.64399,1239.3201 c 47.14,1.8933 134.53466,9.04 246.16799,34.4533 7.988,1.8133 15.96933,3.72 23.948,5.6667 -5.74533,33.5066 -9.98533,65.5333 -12.60267,95.6266 -4.96,57.0267 -5.312,122.7867 10.59467,169.7334 -48.412,-27.2534 -92.808,-60.9734 -132.64933,-100.8134 -59.39066,-59.3866 -105.092,-128.9333 -135.45866,-204.6666 z m 285.60399,-37.84 c -3.33867,14.8933 -6.41733,29.5733 -9.24267,44.0133 -7.512,-1.8133 -15.02666,-3.6 -22.548,-5.32 -127.06799,-28.92 -222.41866,-34.8 -266.61866,-35.8 -10.948,-32.9733 -18.99866,-66.7067 -24.09466,-101.1333 86.56933,33.2933 184.01199,65.24 322.50399,98.24 z M 415.23999,1040.5067 c -117.052,-57.13329 -170.54266,-112.26662 -146.604,-151.39996 19.316,-31.69333 89.64533,-53.15999 197.28667,-61.07999 -21.7,73.23999 -29.24667,149.38666 -24.76267,224.69335 -8.916,-3.96 -17.5,-8.0934 -25.92,-12.2134 z m 127.61733,-305.09329 0.0147,-0.04 c 75.66666,94.57334 187.19199,191.26667 317.50132,275.11999 -18.47733,56.2267 -34.24133,111.4933 -46.964,164.4667 -108.04133,-26.1467 -233.61732,-63.12 -332.79199,-105.0667 -8.22533,-82.23999 0.73067,-165.49332 25.424,-244.01332 9.58533,-30.45333 22.30133,-61.84 36.816,-90.46667 z M 491.85465,474.78675 c 19.91467,-31.61333 64.41867,-47.93333 126.908,-47.93333 29.88667,0 63.91067,3.73334 101.30133,11.32 14.19733,2.88 28.69733,6.25334 43.44533,10.14667 l 0.0387,0.0133 c -89.216,51.6 -167.79733,126.26667 -226.30399,219.88 l -0.0307,0.0533 c -55.21733,-81.98666 -71.81733,-151.50666 -45.35867,-193.48 z m 598.45195,-76.66666 c 42.4347,0 84.1707,4.26667 124.9694,12.74667 -48.1214,20.94666 -97.2534,79.23999 -134.5467,132.70666 -38.1693,54.70667 -76.2853,121.68 -112.27732,196.62666 -97.15334,-52.78666 -188.92267,-133.72 -232.788,-229.05333 102.42,-72.83999 225.588,-113.02666 354.64262,-113.02666 z m 433.04,179.45333 c 79.44,79.45333 132.1467,174.86666 158.8,274.63999 -141.2,10.33334 -270.5866,7.09334 -386.24,-9.65333 18.3534,-74.98667 30.7094,-145.53333 36.128,-207.84 5.9787,-68.81333 5.2587,-150.30666 -22.6426,-196.17332 80.8213,31.05333 153.008,77.90666 213.9546,139.02666 z m -270.1333,293.03999 c -15.8813,59.74667 -35.444,121.98667 -58.236,184.82669 -8.784,24.2266 -17.8813,48.0666 -27.2387,71.44 -85.616,-31.4267 -176.48796,-76.3867 -265.82662,-131.92002 4.616,-13.50667 9.38,-27.04 14.30266,-40.61334 21.17467,-58.38666 44.15734,-114.58666 68.256,-167.19999 84.32266,40.86666 175.66666,67.24 268.74266,83.46666 z m 7.608,-431.57332 c 18.7867,6.81333 28.3213,33.77333 33.0133,55.2 7.416,33.85333 8.756,81.38666 3.8787,137.49333 -5.3413,61.4 -17.6373,131.14666 -35.9373,205.41333 -89.98,-15.48 -179.8987,-41 -262.68669,-81.18667 35.28399,-73.58666 72.59329,-139.2 109.89599,-192.67999 32.2173,-46.18667 63.7253,-81.81334 91.1147,-103.04 14.292,-11.08 33.5253,-22.93333 50.3666,-22.93333 3.5827,0 7.06,0.54666 10.3547,1.73333 z m -553.23732,93.33333 c 49.228,100.85333 144.10133,183.96 246.196,239.07999 -24.73334,53.89334 -48.29067,111.41333 -69.95334,171.14667 -4.03866,11.13333 -7.96533,22.25333 -11.804,33.34666 C 742.63865,891.72008 633.09598,795.08008 561.23732,701.56008 l -0.0293,-0.04 c 37.924,-64.69333 87.33866,-121.81333 146.37599,-169.14666 z m 216.30933,667.27998 c -26.056,-5.36 -51.73333,-10.96 -76.96933,-16.7867 11.88,-49.4266 26.47466,-100.96 43.512,-153.48 88.56533,54.44 178.63332,98.7334 263.91332,130.16 -10.6987,25.5467 -21.6867,50.4534 -32.9107,74.56 -64.776,-9.2933 -131.05062,-20.8266 -197.54529,-34.4533 z m 145.86799,136.84 c -77.71732,-33.4933 -157.62132,-61.16 -238.32399,-82.5333 2.84534,-14.64 5.964,-29.5467 9.352,-44.6667 22.44134,5.0933 45.2,10.04 68.244,14.7867 67.43733,13.8 134.71069,25.5066 200.56269,34.9866 -13.0414,26.9867 -26.3547,52.8534 -39.8347,77.4267 z m -219.39065,234.2533 c -18.78534,-6.8133 -28.32134,-33.7733 -33.01334,-55.2 -7.41466,-33.8533 -8.756,-81.3866 -3.87733,-137.4933 2.46667,-28.3733 6.43333,-58.5333 11.772,-90.08 76.99866,20.52 153.25066,46.9067 227.50132,78.7067 -16.7253,28.84 -33.636,55.5866 -50.5453,79.8266 -32.21869,46.1867 -63.72536,81.8134 -91.11602,103.04 -17.332,13.4267 -41.93334,28.0134 -60.72133,21.2 z m 804.72265,-322.3866 c -44.08,7.92 -99.0533,12.5466 -163.28,13.2 -99.6533,1.2133 -214.1013,-6.6534 -334.712,-22.5467 10.1493,-22.0933 20.0973,-44.8 29.8013,-68.0133 37.428,12.52 73.7494,22.44 108.3907,29.4666 39.68,8.0534 75.9067,12.0267 108.2267,12.0267 75.7733,0 130.0533,-21.8667 156.8666,-64.4267 4.4134,-7.0133 8.0134,-14.44 10.7867,-22.2933 h -38.6267 c -0.64,1.1733 -1.32,2.3333 -2.0266,3.4667 -19.92,31.6133 -64.4267,47.9466 -126.9067,47.9333 -29.8933,0 -63.92,-3.7333 -101.308,-11.3333 -32.5933,-6.6 -66.772,-15.8934 -102.0133,-27.5867 9.3,-23.2667 18.3426,-46.9867 27.0733,-71.0667 23.5453,-64.9066 43.7013,-129.26662 60.0067,-191.06662 132.1346,19.48 270.188,20.06666 402.8013,10.06666 8.3867,40.68 12.6267,82.30667 12.6267,124.59996 0,82.3734 -16.0134,162.28 -47.7067,237.5734 z m 155.3467,-106.4934 -50.3467,-1.16 c 16.1733,20.9734 19.8133,40.2934 9.7333,56.64 -10.0666,16.6667 -34.1733,30.3734 -70.16,40.7734 27.24,-72.48 40.9467,-148.92 40.9467,-227.3334 0,-169.59995 -65.9867,-335.59995 -190.52,-459.78661 -120.5467,-120.54667 -283.4867,-190.52 -459.7867,-190.52 -98.99729,0 -194.65462,21.94667 -281.64929,63.89333 l -0.0853,0.04 c -27.968,-8.53333 -55.21067,-15.53333 -81.496,-20.85333 -132.68533,-26.93333 -226.84666,-8.32 -265.09466,52.4 -36.39733,57.74666 -16.58266,144.66666 55.64267,246.05333 l -0.0267,0.04 c -16.13733,29.82666 -31.67067,65.18666 -43.08933,99.06666 -135.70667,8.08 -208.348,31.97333 -234.76266,75.22666 -30.708,50.34667 11.22666,117.93334 145.44799,183.63996 18.48934,9.08 38.30134,17.9867 59.10267,26.9067 16.07867,141.2667 80.436,278.2133 186.05999,383.84 59.764,59.6 129.268,106.4933 206.69733,139.3467 237.19729,100.0533 519.95999,53.2 713.03999,-139.3467 58.1067,-58.1067 104.1733,-125.8 136.6933,-200.7467 66.2,-13.7066 109.7867,-35.1733 127.12,-63.5733 12.0534,-19.64 10.5734,-41.4267 -3.4666,-64.5467"
       style="fill:#fecdbb;fill-opacity:1;fill-rule:nonzero;stroke:none;stroke-width:0.133333" />
    <path
       id="path14"
       d="M 1509.4533,1243.3601 1419.52,2312.6667 c 0,0 -9.4267,64.8133 38.7866,64.9333 79.28,0.1867 394.5734,0 394.5734,0 0,0 -59.6534,-13.4933 -58.9334,-43.8533 0.8534,-35.7867 105.1067,-1100.5066 105.1067,-1100.5066 l -389.6,10.12"
       style="fill:#d86713;fill-opacity:1;fill-rule:nonzero;stroke:none;stroke-width:0.133333" />
    <path
       id="path15"
       d="m 1878.4666,2358.2 c -15.5866,0.04 -316.7333,0.9867 -393.9333,0 -33.6533,-0.4266 -39.5467,-29.92 -39.8267,-49.0133 -0.1466,-9.1467 1.0134,-15.9067 1.0134,-15.9067 l 2.3466,-27.8 5.96,-70.84 5.2667,-62.5733 6.76,-80.4267 5.6933,-67.8799 63.9067,-759.8134 389.6,-10.1066 c 0,0 -43.9067,445.5733 -74.96,769.92 -3.4667,36.1466 -6.7733,70.7866 -9.8267,103.1333 -0.9866,10.3333 -1.9333,20.4266 -2.8533,30.2533 -2.88,30.6933 -5.52,58.8667 -7.8133,83.76 -1.2,13.1067 -2.32,25.2933 -3.32,36.4533 -3.9734,43.7467 -6.2934,71.68 -6.32,76.9867 -0.013,3.0933 0.24,5.9733 0.76,8.6533 6.3866,34.08 51.6933,35.2 57.5466,35.2"
       style="fill:#f99746;fill-opacity:1;fill-rule:nonzero;stroke:none;stroke-width:0.133333" />
    <path
       id="path16"
       d="m 563.27465,661.48008 219.056,879.90662 29.992,120.5067 102.02533,409.84 H 2809.8266 L 2433.7733,661.48008 H 563.27465"
       style="fill:#f99746;fill-opacity:1;fill-rule:nonzero;stroke:none;stroke-width:0.133333" />
    <path
       id="path17"
       d="m 563.27199,661.48008 -30.35867,10.12 341.07599,1430.74662 40.364,-30.6133 L 563.27199,661.48008"
       style="fill:#ee9849;fill-opacity:1;fill-rule:nonzero;stroke:none;stroke-width:0.133333" />
    <path
       id="path18"
       d="M 873.98931,2102.3467 H 2757.7999 l 52.0134,-30.6133 H 914.35331 l -40.364,30.6133"
       style="fill:#d86713;fill-opacity:1;fill-rule:nonzero;stroke:none;stroke-width:0.133333" />
    <path
       id="path19"
       d="M 1535.5333,2378 H 1943.4 v -19.3734 h -407.8667 z"
       style="fill:#f1a34f;fill-opacity:1;fill-rule:nonzero;stroke:none;stroke-width:0.133333" />
    <path
       id="path20"
       d="M 2717.9999,1811.8667 2410.4399,680.13342 H 560.24265 V 661.48008 H 2433.7733 l 306.5333,1147.88002 -22.3067,2.5066"
       style="fill:#f1a34f;fill-opacity:1;fill-rule:nonzero;stroke:none;stroke-width:0.133333" />
    <path
       id="path21"
       d="m 1839.72,2102.3334 -2.1067,14.8133 -383.5867,77.4933 5.2667,-62.5733 2.5067,-29.7333 h 377.92"
       style="fill:#d86713;fill-opacity:1;fill-rule:nonzero;stroke:none;stroke-width:0.133333" />
    <path
       id="path22"
       d="m 10835.3,2310.3 h 3253.2 v 909.5 h -3253.2 z"
       style="fill:#ec8432;fill-opacity:1;fill-rule:nonzero;stroke:none"
       transform="matrix(0.13333333,0,0,-0.13333333,0,2666.6667)"
       clip-path="url(#clipPath23)" />
    <path
       id="path24"
       d="m 1621.4933,2358.6534 c -14.7867,0 -29.2,-0.013 -42.9067,-0.027 v 0 h 92.3067 c -16.6267,0.013 -33.24,0.027 -49.4,0.027"
       style="fill:#e78b37;fill-opacity:1;fill-rule:nonzero;stroke:none;stroke-width:0.133333" />
    <path
       id="path25"
       d="m 914.34798,2071.7334 v 0 l -102.024,-409.84 L 1747,1786.2401 914.35331,2071.7334"
       style="fill:#ec8432;fill-opacity:1;fill-rule:nonzero;stroke:none;stroke-width:0.133333" />
    <path
       id="path26"
       d="M 563.27199,661.48008 H 2433.7733 L 2737.2666,1794.8801 H 845.68312 L 563.27199,661.48008"
       style="fill:#fe5314;fill-opacity:1;fill-rule:nonzero;stroke:none;stroke-width:0.133333" />
    <path
       id="path27"
       d="m 1912.3333,1938.1467 c -5.4,-27.7866 -32.3067,-50.32 -60.1067,-50.32 -27.8,0 -45.9466,22.5334 -40.5466,50.32 5.4,27.8 32.32,50.3334 60.1066,50.3334 27.8,0 45.96,-22.5334 40.5467,-50.3334"
       style="fill:#d86713;fill-opacity:1;fill-rule:nonzero;stroke:none;stroke-width:0.133333" />
    <path
       id="path28"
       d="M 2649.0533,1745.7601 H 897.69464 l -198.34399,-790.10669 -15.196,-60.58667 -12.97733,-51.67999 -10.38134,-41.38667 -20.04,-79.8 H 2366.8666 l 1.2133,4.38667 20.7734,75.41333 11.4133,41.38667 14.2533,51.67999 16.7067,60.58667 217.8267,790.10669"
       style="fill:#e9f3fe;fill-opacity:1;fill-rule:nonzero;stroke:none;stroke-width:0.133333" />
    <path
       id="path29"
       d="M 2649.0533,1748.4667 H 897.69464 l -198.34399,-790.11996 -15.196,-60.58666 -12.97733,-51.68 -10.38134,-41.37333 -20.04,-79.81333 H 2366.8666 l 1.2133,4.38666 20.7734,75.42667 11.4133,41.37333 14.2533,51.68 16.7067,60.58666 217.8267,790.11996"
       style="fill:#feebe5;fill-opacity:1;fill-rule:nonzero;stroke:none;stroke-width:0.133333" />
    <path
       id="path30"
       d="M 2388.8533,802.00008 H 660.79598 l -20.04,-79.8 H 2366.2133 l 1.8666,4.38667 20.7734,75.41333"
       style="fill:#fec2ad;fill-opacity:1;fill-rule:nonzero;stroke:none;stroke-width:0.133333" />
    <path
       id="path31"
       d="m 688.77198,762.09341 c -2.08533,-8.36 3.00534,-15.14666 11.372,-15.14666 8.36667,0 16.84,6.78666 18.92667,15.14666 2.08533,8.37334 -3.00533,15.16 -11.372,15.16 -8.36667,0 -16.84,-6.78666 -18.92667,-15.16"
       style="fill:#e9f3fe;fill-opacity:1;fill-rule:nonzero;stroke:none;stroke-width:0.133333" />
    <path
       id="path32"
       d="m 739.10798,762.09341 c -2.08667,-8.36 3.004,-15.14666 11.37067,-15.14666 8.36666,0 16.84,6.78666 18.92666,15.14666 2.08534,8.37334 -3.00533,15.16 -11.372,15.16 -8.36666,0 -16.84,-6.78666 -18.92533,-15.16"
       style="fill:#e9f3fe;fill-opacity:1;fill-rule:nonzero;stroke:none;stroke-width:0.133333" />
    <path
       id="path33"
       d="m 793.30665,762.09341 c -2.08534,-8.36 3.00666,-15.14666 11.37333,-15.14666 8.36667,0 16.84,6.78666 18.92533,15.14666 2.08667,8.37334 -3.00533,15.16 -11.372,15.16 -8.36666,0 -16.84,-6.78666 -18.92666,-15.16"
       style="fill:#e9f3fe;fill-opacity:1;fill-rule:nonzero;stroke:none;stroke-width:0.133333" />
    <path
       id="path34"
       d="M 1443.2533,1748.4667 H 1270.084 c -1.66,-13.5333 -3.1227,-27.84 -4.436,-42.7733 -2.324,-26.76 -4.104,-55.56 -5.4174,-85.5067 -0.316,-6.92 -0.588,-13.88 -0.844,-20.9066 -0.332,-8.9334 -0.62,-17.9734 -0.876,-27.0534 -0.4226,-15.4266 -0.7546,-31.0266 -0.996,-46.72 l -0.015,-0.053 c -0.3027,-20.0133 -0.4534,-40.16 -0.4987,-60.2267 v -0.013 c -0.015,-5.0133 -0.015,-10.0267 -0.015,-15.0133 v -0.013 c 0,-4.72 0.015,-9.3866 0.031,-14.0666 0.1493,-43.2 0.7987,-85.5734 1.72,-124.9734 1.9907,-87.1866 5.2213,-159.8266 6.9413,-194.7466 v -0.013 c 0.6934,-14.3333 1.1467,-22.3066 1.1467,-22.3066 l 0.045,0.027 c 0.392,0.053 3.0174,0.5334 7.152,1.5334 3.0334,0.7466 6.8814,1.7466 11.2574,3.0933 h 0.016 c 3.9533,1.1867 8.3146,2.6667 12.9013,4.4133 l 0.045,0.013 c 7.8014,3 16.2067,6.8266 24.1134,11.64 0.1213,0.067 0.2413,0.12 0.3626,0.1866 12.9347,8.0267 24.6147,18.6667 29.9347,32.72 4.5733,11.9334 15.28,76.08 28.2133,161.28 0.36,2.4267 0.72,4.8667 1.0934,7.3467 6.84,45.24 14.2266,96 21.6533,147.84 7.8667,54.92 15.72,111.0267 22.96,163.0133 6.16,44.5867 11.88,86.1334 16.68,121.28"
       style="fill:#2b478b;fill-opacity:1;fill-rule:nonzero;stroke:none;stroke-width:0.133333" />
    <path
       id="path35"
       d="m 1394.76,1748.4667 h -201.5734 c -3.864,-16.6266 -7.4853,-32.6666 -10.7,-47.72 -8.8573,-41.4666 -14.6813,-75.44 -14.3653,-93.7066 0.1507,-8.56 3.38,-15.2534 8.9333,-20.4 3.8027,-3.5334 8.692,-6.3334 14.4414,-8.52 17.0066,-6.4667 41.4373,-7.52 67.0146,-5.8934 8.692,0.5467 17.504,1.3867 26.196,2.44 47.9107,5.8134 92.3867,17.68 92.3867,17.68 0,0 2.9733,12.0267 6.48,33.04 2.64,15.7734 5.5867,36.6267 7.7733,61.2534 1.2667,14.3066 2.2934,29.8933 2.8667,46.5066 0.1733,5 0.3467,10.1067 0.5467,15.32"
       style="fill:#233862;fill-opacity:1;fill-rule:nonzero;stroke:none;stroke-width:0.133333" />
    <path
       id="path36"
       d="m 1301.668,1607.2801 -2.0067,14.56 -9.764,70.72 -1.66,12.0666 -6.0507,43.84 h -210.068 c -1.6293,-28.9733 -3.1386,-57.2133 -3.4253,-81.8266 -0.029,-2.72 -0.045,-5.4 -0.045,-8.0267 0,-37.0533 3.26,-64.5333 13.8826,-71.48 12.0427,-7.8533 51.9854,-5.7067 94.524,-0.4933 4.24,0.5066 8.5107,1.0666 12.7814,1.64 24.7933,3.3333 49.6013,7.4533 69.5506,11 10.3507,1.84 19.3907,3.5333 26.4214,4.88 9.9293,1.9066 15.86,3.12 15.86,3.12"
       style="fill:#c65447;fill-opacity:1;fill-rule:nonzero;stroke:none;stroke-width:0.133333" />
    <path
       id="path37"
       d="m 1068.6493,1130.5467 c 0,0 115.4053,-74.6133 198.1813,-36.4533 13.1907,6.08 28.2374,23.0533 39.008,34.92 29.9214,32.9733 88.388,556.6933 88.388,556.6933 0,0 -165.9666,56.2134 -325.5773,-19.0666 v -536.0934"
       style="fill:#ffffff;fill-opacity:1;fill-rule:nonzero;stroke:none;stroke-width:0.133333" />
    <path
       id="path38"
       d="m 1273.3973,1092.2001 c 0,0 116.8293,47.88 132.656,84.6666 15.8267,36.7867 67.2533,262.7067 67.2533,289.2 0,26.4934 -89.5466,5.92 -103.96,-36.8 -11.9733,-35.48 -52.352,-144.48 -73.644,-213.4266 l -22.3053,-123.64"
       style="fill:#2b478b;fill-opacity:1;fill-rule:nonzero;stroke:none;stroke-width:0.133333" />
    <path
       id="path39"
       d="m 1249.1333,1128.6801 c -25.5053,5 -62.9707,-0.3334 -90.4013,-18.4 12.384,-29.5867 17.4613,-52.9467 19.268,-68.0534 0.1053,-0.8 0.184,-1.5866 0.2626,-2.3333 0.8187,-7.84 0.7,-13.1467 0.3174,-15.5867 h 65.9373 c 0,0 18.0267,8.24 18.0267,13.9334 0,3.0533 0.027,5.96 0.08,8.7466 0.132,7.5867 0.4346,14.2 0.8306,19.8934 1.2534,18.4933 3.376,27.2133 3.376,27.2133 0,0 8.0574,29.5333 -17.6973,34.5867"
       style="fill:#ffb27d;fill-opacity:1;fill-rule:nonzero;stroke:none;stroke-width:0.133333" />
    <path
       id="path40"
       d="m 1263.4546,1066.8801 c -49.9546,9.64 -78.9546,-17.6534 -85.4546,-24.6534 -0.924,-1 -1.3987,-1.6 -1.3987,-1.6 0.528,-0.2666 1.0813,-0.4933 1.6613,-0.7333 18.5947,-7.5333 60.7947,-1.5467 84.3614,7.0933 0.132,7.5867 0.4346,14.2 0.8306,19.8934"
       style="fill:#e2915a;fill-opacity:1;fill-rule:nonzero;stroke:none;stroke-width:0.133333" />
    <path
       id="path41"
       d="m 1161.6826,1013.4667 c 8.9267,48.04 70.9187,46.4667 97.708,43.44 7.54,-0.8266 12.2827,-1.8 12.2827,-1.8 8.5013,-2.2666 13.244,-15.6533 15.448,-33.2 4.3733,-34.70662 -1.152,-85.65329 -7.0133,-98.69329 -8.8267,-19.6 -25.448,-40.81333 -87.8774,-25.50667 -62.44,15.30667 -42.0026,54.2 -30.548,115.75996"
       style="fill:#ffb27d;fill-opacity:1;fill-rule:nonzero;stroke:none;stroke-width:0.133333" />
    <path
       id="path42"
       d="m 1282.432,896.41341 c -8.5334,-11.81333 -26.6254,-26.24 -43.056,-35.13333 -35.3,-19.09333 -80.48,0.6 -80.6694,0.68 -50.992,22.42666 -64.308,61.44 -37.2733,122.21333 28.588,64.25329 55.808,57.02669 55.808,57.02669 0,0 -5.7773,-3.5867 -5.256,-23.6267 0.031,-1.1333 0.076,-2.08 0.128,-2.9067 0.2627,-4.1066 -1.184,-8.2133 -4.252,-10.96 -6.3333,-5.65329 -9.4213,-22.74662 -4.1173,-27.50662 6.3973,-5.74667 15.3893,1.24 18.2613,6.6 2.5093,3.78666 7.004,5.12 11.1907,2.46666 15.8706,-10.02666 5.5613,-30.09333 20.7266,-42.37333 15.1654,-12.28 45.9387,-1.97333 68.6894,-11.76 29.78,-11.09333 6.2493,-25.81333 -0.18,-34.72"
       style="fill:#233862;fill-opacity:1;fill-rule:nonzero;stroke:none;stroke-width:0.133333" />
    <path
       id="path43"
       d="M 1290.6226,1748.4667 H 1039.344 c 1.7946,-52.1066 4.104,-114.32 6.5333,-177.3066 0.6187,-16.3334 1.268,-32.7334 1.9013,-49 0.2867,-6.8934 0.5427,-13.7467 0.8147,-20.6 5.5533,-139.88 11.0613,-266.2 12.2227,-273 2.6413,-15.4 5.1306,-28.5067 7.832,-39.8934 7.892,-33.1333 17.7013,-51.3066 39.0986,-66.9333 2.0827,-1.5867 19.1947,-10.2 34.2694,-17.72 12.3133,-6.1067 23.268,-11.4533 23.6,-11.6 v -0.013 h 0.016 c 2.4893,1.2 5.236,4.68 8.1333,9.8266 2.8973,5.1334 5.9453,11.9867 9.068,19.9867 11.484,29.5067 23.888,74.6533 32.504,108.3733 l 0.031,0.1067 0.016,0.067 v 0.013 c 5.552,21.7733 9.536,38.72 10.668,43.5867 1.9306,8.2133 4.4666,24.1066 7.4693,45.6266 v 0.053 c 4.06,29.36 8.9027,69.1733 14.0347,114.3733 v 0.013 c 0.528,4.6534 1.0546,9.3467 1.5826,14.08 0.6054,5.4134 1.2227,10.8934 1.8414,16.4267 v 0.027 c 0.1973,1.7733 0.3933,3.56 0.5746,5.3333 v 0.013 c 1.976,17.9067 3.968,36.36 5.9454,55.1467 l 0.015,0.053 c 1.6894,15.48 25.1707,26.6934 26.8,42.4667 0.12,1.1467 0.2414,3.4667 0.392,6.6933 0.3014,6.68 0.664,17.2534 1.1014,29.4934 0.1813,5.44 0.3773,11.2266 0.5893,17.12 0.92,26.2266 2.052,54.96 3.3347,68.7866 0.06,0.6534 0.12,1.48 0.1653,2.4934 0.152,2.76 0.272,6.8133 0.3773,11.92 0.212,10.8266 0.3174,26.3333 0.348,43.9866"
       style="fill:#2b478b;fill-opacity:1;fill-rule:nonzero;stroke:none;stroke-width:0.133333" />
    <path
       id="path44"
       d="m 1119.212,1284.9467 c -0.075,0.32 -4.0014,141.44 102.1586,158.5867 106.16,17.1467 35.624,21.68 35.624,21.68 0,0 -199.74,-8.4933 -203.0373,-13.76 -3.2973,-5.28 65.2547,-166.5067 65.2547,-166.5067"
       style="fill:#233862;fill-opacity:1;fill-rule:nonzero;stroke:none;stroke-width:0.133333" />
    <path
       id="path45"
       d="m 1208.908,1504.1201 c 0,0 -1.992,1.4133 -5.816,3.88 l -0.1987,0.12 c -16.1947,10.3333 -64.2627,38.52 -134.2493,57.4133 -7.344,1.9867 -14.9414,3.88 -22.7614,5.6133 0.62,-16.32 1.2667,-32.72 1.8987,-48.9866 -9.244,-0.72 -18.092,-1.8934 -26.3093,-3.64 0.2786,-2.1467 0.568,-4.2934 0.844,-6.4534 8.9026,-3.6533 17.7506,-7.1733 26.284,-10.5066 6.9493,-2.72 13.6746,-5.3067 20.044,-7.6934 28.7493,-10.92 50.06,-18.32 50.06,-18.32 l 85.1,26.9467 5.104,1.6267"
       style="fill:#233862;fill-opacity:1;fill-rule:nonzero;stroke:none;stroke-width:0.133333" />
    <path
       id="path46"
       d="m 1231.432,1501.7601 c 0,0 -10.9334,2.7333 -28.34,6.24 l -0.1854,0.04 c -32.0986,6.44 -86.0613,15.4933 -134.2626,15 -7.108,-0.08 -14.0974,-0.3467 -20.8627,-0.88 -9.244,-0.72 -18.092,-1.8934 -26.3093,-3.64 -17.6174,-3.72 -32.37469,-10.0134 -42.02802,-19.8534 -71.7,-73.0266 39.12802,-335.1466 62.42932,-360.6533 27.2067,-29.7733 76.8573,-40.2133 104.2747,-43.8 1.1466,-0.1467 2.2413,-0.2933 3.3093,-0.4267 9.64,-1.1466 15.8253,-1.3866 16.168,-1.4 h 0.013 c 0,0 -2.1493,6.92 -5.7493,18.64 -1.3987,4.5334 -3.02,9.8 -4.8,15.6667 -16.84,55.1467 -49.336,163.5333 -63.656,224.6667 -5.2493,22.36 -8.0587,38.4 -6.7787,43.1866 5.5907,20.8667 63.524,31.6134 100.2254,36.36 15.3106,1.9734 26.928,2.9067 29.5266,3.1067 0.184,0 0.356,0.013 0.54,0.04 l 2.124,8.7067 5.0774,20.88 4.9973,20.5066 4.2867,17.6134"
       style="fill:#2b478b;fill-opacity:1;fill-rule:nonzero;stroke:none;stroke-width:0.133333" />
    <path
       id="path47"
       d="m 1431.4133,1627.4001 -246.252,-10.3734 49.96,-306.88 246.252,10.3734 -49.96,306.88"
       style="fill:#f99746;fill-opacity:1;fill-rule:nonzero;stroke:none;stroke-width:0.133333" />
    <path
       id="path48"
       d="m 1214.948,1434.0534 c 0,0 47.936,-3.3333 50.34,7.84 5.604,26.04 -41.2107,47.4267 -56.3774,45.96 -15.1653,-1.4533 -4.9946,-55.5333 6.0374,-53.8"
       style="fill:#ffb27d;fill-opacity:1;fill-rule:nonzero;stroke:none;stroke-width:0.133333" />
    <path
       id="path49"
       d="m 1467.9066,1382.8401 c 0,0 -45.8666,-14.3467 -50.7866,-4.0267 -11.48,24.04 29.12,55.68 44.2133,57.76 15.0933,2.08 17.7067,-52.88 6.5733,-53.7333"
       style="fill:#ffb27d;fill-opacity:1;fill-rule:nonzero;stroke:none;stroke-width:0.133333" />
    <path
       id="path50"
       d="m 1170.612,1076.9867 c 0,0 -20.1667,9.6 -30.276,24.1067 0,0 75.38,130.88 75.044,129.6533 -0.3374,-1.2266 -25.4814,-137 -44.768,-153.76"
       style="fill:#233862;fill-opacity:1;fill-rule:nonzero;stroke:none;stroke-width:0.133333" />
    <path
       id="path51"
       d="m 1264.5,1078.8267 c 6.6386,2.5067 19.372,15.5467 22.2413,22.76 l 8.9613,114.2534 c 0,0 -19.1333,-83.84 -28.872,-121.7467 -2.476,-9.64 -2.02,-12.56 -2.3306,-15.2667"
       style="fill:#233862;fill-opacity:1;fill-rule:nonzero;stroke:none;stroke-width:0.133333" />
    <path
       id="path52"
       d="m 1316.7506,1313.5867 c 0,0 1.9467,-8.52 13.156,-7.5333 11.2134,0.9867 74.1734,4.0933 74.1734,4.0933 0,0 12.1466,-0.2 11.0266,7.5734 l -98.356,-4.1334"
       style="fill:#c65447;fill-opacity:1;fill-rule:nonzero;stroke:none;stroke-width:0.133333" />
    <path
       id="path53"
       d="m 1244.5173,1024.3067 c 0,0 8.1747,7.4534 21.3613,5.1334 7.8214,-1.36 12.1987,-11.5334 12.1987,-11.5334 0,0 -15.0293,-2.7066 -33.56,6.4"
       style="fill:#ffffff;fill-opacity:1;fill-rule:nonzero;stroke:none;stroke-width:0.133333" />
    <path
       id="path54"
       d="m 2411.3599,1119.8001 -181.8933,0.68 -58.9867,-225.82669 181.8934,-0.66667 58.9866,225.81336"
       style="fill:#ffffff;fill-opacity:1;fill-rule:nonzero;stroke:none;stroke-width:0.133333" />
    <path
       id="path55"
       d="m 2307.2666,923.65341 -76.2667,0.28 -0.88,-3.33333 76.2667,-0.28 0.88,3.33333"
       style="fill:#adcbf9;fill-opacity:1;fill-rule:nonzero;stroke:none;stroke-width:0.133333" />
    <path
       id="path56"
       d="m 2319.4399,932.94674 -95.76,0.34667 -0.8666,-3.34667 95.76,-0.34666 0.8666,3.34666"
       style="fill:#adcbf9;fill-opacity:1;fill-rule:nonzero;stroke:none;stroke-width:0.133333" />
    <path
       id="path57"
       d="m 2345.7733,978.89341 -124.3867,0.46667 -0.8667,-3.34667 124.3734,-0.45333 0.88,3.33333"
       style="fill:#adcbf9;fill-opacity:1;fill-rule:nonzero;stroke:none;stroke-width:0.133333" />
    <path
       id="path58"
       d="m 2348.6533,989.90674 -124.3867,0.45334 -0.8667,-3.33334 124.3734,-0.46666 0.88,3.34666"
       style="fill:#adcbf9;fill-opacity:1;fill-rule:nonzero;stroke:none;stroke-width:0.133333" />
    <path
       id="path59"
       d="m 2351.5199,1000.9201 -124.3733,0.4533 -0.88,-3.33332 124.3867,-0.46667 0.8666,3.34669"
       style="fill:#adcbf9;fill-opacity:1;fill-rule:nonzero;stroke:none;stroke-width:0.133333" />
    <path
       id="path60"
       d="m 2354.3999,1011.9334 -124.3733,0.4533 -0.88,-3.3466 124.3733,-0.4534 0.88,3.3467"
       style="fill:#adcbf9;fill-opacity:1;fill-rule:nonzero;stroke:none;stroke-width:0.133333" />
    <path
       id="path61"
       d="m 2357.2799,1022.9467 -124.3866,0.4534 -0.8667,-3.3467 124.3733,-0.4533 0.88,3.3466"
       style="fill:#adcbf9;fill-opacity:1;fill-rule:nonzero;stroke:none;stroke-width:0.133333" />
    <path
       id="path62"
       d="m 2364.2799,1049.7334 -124.3866,0.4533 -0.8667,-3.3333 124.3733,-0.4667 0.88,3.3467"
       style="fill:#adcbf9;fill-opacity:1;fill-rule:nonzero;stroke:none;stroke-width:0.133333" />
    <path
       id="path63"
       d="m 2367.1466,1060.7467 -124.3733,0.4534 -0.88,-3.3334 124.3866,-0.4666 0.8667,3.3466"
       style="fill:#adcbf9;fill-opacity:1;fill-rule:nonzero;stroke:none;stroke-width:0.133333" />
    <path
       id="path64"
       d="m 2370.0266,1071.7601 -124.3733,0.4533 -0.88,-3.3467 124.3733,-0.4533 0.88,3.3467"
       style="fill:#adcbf9;fill-opacity:1;fill-rule:nonzero;stroke:none;stroke-width:0.133333" />
    <path
       id="path65"
       d="m 2372.9066,1082.7601 -124.3867,0.4666 -0.8666,-3.3466 124.3733,-0.4534 0.88,3.3334"
       style="fill:#adcbf9;fill-opacity:1;fill-rule:nonzero;stroke:none;stroke-width:0.133333" />
    <path
       id="path66"
       d="m 2375.7733,1093.7734 -124.3734,0.4667 -0.8666,-3.3467 124.3733,-0.4533 0.8667,3.3333"
       style="fill:#adcbf9;fill-opacity:1;fill-rule:nonzero;stroke:none;stroke-width:0.133333" />
    <path
       id="path67"
       d="m 2484.6533,1400.4134 -181.8934,0.6667 -58.9866,-225.8134 181.8933,-0.68 58.9867,225.8267"
       style="fill:#ffffff;fill-opacity:1;fill-rule:nonzero;stroke:none;stroke-width:0.133333" />
    <path
       id="path68"
       d="m 2380.5599,1204.2667 -76.2666,0.28 -0.88,-3.3466 76.28,-0.28 0.8666,3.3466"
       style="fill:#adcbf9;fill-opacity:1;fill-rule:nonzero;stroke:none;stroke-width:0.133333" />
    <path
       id="path69"
       d="m 2392.7333,1213.5467 -95.7467,0.3467 -0.88,-3.3333 95.76,-0.36 0.8667,3.3466"
       style="fill:#adcbf9;fill-opacity:1;fill-rule:nonzero;stroke:none;stroke-width:0.133333" />
    <path
       id="path70"
       d="m 2419.0666,1259.5067 -124.3733,0.4534 -0.88,-3.3334 124.3866,-0.4666 0.8667,3.3466"
       style="fill:#adcbf9;fill-opacity:1;fill-rule:nonzero;stroke:none;stroke-width:0.133333" />
    <path
       id="path71"
       d="m 2421.9466,1270.5201 -124.3867,0.4533 -0.8666,-3.3467 124.3733,-0.4533 0.88,3.3467"
       style="fill:#adcbf9;fill-opacity:1;fill-rule:nonzero;stroke:none;stroke-width:0.133333" />
    <path
       id="path72"
       d="m 2424.8133,1281.5201 -124.3734,0.4666 -0.8666,-3.3466 124.3733,-0.4534 0.8667,3.3334"
       style="fill:#adcbf9;fill-opacity:1;fill-rule:nonzero;stroke:none;stroke-width:0.133333" />
    <path
       id="path73"
       d="m 2427.6933,1292.5334 -124.3734,0.4667 -0.88,-3.3467 124.3867,-0.4533 0.8667,3.3333"
       style="fill:#adcbf9;fill-opacity:1;fill-rule:nonzero;stroke:none;stroke-width:0.133333" />
    <path
       id="path74"
       d="m 2430.5733,1303.5467 -124.3867,0.4534 -0.8667,-3.3334 124.3734,-0.4666 0.88,3.3466"
       style="fill:#adcbf9;fill-opacity:1;fill-rule:nonzero;stroke:none;stroke-width:0.133333" />
    <path
       id="path75"
       d="m 2437.5733,1330.3467 -124.3867,0.4534 -0.8667,-3.3467 124.3734,-0.4533 0.88,3.3466"
       style="fill:#adcbf9;fill-opacity:1;fill-rule:nonzero;stroke:none;stroke-width:0.133333" />
    <path
       id="path76"
       d="m 2440.4399,1341.3467 -124.3733,0.4667 -0.8667,-3.3467 124.3734,-0.4533 0.8666,3.3333"
       style="fill:#adcbf9;fill-opacity:1;fill-rule:nonzero;stroke:none;stroke-width:0.133333" />
    <path
       id="path77"
       d="m 2443.3199,1352.3601 -124.3733,0.4666 -0.88,-3.3466 124.3867,-0.4534 0.8666,3.3334"
       style="fill:#adcbf9;fill-opacity:1;fill-rule:nonzero;stroke:none;stroke-width:0.133333" />
    <path
       id="path78"
       d="m 2446.1999,1363.3734 -124.3866,0.4533 -0.8667,-3.3333 124.3733,-0.4667 0.88,3.3467"
       style="fill:#adcbf9;fill-opacity:1;fill-rule:nonzero;stroke:none;stroke-width:0.133333" />
    <path
       id="path79"
       d="m 2449.0666,1374.3867 -124.3733,0.4534 -0.8667,-3.3334 124.3733,-0.4666 0.8667,3.3466"
       style="fill:#adcbf9;fill-opacity:1;fill-rule:nonzero;stroke:none;stroke-width:0.133333" />
    <path
       id="path80"
       d="m 2558.4533,1682.9067 -181.9067,0.6667 -58.9867,-225.8133 181.9067,-0.68 58.9867,225.8266"
       style="fill:#ffffff;fill-opacity:1;fill-rule:nonzero;stroke:none;stroke-width:0.133333" />
    <path
       id="path81"
       d="m 2454.3466,1486.7601 -76.2667,0.28 -0.88,-3.3467 76.28,-0.28 0.8667,3.3467"
       style="fill:#adcbf9;fill-opacity:1;fill-rule:nonzero;stroke:none;stroke-width:0.133333" />
    <path
       id="path82"
       d="m 2466.5199,1496.0401 -95.7466,0.36 -0.88,-3.3467 95.76,-0.36 0.8666,3.3467"
       style="fill:#adcbf9;fill-opacity:1;fill-rule:nonzero;stroke:none;stroke-width:0.133333" />
    <path
       id="path83"
       d="m 2492.8533,1542.0001 -124.3734,0.4533 -0.88,-3.3333 124.3867,-0.4667 0.8667,3.3467"
       style="fill:#adcbf9;fill-opacity:1;fill-rule:nonzero;stroke:none;stroke-width:0.133333" />
    <path
       id="path84"
       d="m 2495.7333,1553.0134 -124.3867,0.4533 -0.8667,-3.3466 124.3734,-0.4534 0.88,3.3467"
       style="fill:#adcbf9;fill-opacity:1;fill-rule:nonzero;stroke:none;stroke-width:0.133333" />
    <path
       id="path85"
       d="m 2498.6133,1564.0134 -124.3867,0.4667 -0.8667,-3.3467 124.3734,-0.4533 0.88,3.3333"
       style="fill:#adcbf9;fill-opacity:1;fill-rule:nonzero;stroke:none;stroke-width:0.133333" />
    <path
       id="path86"
       d="m 2501.4799,1575.0267 -124.3733,0.4667 -0.88,-3.3467 124.3867,-0.4533 0.8666,3.3333"
       style="fill:#adcbf9;fill-opacity:1;fill-rule:nonzero;stroke:none;stroke-width:0.133333" />
    <path
       id="path87"
       d="m 2504.3599,1586.0401 -124.3733,0.4533 -0.88,-3.3333 124.3733,-0.4667 0.88,3.3467"
       style="fill:#adcbf9;fill-opacity:1;fill-rule:nonzero;stroke:none;stroke-width:0.133333" />
    <path
       id="path88"
       d="m 2511.3599,1612.8401 -124.3733,0.4533 -0.88,-3.3467 124.3733,-0.4533 0.88,3.3467"
       style="fill:#adcbf9;fill-opacity:1;fill-rule:nonzero;stroke:none;stroke-width:0.133333" />
    <path
       id="path89"
       d="m 2514.2399,1623.8401 -124.3866,0.4666 -0.8667,-3.3466 124.3733,-0.4534 0.88,3.3334"
       style="fill:#adcbf9;fill-opacity:1;fill-rule:nonzero;stroke:none;stroke-width:0.133333" />
    <path
       id="path90"
       d="m 2517.1066,1634.8534 -124.3733,0.4667 -0.88,-3.3467 124.3866,-0.4533 0.8667,3.3333"
       style="fill:#adcbf9;fill-opacity:1;fill-rule:nonzero;stroke:none;stroke-width:0.133333" />
    <path
       id="path91"
       d="m 2519.9866,1645.8667 -124.3733,0.4534 -0.88,-3.3334 124.3733,-0.4666 0.88,3.3466"
       style="fill:#adcbf9;fill-opacity:1;fill-rule:nonzero;stroke:none;stroke-width:0.133333" />
    <path
       id="path92"
       d="m 2522.8666,1656.8801 -124.3867,0.4533 -0.8666,-3.3333 124.3733,-0.4667 0.88,3.3467"
       style="fill:#adcbf9;fill-opacity:1;fill-rule:nonzero;stroke:none;stroke-width:0.133333" />
    <path
       id="path93"
       d="m 2319.2799,1684.8134 -636.1866,2.3467 L 1500,986.18674 l 82.8666,-89.24 530.1067,-1.96 206.3066,789.82666"
       style="fill:#ffffff;fill-opacity:1;fill-rule:nonzero;stroke:none;stroke-width:0.133333" />
    <path
       id="path94"
       d="m 1937.7333,1013.4534 -224.2133,0.8267 -2.5734,-9.8267 224.2134,-0.8267 2.5733,9.8267"
       style="fill:#adcbf9;fill-opacity:1;fill-rule:nonzero;stroke:none;stroke-width:0.133333" />
    <path
       id="path95"
       d="m 1973.5333,1040.7467 -281.5067,1.0267 -2.56,-9.8133 281.4934,-1.04 2.5733,9.8266"
       style="fill:#adcbf9;fill-opacity:1;fill-rule:nonzero;stroke:none;stroke-width:0.133333" />
    <path
       id="path96"
       d="m 2050.9333,1175.8401 -365.64,1.3466 -2.5733,-9.8133 365.6399,-1.36 2.5734,9.8267"
       style="fill:#adcbf9;fill-opacity:1;fill-rule:nonzero;stroke:none;stroke-width:0.133333" />
    <path
       id="path97"
       d="m 2059.3866,1208.2134 -365.64,1.3467 -2.5733,-9.8267 365.64,-1.3467 2.5733,9.8267"
       style="fill:#adcbf9;fill-opacity:1;fill-rule:nonzero;stroke:none;stroke-width:0.133333" />
    <path
       id="path98"
       d="m 2067.8399,1240.5734 -365.6399,1.36 -2.56,-9.8267 365.6266,-1.3466 2.5733,9.8133"
       style="fill:#adcbf9;fill-opacity:1;fill-rule:nonzero;stroke:none;stroke-width:0.133333" />
    <path
       id="path99"
       d="m 2076.2933,1272.9467 -365.64,1.3467 -2.56,-9.8133 365.6266,-1.36 2.5734,9.8266"
       style="fill:#adcbf9;fill-opacity:1;fill-rule:nonzero;stroke:none;stroke-width:0.133333" />
    <path
       id="path100"
       d="m 2084.7466,1305.3201 -365.64,1.3466 -2.56,-9.8266 365.64,-1.3467 2.56,9.8267"
       style="fill:#adcbf9;fill-opacity:1;fill-rule:nonzero;stroke:none;stroke-width:0.133333" />
    <path
       id="path101"
       d="m 2105.3199,1384.0801 -365.6399,1.3466 -2.56,-9.8133 365.6399,-1.36 2.56,9.8267"
       style="fill:#adcbf9;fill-opacity:1;fill-rule:nonzero;stroke:none;stroke-width:0.133333" />
    <path
       id="path102"
       d="m 2113.7733,1416.4534 -365.64,1.3467 -2.56,-9.8267 365.64,-1.3467 2.56,9.8267"
       style="fill:#adcbf9;fill-opacity:1;fill-rule:nonzero;stroke:none;stroke-width:0.133333" />
    <path
       id="path103"
       d="m 2122.2266,1448.8134 -365.64,1.36 -2.56,-9.8267 365.64,-1.3466 2.56,9.8133"
       style="fill:#adcbf9;fill-opacity:1;fill-rule:nonzero;stroke:none;stroke-width:0.133333" />
    <path
       id="path104"
       d="m 2130.6799,1481.1867 -365.6266,1.3467 -2.5733,-9.8267 365.6399,-1.3466 2.56,9.8266"
       style="fill:#adcbf9;fill-opacity:1;fill-rule:nonzero;stroke:none;stroke-width:0.133333" />
    <path
       id="path105"
       d="m 2139.1333,1513.5601 -365.6267,1.3466 -2.5733,-9.8266 365.64,-1.3467 2.56,9.8267"
       style="fill:#adcbf9;fill-opacity:1;fill-rule:nonzero;stroke:none;stroke-width:0.133333" />
    <path
       id="path106"
       d="m 1500,986.18674 106.08,-0.38666 -23.2134,-88.85334 z"
       style="fill:#adcbf9;fill-opacity:1;fill-rule:nonzero;stroke:none;stroke-width:0.133333" />
    <path
       id="path107"
       d="m 3032.3066,2234.56 h -517.92 v -182.92 h 519.5733 c 40.4,0 73.1467,32.7467 73.1467,73.1334 v 34.9866 c 0,41.3067 -33.4933,74.8 -74.8,74.8"
       style="fill:#fcecdb;fill-opacity:1;fill-rule:nonzero;stroke:none;stroke-width:0.133333" />
    <path
       id="path108"
       d="m 3549.1599,2126.8934 v 27.52 c 0,14.7066 -3.9467,28.48 -10.8667,40.32 -13.88,23.8133 -39.7066,39.8266 -69.28,39.8266 h -970.4933 c -6.4266,0 -11.6266,-5.2133 -11.6266,-11.6133 v -4.1333 c 0,-6.4 5.2,-11.6134 11.6266,-11.6134 h 591.6 c 3.1734,-3.8533 5.96,-8.0266 8.3067,-12.4666 5.5467,-10.44 8.68,-22.3467 8.68,-34.9734 v -34.9866 c 0,-6.4267 -0.84,-12.68 -2.4,-18.6134 -2.6533,-10.0666 -7.3867,-19.2933 -13.72,-27.16 h -592.4667 c -6.4266,0 -11.6266,-5.2 -11.6266,-11.6266 v -4.1067 c 0,-6.4267 5.2,-11.6267 11.6266,-11.6267 h 975.3867 c 34.3733,0 63.36,23.04 72.36,54.52 1.8933,6.5867 2.8933,13.5467 2.8933,20.7334"
       style="fill:#fe5314;fill-opacity:1;fill-rule:nonzero;stroke:none;stroke-width:0.133333" />
    <path
       id="path109"
       d="m 3546.2666,2106.16 h -441.56 c -2.6533,-10.0666 -7.3867,-19.2933 -13.72,-27.16 h -592.4667 c -6.4266,0 -11.6266,-5.2 -11.6266,-11.6266 v -4.1067 c 0,-6.4267 5.2,-11.6267 11.6266,-11.6267 h 975.3867 c 34.3733,0 63.36,23.04 72.36,54.52"
       style="fill:#e04912;fill-opacity:1;fill-rule:nonzero;stroke:none;stroke-width:0.133333" />
    <path
       id="path110"
       d="m 2514.3866,2143.0934 71.8667,3.08 -71.8667,1.8533 z"
       style="fill:#f4d2b8;fill-opacity:1;fill-rule:nonzero;stroke:none;stroke-width:0.133333" />
    <path
       id="path111"
       d="m 2514.3866,2171.8 170.96,3.08 -170.96,1.8534 z"
       style="fill:#f4d2b8;fill-opacity:1;fill-rule:nonzero;stroke:none;stroke-width:0.133333" />
    <path
       id="path112"
       d="m 2637.9066,2376.4534 h 551.3333 v -142.28 h -555.8133 c -38.0533,0 -68.8933,30.8533 -68.8933,68.9066 v 0 c 0,40.52 32.84,73.3734 73.3733,73.3734"
       style="fill:#2b478b;fill-opacity:1;fill-rule:nonzero;stroke:none;stroke-width:0.133333" />
    <path
       id="path113"
       d="m 3157.5866,2376.4534 h 627.48 v -142.28 h -629.0667 c -38.6933,0 -70.0533,31.36 -70.0533,70.0533 v 0.5867 c 0,39.56 32.08,71.64 71.64,71.64"
       style="fill:#fcecdb;fill-opacity:1;fill-rule:nonzero;stroke:none;stroke-width:0.133333" />
    <path
       id="path114"
       d="m 3044.0533,2376.4534 h 762.7999 c 5.88,0 10.64,-4.76 10.64,-10.64 0,-5.88 -4.76,-10.64 -10.64,-10.64 h -762.7999 c -5.88,0 -10.64,4.76 -10.64,10.64 0,5.88 4.76,10.64 10.64,10.64"
       style="fill:#2b478b;fill-opacity:1;fill-rule:nonzero;stroke:none;stroke-width:0.133333" />
    <path
       id="path115"
       d="m 3044.0533,2255.4534 h 762.7999 c 5.88,0 10.64,-4.76 10.64,-10.64 0,-5.88 -4.76,-10.64 -10.64,-10.64 h -762.7999 c -5.88,0 -10.64,4.76 -10.64,10.64 0,5.88 4.76,10.64 10.64,10.64"
       style="fill:#2b478b;fill-opacity:1;fill-rule:nonzero;stroke:none;stroke-width:0.133333" />
    <path
       id="path116"
       d="m 3785.0666,2305.32 -84.76,2.3867 84.76,1.44 z"
       style="fill:#f4d2b8;fill-opacity:1;fill-rule:nonzero;stroke:none;stroke-width:0.133333" />
    <path
       id="path117"
       d="m 3785.0666,2272.5734 -201.6534,2.3866 201.6534,1.44 z"
       style="fill:#f4d2b8;fill-opacity:1;fill-rule:nonzero;stroke:none;stroke-width:0.133333" />
    <path
       id="path118"
       d="m 3585.4932,2274.48 c 0,0 8.64,6.12 11.5067,16.1734 0.5067,1.7466 0.8267,3.64 0.8933,5.6133 0.48,13.36 0,43.5733 0,43.5733 l 25.5067,-15.1066 25.4533,15.1066 v -40.96 c 0,-7.7466 -2.1866,-15.2666 -6.24,-20.2 -1.96,-2.4 -4.3466,-4.2 -7.0533,-4.2 h -50.0667"
       style="fill:#fe5314;fill-opacity:1;fill-rule:nonzero;stroke:none;stroke-width:0.133333" />
    <path
       id="path119"
       d="m 3585.4932,2274.48 c 0,0 8.64,6.12 11.5067,16.1734 l 51.12,0.6 c 0,0 -2,-14.4 -12.56,-16.7734 h -50.0667"
       style="fill:#568cdb;fill-opacity:1;fill-rule:nonzero;stroke:none;stroke-width:0.133333" />
    <path
       id="path120"
       d="m 3093.4266,2052.0267 h 563.3066 v -209.04 h -565.1599 c -45.1067,0 -81.68,36.56 -81.68,81.68 v 43.8267 c 0,46.1333 37.4,83.5333 83.5333,83.5333"
       style="fill:#fcecdb;fill-opacity:1;fill-rule:nonzero;stroke:none;stroke-width:0.133333" />
    <path
       id="path121"
       d="m 3023.1466,1924.0934 v 44.9867 c 0.1333,19.2133 10.7733,35.8799 26.4,44.7999 7.6933,4.3734 16.5867,6.8667 26.04,6.8667 h 611.7333 c 7.1733,0 12.9867,5.8133 12.9867,12.9867 v 5.3066 c 0,7.1734 -5.8134,12.9867 -12.9867,12.9867 H 2630.5333 c -30.32,0 -57.12,-15.08 -73.3067,-38.1467 -10.2,-14.5466 -16.2,-32.2399 -16.2,-51.3599 v -35.4934 c 0,-13.1066 3,-25.5066 8.3467,-36.5466 13.6,-28.12 42.3733,-47.4934 75.6933,-47.4934 h 1062.2533 c 7.1733,0 12.9867,5.8 12.9867,12.9734 v 5.3066 c 0,7.16 -5.8134,12.9734 -12.9867,12.9734 h -613.6 c -14.6666,0 -27.9466,6.2533 -37.2133,16.24 -8.2133,8.84 -13.28,20.6266 -13.36,33.6133"
       style="fill:#b5453c;fill-opacity:1;fill-rule:nonzero;stroke:none;stroke-width:0.133333" />
    <path
       id="path122"
       d="m 3656.7332,1947.5067 -78.4266,3.5067 78.4266,2.12 z"
       style="fill:#f4d2b8;fill-opacity:1;fill-rule:nonzero;stroke:none;stroke-width:0.133333" />
    <path
       id="path123"
       d="m 3656.7332,1899.4001 -186.5733,3.5066 186.5733,2.12 z"
       style="fill:#f4d2b8;fill-opacity:1;fill-rule:nonzero;stroke:none;stroke-width:0.133333" />
    <path
       id="path124"
       d="m 3472.0799,1902.2134 c 0,0 12.32,6.6267 16.3867,17.52 0.7333,1.9067 1.1866,3.9467 1.28,6.0933 0.68,14.48 0,47.24 0,47.24 l 36.36,-16.3733 36.2533,16.3733 v -44.4 c 0,-8.4 -3.1067,-16.56 -8.8933,-21.92 -2.8,-2.5866 -6.1867,-4.5333 -10.04,-4.5333 h -71.3467"
       style="fill:#f99746;fill-opacity:1;fill-rule:nonzero;stroke:none;stroke-width:0.133333" />
    <path
       id="path125"
       d="m 3472.0799,1902.2134 c 0,0 12.32,6.6267 16.3867,17.52 l 72.8533,0.6533 c 0,0 -2.8533,-15.6 -17.8933,-18.1733 h -71.3467"
       style="fill:#ed7d2b;fill-opacity:1;fill-rule:nonzero;stroke:none;stroke-width:0.133333" />
    <path
       id="path126"
       d="m 3103.2266,1765.4801 c 32.24,56.1066 72.7867,77.7733 72.7867,77.7733 h 168.7199 c 0,0 -266.1066,-120.5867 -241.5066,-77.7733"
       style="fill:#233862;fill-opacity:1;fill-rule:nonzero;stroke:none;stroke-width:0.133333" />
    <path
       id="path127"
       d="m 3232.7999,2199.6667 c 4.4,5.04 4.96,10.6667 2.7867,16.68 l -0.053,0.08 c -4.0267,11.12 -17.3067,23.5467 -32.76,35.9467 -1.9734,1.5866 -3.72,3.04 -5.2534,4.3733 -0.4,0.36 -0.8,0.7067 -1.1866,1.0667 -0.3067,0.2666 -0.6,0.56 -0.9067,0.8133 -14.4,13.28 -8.9733,16.32 -34.8533,43.2533 -29.4934,30.6934 -49.8,31.24 -55.5734,28.4534 -4.8933,-2.3867 5.04,-18.6667 16.04,-36.96 0.5334,-0.88 1.0534,-1.7734 1.6,-2.6667 1.4667,-2.44 2.92,-4.9067 4.3867,-7.3467 12.8933,-22.0266 9.5733,-32.36 6.52,-65.12 -2.48,-26.64 -41.4267,-148.7733 -41.4267,-148.7733 l 56.5334,-9.7467 c 0,0 17.0133,97.2667 35.7733,112.24 10.0267,7.9867 21.2533,8.0934 30.9067,14.0134 0.68,0.4 1.3466,0.8266 2,1.2666 5.48,3.6267 11.0533,7.3734 15.4666,12.4267"
       style="fill:#ffb27d;fill-opacity:1;fill-rule:nonzero;stroke:none;stroke-width:0.133333" />
    <path
       id="path128"
       d="m 3232.7999,2199.6667 c 4.4,5.04 4.96,10.6667 2.7867,16.68 l -0.053,0.08 c -4.92,11.1067 -17.88,23.4667 -32.8134,35.8267 -1.9466,1.6133 -3.6666,3.1066 -5.2,4.4933 -0.4,0.36 -0.8,0.7067 -1.1866,1.0667 -0.3067,0.2666 -0.6,0.56 -0.9067,0.8133 -14.4,13.28 -8.9733,16.32 -34.8533,43.2533 -29.4934,30.6934 -49.8,31.24 -55.5734,28.4534 -4.8933,-2.3867 5.04,-18.6667 16.04,-36.96 5.7467,-2.1067 32.4134,-12.9467 52.5867,-38.7467 17.76,-22.6667 29.6,-51.7867 41.7067,-68.6533 0.68,0.4 1.3466,0.8266 2,1.2666 5.48,3.6267 11.0533,7.3734 15.4666,12.4267"
       style="fill:#233862;fill-opacity:1;fill-rule:nonzero;stroke:none;stroke-width:0.133333" />
    <path
       id="path129"
       d="m 2776.9733,2164.36 c -3.4934,17.4534 -28.36,14.5334 -56.1467,7.7467 -27.8,-6.7867 -21.1867,1.28 -60.7333,-3.0933 -39.56,-4.3867 -51.5334,-19.1334 -52.7467,-25.0134 -1.08,-5.2133 18.4667,-7.0533 39.4267,-9.4666 2.64,-0.2934 5.28,-0.6267 7.9333,-0.9467 23.6667,-2.9733 41,-18.24 62.4933,-30.7867 20.36,-11.88 50.7467,-60.28 50.7467,-60.28 l 54.24,4.2934 c 0,0 -28.4667,43.24 -39.4667,62.0266 -6.48,11.0534 -6.1333,25.68 -5.3333,36.96 0.4267,6.1467 0.8267,12.4134 -0.4133,18.56"
       style="fill:#ffb27d;fill-opacity:1;fill-rule:nonzero;stroke:none;stroke-width:0.133333" />
    <path
       id="path130"
       d="m 2720.8266,2172.1067 c -27.8,-6.7867 -21.1867,1.28 -60.7333,-3.0933 -39.56,-4.3867 -51.5334,-19.1334 -52.7467,-25.0134 -1.08,-5.2133 18.4667,-7.0533 39.4267,-9.4666 l 0.2,0.4 c 0,0 23.72,16.8133 56.64,17.6 26.8266,0.6533 55.2533,-7.0267 73.7733,-6.7334 0.4267,6.1467 0.8267,12.4134 -0.4133,18.56 -3.4934,17.4534 -28.36,14.5334 -56.1467,7.7467"
       style="fill:#233862;fill-opacity:1;fill-rule:nonzero;stroke:none;stroke-width:0.133333" />
    <path
       id="path131"
       d="m 2984.8266,1817.5467 50.7067,136.4267 66.2,178.1466 c 0,0 17.96,1.7467 35.16,-3.2133 15.84,-4.5733 34.0133,-16.5467 34.0133,-16.5467 0,0 -18.3733,-191.2799 -52.6667,-301.0799 -8.7866,-28.1867 -18.64,-50.9867 -29.5066,-63.8134 -53.1467,-62.8266 -103.9067,70.08 -103.9067,70.08"
       style="fill:#233862;fill-opacity:1;fill-rule:nonzero;stroke:none;stroke-width:0.133333" />
    <path
       id="path132"
       d="m 3036.3866,1600.8667 c 33.2133,-10.72 127.96,3.04 223.12,21.6667 l 19.9333,-32.8667 205.56,-16.0533 c 0,0 67.84,150.4267 30.7067,246.28 -5.4667,14.08 -16.3067,23.12 -34.8,23.4133 h -3 c 0,0 -122.3467,-0.067 -162.08,-0.067 -102.2267,0 -216.3467,-70.2667 -231.12,-73.2267 -24.16,-4.8267 -33.8267,43.4933 -57.9867,94.24 -24.1733,50.7467 -227.1466,224.7333 -227.1466,224.7333 0,0 -31.2,0.3067 -44.0934,-4.52 -13.8533,-5.2 -18.92,-11.9467 -18.92,-11.9467 0,0 224.9067,-447.4933 299.8267,-471.6533"
       style="fill:#2b478b;fill-opacity:1;fill-rule:nonzero;stroke:none;stroke-width:0.133333" />
    <path
       id="path133"
       d="m 3280.6533,1306.5734 c 73.1999,40.3067 221.6933,123.8667 222.4666,123.32 0,0 54.5867,20.5733 85.5467,0 51.6133,-34.2667 79.2933,-126.52 -15.0934,-205.9067 -47.08,-39.5866 -80.52,-49.2266 -85.6,-112.44 -2.76,-34.2933 -49.64,-147.49329 -127.5333,-137.02662 -6.5067,0.88 -46.5866,2.74666 -72.92,16.57333 -67.0933,35.23999 -116.6133,299.87999 -6.8666,315.47999"
       style="fill:#233862;fill-opacity:1;fill-rule:nonzero;stroke:none;stroke-width:0.133333" />
    <path
       id="path134"
       d="m 3341.9999,1272.2667 c -0.32,0.2134 36.0133,12.6134 60.32,1.8534 22.8533,-10.1067 40.1733,-47.7067 39.8267,-47.7334 -10.3867,-0.48 -21.8134,-9.5733 -30.6,-69.2266 l -4.4267,1.6 -74.4533,26.7866 c 0,0 5.4,23.88 8.88,46.6267 2.9466,19.1067 4.52,37.3867 0.4533,40.0933"
       style="fill:#ffb27d;fill-opacity:1;fill-rule:nonzero;stroke:none;stroke-width:0.133333" />
    <path
       id="path135"
       d="m 3332.6666,1185.5467 c 0,0 5.4,23.88 8.88,46.6267 42.7733,-7.6933 59.5466,-50.2933 65.5733,-73.4133 l -74.4533,26.7866"
       style="fill:#ed975d;fill-opacity:1;fill-rule:nonzero;stroke:none;stroke-width:0.133333" />
    <path
       id="path136"
       d="m 3321.5866,1209.2534 c 0,0 101.8533,-13.6667 92.36,-76.9733 -9.48,-63.3067 -2.7334,-107.6934 -68.1734,-101.6534 -65.4266,6.0534 -74.4133,32.1067 -76.3866,54 -1.9733,21.9067 25.4533,126.5467 52.2,124.6267"
       style="fill:#ffb27d;fill-opacity:1;fill-rule:nonzero;stroke:none;stroke-width:0.133333" />
    <path
       id="path137"
       d="m 3273.0933,1049.9334 c 0,0 65.2133,56.1867 109.5599,60.72 44.36,4.5333 61.1467,-9.7067 61.1467,-9.7067 0,0 -26.1467,-21.7066 -41.88,-56.7333 -4.6267,-10.3333 -14.4267,-17.4133 -25.7067,-18.3867 -31.6666,-2.7333 -91.7066,-3.9866 -103.1199,24.1067"
       style="fill:#233862;fill-opacity:1;fill-rule:nonzero;stroke:none;stroke-width:0.133333" />
    <path
       id="path138"
       d="m 3313.8533,1044.8934 c 0,0 -21.8134,21.0933 -28.68,36.7467 -6.6267,15.0933 -8.6134,51.2 -3.3334,65.5333 0,0 -33.9866,-66.08 -14.7466,-98.1867 20.4,-34.0533 46.76,-4.0933 46.76,-4.0933"
       style="fill:#233862;fill-opacity:1;fill-rule:nonzero;stroke:none;stroke-width:0.133333" />
    <path
       id="path139"
       d="m 3256.2266,1422.3201 c 3.08,206.1866 0.8533,163.1066 23.4,182.6666 5.44,4.7067 20.72,7.52 40.8267,8.84 63.2266,4.2 174.3599,-6.2133 178.5866,-17.8933 14.5867,-40.44 4.2933,-53 16.4667,-114.8933 1.2666,-6.5734 2.8266,-13.7067 4.6666,-21.4667 10.1467,-42.5067 20.0267,-56.9733 -15.96,-125.2667 -32.64,-61.8666 -66.5466,-112.08 -69.6,-110.2666 -86.1066,51.12 -93.0533,8.1466 -93.0533,8.1466 0,0 -86.84,89.56 -85.3333,190.1334"
       style="fill:#ffffff;fill-opacity:1;fill-rule:nonzero;stroke:none;stroke-width:0.133333" />
    <path
       id="path140"
       d="m 3035.5333,1953.9734 66.2,178.1466 c 0,0 17.96,1.7467 35.16,-3.2133 15.84,-4.5733 34.0133,-16.5467 34.0133,-16.5467 0,0 -18.3733,-191.2799 -52.6667,-301.0799 l -82.7066,142.6933"
       style="fill:#2b478b;fill-opacity:1;fill-rule:nonzero;stroke:none;stroke-width:0.133333" />
    <path
       id="path141"
       d="m 3341.5466,1232.1734 c 0,0 -88.6,15.0267 -99,53.1733 -10.4133,38.1467 -71.64,262.4267 -71.64,262.4267 0,0 45.04,8.0933 65.8533,-12.72 20.8134,-20.8 72.4134,-193.0533 72.4134,-193.0533 l 32.3733,-109.8267"
       style="fill:#ffffff;fill-opacity:1;fill-rule:nonzero;stroke:none;stroke-width:0.133333" />
    <path
       id="path142"
       d="m 3320.4533,1613.8267 c 63.2266,4.2 174.3599,-6.2133 178.5866,-17.8933 14.5867,-40.44 4.2933,-53 16.4667,-114.8933 l -30.5067,-85.8667 c 0,0 5.0533,95.6267 -23.16,120.7733 -28.16,25.1467 -115.4533,48.5467 -129.16,69.56 -6.6133,10.0934 -10.96,20.2 -12.2266,28.32"
       style="fill:#ebf3ff;fill-opacity:1;fill-rule:nonzero;stroke:none;stroke-width:0.133333" />
    <path
       id="path143"
       d="m 3392.8932,1573.6134 c 0,0 -62.3733,-13.88 -72.4399,-8.3467 -10.0667,5.5334 -34.6667,25.6934 -37.7467,32.7067 -3.08,7.0133 22.4133,-5.3333 30.6933,-7.5467 5.3734,-1.44 19.5067,3.4667 26.5067,5.8 29.4266,9.8134 47.4666,4.76 47.4666,4.76 l 5.52,-27.3733"
       style="fill:#ffb27d;fill-opacity:1;fill-rule:nonzero;stroke:none;stroke-width:0.133333" />
    <path
       id="path144"
       d="m 3434.6666,1223.9867 c 0,0 83.7466,5.16 112.7466,45.6 40.8134,56.92 121.7734,299.52 75.3734,331.88 -52.2534,36.44 -237.8267,9.5334 -237.8267,9.5334 0,0 -6.1733,-28.8667 2.4133,-42.8267 8.6,-13.96 148.2267,-36.52 154.6667,-42.96 6.44,-6.4533 -80.5467,-125.6667 -80.5467,-145 0,-19.3333 -26.8266,-156.2267 -26.8266,-156.2267"
       style="fill:#ffffff;fill-opacity:1;fill-rule:nonzero;stroke:none;stroke-width:0.133333" />
    <path
       id="path145"
       d="m 3317.4266,1582.6267 c 0,0 -13.0667,16.8534 -17.3467,18.8667 -4.2933,2.0133 -7.0533,1.5067 -7.0533,1.5067 l 8.8,-15.8534 15.6,-4.52"
       style="fill:#ffb27d;fill-opacity:1;fill-rule:nonzero;stroke:none;stroke-width:0.133333" />
    <path
       id="path146"
       d="m 3320.4533,1565.2667 -38,18.4534 c 0,0 1.6133,2.64 6.2933,2.4266 4.68,-0.2133 16.48,-4.5333 16.48,-4.5333 l 15.2267,-16.3467"
       style="fill:#ffb27d;fill-opacity:1;fill-rule:nonzero;stroke:none;stroke-width:0.133333" />
    <path
       id="path147"
       d="m 3300.0799,1627.3201 h -300.5733 l -90.4267,-224.8534 h 300.12 l 90.88,224.8534"
       style="fill:#f99746;fill-opacity:1;fill-rule:nonzero;stroke:none;stroke-width:0.133333" />
    <path
       id="path148"
       d="m 2995.9733,1618.5601 h 396.9199 v 8.76 h -393.3866 l -3.5333,-8.76"
       style="fill:#ed7d2b;fill-opacity:1;fill-rule:nonzero;stroke:none;stroke-width:0.133333" />
    <path
       id="path149"
       d="m 3075.3733,1514.8934 c -2.2667,-7.9067 2.3066,-14.3067 10.2133,-14.3067 7.9067,0 16.1467,6.4 18.4133,14.3067 2.2667,7.9067 -2.3066,14.3067 -10.2133,14.3067 -7.8933,0 -16.1467,-6.4 -18.4133,-14.3067"
       style="fill:#ffffff;fill-opacity:1;fill-rule:nonzero;stroke:none;stroke-width:0.133333" />
    <path
       id="path150"
       d="m 568.62932,1715.6267 -6.40133,4.4267 c -6.83334,4.7467 -16.24667,3.04 -20.98267,-3.8 l -37.22933,-53.7067 c -4.736,-6.84 -3.03067,-16.2533 3.804,-20.9866 l 9.168,-6.36 c 1.34,-0.92 3.17866,-0.5867 4.10533,0.7466 0.92933,1.3467 0.596,3.1734 -0.744,4.1067 l -9.168,6.36 c -4.15867,2.88 -5.19733,8.6133 -2.31467,12.7733 l 37.228,53.7067 c 2.88267,4.16 8.612,5.2 12.77067,2.32 l 6.40267,-4.44 c 4.15866,-2.88 5.19733,-8.6133 2.31466,-12.7733 l -24.71333,-35.6534 c -0.928,-1.3466 -0.59467,-3.1866 0.744,-4.1066 1.34,-0.9334 3.17867,-0.6 4.10667,0.7466 l 24.71333,35.6534 c 4.736,6.8266 3.03067,16.24 -3.804,20.9866"
       style="fill:#afcdfb;fill-opacity:1;fill-rule:nonzero;stroke:none;stroke-width:0.133333" />
    <path
       id="path151"
       d="m 609.43998,1768.5867 -11.47599,7.96 c -10.65467,7.3867 -25.76,4.1067 -33.672,-7.3066 l -55.97067,-80.76 c -0.928,-1.3334 -0.59467,-3.1734 0.74533,-4.1067 1.33867,-0.92 3.17734,-0.5867 4.10534,0.7467 l 55.97066,80.7466 c 6.05867,8.7467 17.48,11.36 25.46,5.8267 l 11.476,-7.9467 c 7.98,-5.5333 9.54267,-17.1466 3.484,-25.8933 l -63.75333,-91.9733 c -6.05867,-8.7467 -17.47867,-11.36 -25.46,-5.8267 -1.33867,0.9333 -3.17733,0.6 -4.10533,-0.7467 -0.92934,-1.3333 -0.596,-3.1733 0.744,-4.1066 10.65466,-7.3867 25.76,-4.1067 33.672,7.32 l 63.75333,91.9733 c 7.912,11.4133 5.68133,26.72 -4.97334,34.0933"
       style="fill:#afcdfb;fill-opacity:1;fill-rule:nonzero;stroke:none;stroke-width:0.133333" />
    <path
       id="path152"
       d="m 686.43598,2190.36 1.38134,11.3734 c 1.47333,12.1466 -7.20667,23.2266 -19.35067,24.6933 l -95.44533,11.5867 c -12.144,1.4666 -23.22267,-7.2134 -24.696,-19.3467 l -1.97733,-16.2933 c -0.28934,-2.3867 1.40666,-4.5467 3.78666,-4.84 2.38,-0.28 4.544,1.4133 4.83334,3.7866 l 1.976,16.2934 c 0.89733,7.4 7.64,12.68 15.03066,11.7866 l 95.44533,-11.5866 c 7.392,-0.8934 12.67467,-7.64 11.77734,-15.0267 l -1.38,-11.3867 c -0.89734,-7.3866 -7.64,-12.6666 -15.03067,-11.7733 l -63.36,7.6933 c -2.38,0.28 -4.544,-1.4133 -4.832,-3.7866 -0.28933,-2.3867 1.40667,-4.5467 3.78667,-4.84 l 63.36,-7.68 c 12.14266,-1.48 23.22133,7.2 24.69466,19.3466"
       style="fill:#afcdfb;fill-opacity:1;fill-rule:nonzero;stroke:none;stroke-width:0.133333" />
    <path
       id="path153"
       d="m 783.37465,2173.6 2.47466,20.4 c 2.29734,18.9334 -12.336,36.3334 -32.62133,38.8 l -143.49466,17.4134 c -2.38,0.2933 -4.544,-1.4134 -4.83334,-3.7867 -0.28933,-2.3867 1.40667,-4.5467 3.78667,-4.84 l 143.49466,-17.4133 c 15.53334,-1.88 26.76934,-14.9467 25.04934,-29.1334 l -2.476,-20.3866 c -1.72,-14.1867 -15.75734,-24.1867 -31.28934,-22.3067 l -163.44932,19.84 c -15.53334,1.8933 -26.76934,14.96 -25.048,29.1333 0.288,2.3867 -1.408,4.5467 -3.78667,4.84 -2.38,0.28 -4.544,-1.4133 -4.83333,-3.7866 -2.29734,-18.9334 12.336,-36.3467 32.62133,-38.8 l 163.44933,-19.84 c 20.28533,-2.4667 38.65866,10.9333 40.956,29.8666"
       style="fill:#afcdfb;fill-opacity:1;fill-rule:nonzero;stroke:none;stroke-width:0.133333" />
    <path
       id="path154"
       d="m 2312.8399,839.72008 c 0,-7.30667 5.92,-13.22667 13.2267,-13.22667 7.3067,0 13.2267,5.92 13.2267,13.22667 0,7.30667 -5.92,13.22667 -13.2267,13.22667 -7.3067,0 -13.2267,-5.92 -13.2267,-13.22667"
       style="fill:#f99746;fill-opacity:1;fill-rule:nonzero;stroke:none;stroke-width:0.133333" />
    <path
       id="path155"
       d="M 4113.1466,2385.7067 H 254.96133 c -2.40934,0 -4.38,-1.9733 -4.38,-4.3733 v -1.4934 c 0,-2.4133 1.97066,-4.3866 4.38133,-4.3866 H 4113.1466 c 2.4133,0 4.3866,1.9733 4.3866,4.3866 v 1.4934 c 0,2.4 -1.9733,4.3733 -4.3866,4.3733"
       style="fill:#2e3552;fill-opacity:1;fill-rule:nonzero;stroke:none;stroke-width:0.133333" />
  </g>
</svg>
