<?xml version="1.0" encoding="UTF-8" standalone="no"?>
<svg
   id="Camada_2"
   data-name="Camada 2"
   viewBox="0 0 6315.2696 1341"
   version="1.1"
   width="6315.2695"
   height="1341"
   xmlns="http://www.w3.org/2000/svg"
   xmlns:svg="http://www.w3.org/2000/svg">
  <defs
     id="defs1">
    <style
       id="style1">
      .cls-1 {
        fill: #31a2d7;
      }

      .cls-2 {
        fill: #fff;
      }

      .cls-3 {
        fill: #016391;
      }
    </style>
  </defs>
  <g
     id="g20"
     transform="translate(872.11742,1.5000032)"
     style="fill:#ffffff">
    <text
       style="font-size:999.518px;font-family:Geologica;-inkscape-font-specification:'Geologica, @wght=500';font-variation-settings:'wght' 500;letter-spacing:5.20579px;white-space:pre;inline-size:5078.94;display:inline;fill:#ffffff;stroke-width:123.627;stroke-linejoin:round"
       transform="matrix(1.0005654,0,0,0.9994349,-34.231757,0.77053)"
       x="884.72852"
       y="1018.4386"
       id="text20"
       xml:space="preserve"><tspan
         x="884.72852"
         y="1018.4386"
         id="tspan8">J</tspan></text>
    <text
       style="font-size:999.518px;font-family:Geologica;-inkscape-font-specification:'Geologica, @wght=500';font-variation-settings:'wght' 500;letter-spacing:5.20579px;white-space:pre;inline-size:5078.94;display:inline;fill:#ffffff;stroke-width:123.627;stroke-linejoin:round"
       transform="matrix(1.0005654,0,0,0.9994349,-103.14975,0.77053)"
       x="1400.6877"
       y="1018.4386"
       id="text19"
       xml:space="preserve"><tspan
         x="1400.6877"
         y="1018.4386"
         id="tspan9">O</tspan></text>
    <text
       style="font-size:999.518px;font-family:Geologica;-inkscape-font-specification:'Geologica, @wght=500';font-variation-settings:'wght' 500;letter-spacing:5.20579px;white-space:pre;inline-size:5078.94;display:inline;fill:#ffffff;stroke-width:123.627;stroke-linejoin:round"
       transform="matrix(1.0005654,0,0,0.9994349,-139.56321,0.77053)"
       x="2244.9856"
       y="1018.4386"
       id="text18"
       xml:space="preserve"><tspan
         x="2244.9856"
         y="1018.4386"
         id="tspan10">G</tspan></text>
    <text
       style="font-size:999.518px;font-family:Geologica;-inkscape-font-specification:'Geologica, @wght=500';font-variation-settings:'wght' 500;letter-spacing:5.20579px;white-space:pre;inline-size:5078.94;display:inline;fill:#ffffff;stroke-width:123.627;stroke-linejoin:round"
       transform="matrix(1.0005654,0,0,0.9994349,-242.9828,0.77053)"
       x="3001.3281"
       y="1018.4386"
       id="text17"
       xml:space="preserve"><tspan
         x="3001.3281"
         y="1018.4386"
         id="tspan11">R</tspan></text>
    <text
       style="font-size:999.518px;font-family:Geologica;-inkscape-font-specification:'Geologica, @wght=500';font-variation-settings:'wght' 500;letter-spacing:5.20579px;white-space:pre;inline-size:5078.94;display:inline;fill:#ffffff;stroke-width:123.627;stroke-linejoin:round"
       transform="matrix(1.0005654,0,0,0.9994349,-247.39398,0.77053)"
       x="3668.2136"
       y="1018.4386"
       id="text16"
       xml:space="preserve"><tspan
         x="3668.2136"
         y="1018.4386"
         id="tspan12">O</tspan></text>
    <text
       style="font-size:999.518px;font-family:Geologica;-inkscape-font-specification:'Geologica, @wght=500';font-variation-settings:'wght' 500;letter-spacing:5.20579px;white-space:pre;inline-size:5078.94;display:inline;fill:#ffffff;stroke-width:123.627;stroke-linejoin:round"
       transform="matrix(1.0005654,0,0,0.9994349,-312.8109,0.77053)"
       x="4502.5176"
       y="1018.4386"
       id="text15"
       xml:space="preserve"><tspan
         x="4502.5176"
         y="1018.4386"
         id="tspan13">U</tspan></text>
    <text
       style="font-size:999.518px;font-family:Geologica;-inkscape-font-specification:'Geologica, @wght=500';font-variation-settings:'wght' 500;letter-spacing:5.20579px;white-space:pre;inline-size:5078.94;display:inline;fill:#ffffff;stroke-width:123.627;stroke-linejoin:round"
       transform="matrix(1.0005654,0,0,0.9994349,-422.23176,0.77053)"
       x="5252.3638"
       y="1018.4386"
       id="text14"
       xml:space="preserve"><tspan
         x="5252.3638"
         y="1018.4386"
         id="tspan14">P</tspan></text>
  </g>
  <path
     id="rect11"
     style="font-variation-settings:'wght' 500;opacity:1;fill:#016391;fill-opacity:1;stroke-width:24.1968;stroke-linejoin:round"
     d="M 154.59179,0 C 68.94831,0 -9.9999989e-6,68.9483 0,154.5918 V 807.2285 C 37.14509,795.339 72.86201,765.7188 121.83203,709.5234 179.54718,643.29276 205.14257,526.12123 205.14257,516.61719 V 0 Z M 537.75195,0 V 524.38281 A 626.40405,626.40405 0 0 1 1017.8828,299.19922 626.40405,626.40405 0 0 1 1341,389.00586 V 154.5918 C 1341,68.9483 1272.0536,0 1186.4101,0 Z M 393.52148,954.1582 C 297.35212,1044.7718 148.41485,1132.2161 0,1136.1914 v 50.2168 C 0,1272.0517 68.94831,1341 154.59179,1341 H 549.66601 A 626.40405,626.40405 0 0 1 393.52148,954.1582 Z" />
  <circle
     style="font-variation-settings:'wght' 500;opacity:1;fill:#31a2d7;fill-opacity:1;stroke-width:23.3595;stroke-linejoin:round"
     id="path12"
     cx="1017.8828"
     cy="927.10413"
     r="293.46521" />
</svg>
