<svg xmlns="http://www.w3.org/2000/svg" version="1.1" xmlns:xlink="http://www.w3.org/1999/xlink" width="512" height="512" x="0" y="0" viewBox="0 0 512 512" style="enable-background:new 0 0 512 512" xml:space="preserve" class=""><g><clipPath id="a"><path d="M0 0h512v512H0z" fill="#000000" opacity="1" data-original="#000000"></path></clipPath><g clip-path="url(#a)"><path fill="#a4a4a4" d="M469.331 313.651v29.515c0 4.898-.213 9.839-.641 14.736-5.985 67.394-52.799 111.432-120.347 111.432h-184.69c-34.201 0-63.059-11.101-83.794-31.227a97.95 97.95 0 0 1-20.307-26.286c7.054-8.576 14.963-17.965 22.658-27.376 13.04-15.613 25.652-31.034 33.561-41.065 11.757-14.544 42.752-52.828 85.718-34.862 8.764 3.635 16.46 8.769 23.514 13.26 17.314 11.55 24.582 14.972 36.767 8.341 13.466-7.272 22.231-21.601 31.422-36.573 4.917-7.935 9.833-15.613 15.177-22.671 23.3-30.371 59.212-38.499 89.139-20.533 14.963 8.983 27.789 20.319 39.759 31.847 2.565 2.566 5.13 4.941 7.482 7.293 3.206 3.208 13.894 13.902 24.582 24.169" opacity="1" data-original="#a4a4a4" class=""></path><path fill="#dbdbdb" d="M348.559 42.667H163.656c-72.465 0-120.989 50.69-120.989 126.168v174.333c0 26.286 5.985 49.62 16.887 68.656 7.054-8.577 14.963-17.966 22.659-27.398 13.04-15.592 25.651-31.013 33.56-41.044 11.757-14.544 42.752-52.828 85.718-34.862 8.765 3.636 16.46 8.769 23.514 13.26 17.315 11.55 24.583 14.972 36.767 8.32 13.467-7.25 22.231-21.58 31.423-36.573 4.916-7.914 9.833-15.592 15.177-22.65 23.3-30.371 59.212-38.499 89.138-20.533 14.963 8.983 27.789 20.319 39.76 31.847 2.565 2.567 5.13 4.941 7.481 7.293 3.207 3.187 13.895 13.881 24.583 24.169V168.835c0-75.479-48.524-126.168-120.775-126.168" opacity="1" data-original="#dbdbdb" class=""></path><path fill="#a4a4a4" d="M244.361 187.663c0 30.05-25.031 55.074-55.065 55.074-30.012 0-55.043-25.024-55.043-55.074 0-30.029 25.031-55.074 55.043-55.074 30.034 0 55.065 25.045 55.065 55.074" opacity="1" data-original="#a4a4a4" class=""></path></g></g></svg>
