<?xml version="1.0" encoding="UTF-8" standalone="no"?>
<!-- Created with Inkscape (http://www.inkscape.org/) -->

<svg
   width="160mm"
   height="160mm"
   viewBox="0 0 160 160"
   version="1.1"
   id="svg1"
   xmlns="http://www.w3.org/2000/svg"
   xmlns:svg="http://www.w3.org/2000/svg">
  <defs
     id="defs1" />
  <g
     id="layer1"
     transform="translate(-25.929142,-69.320832)">
    <g
       id="g1"
       transform="translate(0.796106,0.796451)">
      <path
         id="path158"
         d="m 113.02643,78.023861 -0.93837,-0.09878 0.68437,-6.561667 0.93488,0.09878 -0.68088,6.561666"
         style="fill:#000000;fill-opacity:1;fill-rule:nonzero;stroke:none;stroke-width:0.0352777" />
      <path
         id="path159"
         d="m 120.35364,79.223305 -0.92075,-0.194027 1.36525,-6.452306 0.92075,0.194027 -1.36525,6.452306"
         style="fill:#000000;fill-opacity:1;fill-rule:nonzero;stroke:none;stroke-width:0.0352777" />
      <path
         id="path160"
         d="m 127.50797,81.188275 -0.89606,-0.289276 2.03906,-6.275917 0.89604,0.292806 -2.03904,6.272387"
         style="fill:#000000;fill-opacity:1;fill-rule:nonzero;stroke:none;stroke-width:0.0352777" />
      <path
         id="path161"
         d="m 134.41889,83.897609 -0.86079,-0.384527 2.68816,-6.025444 0.85725,0.384527 -2.68462,6.025444"
         style="fill:#000000;fill-opacity:1;fill-rule:nonzero;stroke:none;stroke-width:0.0352777" />
      <path
         id="path162"
         d="m 147.20708,91.408248 -0.762,-0.55386 3.88056,-5.334 0.762,0.55386 -3.88056,5.334"
         style="fill:#000000;fill-opacity:1;fill-rule:nonzero;stroke:none;stroke-width:0.0352777" />
      <path
         id="path163"
         d="m 152.94676,96.124888 -0.70202,-0.631473 4.41677,-4.900083 0.6985,0.631473 -4.41325,4.900083"
         style="fill:#000000;fill-opacity:1;fill-rule:nonzero;stroke:none;stroke-width:0.0352777" />
      <path
         id="path164"
         d="m 158.16435,101.41303 -0.63146,-0.70203 4.9036,-4.413252 0.62794,0.6985 -4.90008,4.416782"
         style="fill:#000000;fill-opacity:1;fill-rule:nonzero;stroke:none;stroke-width:0.0352777" />
      <path
         id="path165"
         d="m 162.80691,107.21269 -0.5574,-0.762 5.334,-3.88055 0.55388,0.762 -5.33048,3.88055"
         style="fill:#000000;fill-opacity:1;fill-rule:nonzero;stroke:none;stroke-width:0.0352777" />
      <path
         id="path166"
         d="m 170.14468,120.09966 -0.381,-0.86077 6.02191,-2.68464 0.38455,0.86077 -6.02546,2.68464"
         style="fill:#000000;fill-opacity:1;fill-rule:nonzero;stroke:none;stroke-width:0.0352777" />
      <path
         id="path167"
         d="m 172.75876,127.04586 -0.28927,-0.89606 6.2724,-2.03905 0.29279,0.89605 -6.27592,2.03906"
         style="fill:#000000;fill-opacity:1;fill-rule:nonzero;stroke:none;stroke-width:0.0352777" />
      <path
         id="path168"
         d="m 174.62849,134.22489 -0.19402,-0.92075 6.45229,-1.36525 0.19405,0.92427 -6.45232,1.36173"
         style="fill:#000000;fill-opacity:1;fill-rule:nonzero;stroke:none;stroke-width:0.0352777" />
      <path
         id="path169"
         d="m 175.73268,141.56972 -0.0988,-0.93839 6.56167,-0.68086 0.0988,0.93486 -6.56166,0.68439"
         style="fill:#000000;fill-opacity:1;fill-rule:nonzero;stroke:none;stroke-width:0.0352777" />
      <path
         id="path170"
         d="m 182.19558,157.09899 -6.56167,-0.68086 0.0988,-0.93839 6.56166,0.68087 -0.0988,0.93838"
         style="fill:#000000;fill-opacity:1;fill-rule:nonzero;stroke:none;stroke-width:0.0352777" />
      <path
         id="path171"
         d="m 180.88676,165.10705 -6.45229,-1.36525 0.19402,-0.92075 6.45232,1.36525 -0.19405,0.92075"
         style="fill:#000000;fill-opacity:1;fill-rule:nonzero;stroke:none;stroke-width:0.0352777" />
      <path
         id="path172"
         d="m 178.74189,172.93519 -6.2724,-2.03553 0.28927,-0.89605 6.27592,2.03552 -0.29279,0.89606"
         style="fill:#000000;fill-opacity:1;fill-rule:nonzero;stroke:none;stroke-width:0.0352777" />
      <path
         id="path173"
         d="m 175.78559,180.49522 -6.02191,-2.68464 0.381,-0.86078 6.02546,2.68464 -0.38455,0.86078"
         style="fill:#000000;fill-opacity:1;fill-rule:nonzero;stroke:none;stroke-width:0.0352777" />
      <path
         id="path174"
         d="m 167.58351,194.47933 -5.334,-3.88409 0.5574,-0.762 5.33048,3.88409 -0.55388,0.762"
         style="fill:#000000;fill-opacity:1;fill-rule:nonzero;stroke:none;stroke-width:0.0352777" />
      <path
         id="path175"
         d="m 162.43649,200.75172 -4.9036,-4.41678 0.63146,-0.6985 4.90008,4.41325 -0.62794,0.70203"
         style="fill:#000000;fill-opacity:1;fill-rule:nonzero;stroke:none;stroke-width:0.0352777" />
      <path
         id="path176"
         d="m 156.66151,206.45613 -4.41677,-4.90008 0.70202,-0.63147 4.41325,4.90079 -0.6985,0.63076"
         style="fill:#000000;fill-opacity:1;fill-rule:nonzero;stroke:none;stroke-width:0.0352777" />
      <path
         id="path177"
         d="m 150.32564,211.52908 -3.88056,-5.3333 0.762,-0.55421 3.88056,5.33329 -0.762,0.55422"
         style="fill:#000000;fill-opacity:1;fill-rule:nonzero;stroke:none;stroke-width:0.0352777" />
      <path
         id="path178"
         d="m 136.24274,219.56042 -2.68464,-6.02404 0.86079,-0.38382 2.68462,6.02403 -0.86077,0.38383"
         style="fill:#000000;fill-opacity:1;fill-rule:nonzero;stroke:none;stroke-width:0.0352777" />
      <path
         id="path179"
         d="m 128.65097,222.42426 -2.03906,-6.27344 0.89606,-0.29104 2.03904,6.27344 -0.89604,0.29104"
         style="fill:#000000;fill-opacity:1;fill-rule:nonzero;stroke:none;stroke-width:0.0352777" />
      <path
         id="path180"
         d="m 120.79814,224.47285 -1.36525,-6.45407 0.92075,-0.19474 1.36525,6.45372 -0.92075,0.19509"
         style="fill:#000000;fill-opacity:1;fill-rule:nonzero;stroke:none;stroke-width:0.0352777" />
      <path
         id="path181"
         d="m 112.77243,225.68358 -0.68437,-6.56096 0.93837,-0.0974 0.68088,6.56096 -0.93488,0.0974"
         style="fill:#000000;fill-opacity:1;fill-rule:nonzero;stroke:none;stroke-width:0.0352777" />
      <path
         id="path182"
         d="m 97.49716,225.68358 -0.938398,-0.0974 0.680879,-6.56096 0.938371,0.0974 -0.680852,6.56096"
         style="fill:#000000;fill-opacity:1;fill-rule:nonzero;stroke:none;stroke-width:0.0352777" />
      <path
         id="path183"
         d="m 89.471475,224.47285 -0.92075,-0.19509 1.36525,-6.45372 0.92075,0.19474 -1.36525,6.45407"
         style="fill:#000000;fill-opacity:1;fill-rule:nonzero;stroke:none;stroke-width:0.0352777" />
      <path
         id="path184"
         d="m 81.618641,222.42426 -0.896064,-0.29104 2.035545,-6.27344 0.896038,0.29104 -2.035519,6.27344"
         style="fill:#000000;fill-opacity:1;fill-rule:nonzero;stroke:none;stroke-width:0.0352777" />
      <path
         id="path185"
         d="m 74.023327,219.56042 -0.860769,-0.38383 2.684648,-6.02403 0.860769,0.38382 -2.684648,6.02404"
         style="fill:#000000;fill-opacity:1;fill-rule:nonzero;stroke:none;stroke-width:0.0352777" />
      <path
         id="path186"
         d="m 59.943975,211.52908 -0.762,-0.55422 3.880564,-5.33329 0.762,0.55421 -3.880564,5.3333"
         style="fill:#000000;fill-opacity:1;fill-rule:nonzero;stroke:none;stroke-width:0.0352777" />
      <path
         id="path187"
         d="m 53.608077,206.45613 -0.702019,-0.63076 4.416769,-4.90079 0.6985,0.63147 -4.41325,4.90008"
         style="fill:#000000;fill-opacity:1;fill-rule:nonzero;stroke:none;stroke-width:0.0352777" />
      <path
         id="path188"
         d="m 47.833123,200.75172 -0.631481,-0.70203 4.900083,-4.41325 0.631481,0.6985 -4.900083,4.41678"
         style="fill:#000000;fill-opacity:1;fill-rule:nonzero;stroke:none;stroke-width:0.0352777" />
      <path
         id="path189"
         d="m 42.682559,194.47933 -0.553853,-0.762 5.334,-3.88409 0.553852,0.762 -5.333999,3.88409"
         style="fill:#000000;fill-opacity:1;fill-rule:nonzero;stroke:none;stroke-width:0.0352777" />
      <path
         id="path190"
         d="m 34.480475,180.49522 -0.381,-0.86078 6.021917,-2.68464 0.384519,0.86078 -6.025436,2.68464"
         style="fill:#000000;fill-opacity:1;fill-rule:nonzero;stroke:none;stroke-width:0.0352777" />
      <path
         id="path191"
         d="m 31.524206,172.93519 -0.289295,-0.89606 6.272398,-2.03552 0.289269,0.89605 -6.272372,2.03553"
         style="fill:#000000;fill-opacity:1;fill-rule:nonzero;stroke:none;stroke-width:0.0352777" />
      <path
         id="path192"
         d="m 29.379309,165.11058 -0.194019,-0.92428 6.455833,-1.36525 0.194019,0.92075 -6.455833,1.36878"
         style="fill:#000000;fill-opacity:1;fill-rule:nonzero;stroke:none;stroke-width:0.0352777" />
      <path
         id="path193"
         d="m 28.070494,157.09899 -0.09525,-0.93838 6.558148,-0.68087 0.09877,0.93839 -6.561667,0.68086"
         style="fill:#000000;fill-opacity:1;fill-rule:nonzero;stroke:none;stroke-width:0.0352777" />
      <path
         id="path194"
         d="m 34.533392,141.56972 -6.558148,-0.68439 0.09525,-0.93486 6.561667,0.68086 -0.09877,0.93839"
         style="fill:#000000;fill-opacity:1;fill-rule:nonzero;stroke:none;stroke-width:0.0352777" />
      <path
         id="path195"
         d="m 35.641123,134.22841 -6.455833,-1.36525 0.194019,-0.92427 6.455833,1.36525 -0.194019,0.92427"
         style="fill:#000000;fill-opacity:1;fill-rule:nonzero;stroke:none;stroke-width:0.0352777" />
      <path
         id="path196"
         d="m 37.507309,127.04586 -6.272398,-2.03906 0.289295,-0.89605 6.272372,2.03905 -0.289269,0.89606"
         style="fill:#000000;fill-opacity:1;fill-rule:nonzero;stroke:none;stroke-width:0.0352777" />
      <path
         id="path197"
         d="m 40.121392,120.09966 -6.021917,-2.68464 0.381,-0.86077 6.025436,2.68464 -0.384519,0.86077"
         style="fill:#000000;fill-opacity:1;fill-rule:nonzero;stroke:none;stroke-width:0.0352777" />
      <path
         id="path198"
         d="m 47.462706,107.21269 -5.334,-3.88055 0.553853,-0.762 5.333999,3.88055 -0.553852,0.762"
         style="fill:#000000;fill-opacity:1;fill-rule:nonzero;stroke:none;stroke-width:0.0352777" />
      <path
         id="path199"
         d="m 52.101725,101.41303 -4.900083,-4.416782 0.631481,-0.6985 4.900083,4.413252 -0.631481,0.70203"
         style="fill:#000000;fill-opacity:1;fill-rule:nonzero;stroke:none;stroke-width:0.0352777" />
      <path
         id="path200"
         d="m 57.322827,96.124888 -4.416769,-4.900083 0.702019,-0.631473 4.41325,4.900083 -0.6985,0.631473"
         style="fill:#000000;fill-opacity:1;fill-rule:nonzero;stroke:none;stroke-width:0.0352777" />
      <path
         id="path201"
         d="m 63.062539,91.408248 -3.880564,-5.334 0.762,-0.55386 3.880564,5.334 -0.762,0.55386"
         style="fill:#000000;fill-opacity:1;fill-rule:nonzero;stroke:none;stroke-width:0.0352777" />
      <path
         id="path202"
         d="m 75.850725,83.897609 -2.688167,-6.025444 0.860769,-0.384527 2.684648,6.025444 -0.85725,0.384527"
         style="fill:#000000;fill-opacity:1;fill-rule:nonzero;stroke:none;stroke-width:0.0352777" />
      <path
         id="path203"
         d="m 82.758122,81.188275 -2.035545,-6.272387 0.896064,-0.292806 2.035519,6.275917 -0.896038,0.289276"
         style="fill:#000000;fill-opacity:1;fill-rule:nonzero;stroke:none;stroke-width:0.0352777" />
      <path
         id="path204"
         d="m 89.915975,79.223305 -1.36525,-6.452306 0.92075,-0.194027 1.36525,6.452306 -0.92075,0.194027"
         style="fill:#000000;fill-opacity:1;fill-rule:nonzero;stroke:none;stroke-width:0.0352777" />
      <path
         id="path205"
         d="m 97.239641,78.023861 -0.680879,-6.561666 0.938398,-0.09878 0.680852,6.561667 -0.938371,0.09878"
         style="fill:#000000;fill-opacity:1;fill-rule:nonzero;stroke:none;stroke-width:0.0352777" />
      <path
         id="path206"
         d="m 105.60399,82.158415 h -0.94191 V 69.320832 h 0.94191 v 12.837583"
         style="fill:#000000;fill-opacity:1;fill-rule:nonzero;stroke:none;stroke-width:0.0352777" />
      <path
         id="path207"
         d="m 138.71924,91.267138 -0.81491,-0.469196 6.23006,-10.770304 0.81492,0.472721 -6.23007,10.766779"
         style="fill:#000000;fill-opacity:1;fill-rule:nonzero;stroke:none;stroke-width:0.0352777" />
      <path
         id="path208"
         d="m 162.86334,115.75344 -0.4727,-0.81491 11.1125,-6.42762 0.4727,0.81492 -11.1125,6.42761"
         style="fill:#000000;fill-opacity:1;fill-rule:nonzero;stroke:none;stroke-width:0.0352777" />
      <path
         id="path209"
         d="m 184.33693,148.99569 h -12.83759 v -0.94192 h 12.83759 v 0.94192"
         style="fill:#000000;fill-opacity:1;fill-rule:nonzero;stroke:none;stroke-width:0.0352777" />
      <path
         id="path210"
         d="m 173.50314,188.53855 -11.1125,-6.42761 0.4727,-0.81845 11.1125,6.43114 -0.4727,0.81492"
         style="fill:#000000;fill-opacity:1;fill-rule:nonzero;stroke:none;stroke-width:0.0352777" />
      <path
         id="path211"
         d="m 144.33193,217.36473 -6.4276,-11.1125 0.81491,-0.47202 6.42761,11.1125 -0.81492,0.47202"
         style="fill:#000000;fill-opacity:1;fill-rule:nonzero;stroke:none;stroke-width:0.0352777" />
      <path
         id="path212"
         d="m 105.60399,227.72793 h -0.94191 v -12.83759 h 0.94191 v 12.83759"
         style="fill:#000000;fill-opacity:1;fill-rule:nonzero;stroke:none;stroke-width:0.0352777" />
      <path
         id="path213"
         d="m 65.934142,217.36473 -0.814917,-0.47202 6.427602,-11.11179 0.814917,0.47166 -6.427602,11.11215"
         style="fill:#000000;fill-opacity:1;fill-rule:nonzero;stroke:none;stroke-width:0.0352777" />
      <path
         id="path214"
         d="m 36.766475,188.53855 -0.472731,-0.81492 11.1125,-6.42761 0.469212,0.81492 -11.108981,6.42761"
         style="fill:#000000;fill-opacity:1;fill-rule:nonzero;stroke:none;stroke-width:0.0352777" />
      <path
         id="path215"
         d="M 38.766725,148.99569 H 25.929142 v -0.94192 h 12.837583 v 0.94192"
         style="fill:#000000;fill-opacity:1;fill-rule:nonzero;stroke:none;stroke-width:0.0352777" />
      <path
         id="path216"
         d="m 47.406244,115.75344 -11.1125,-6.42761 0.472731,-0.81492 11.108981,6.42762 -0.469212,0.81491"
         style="fill:#000000;fill-opacity:1;fill-rule:nonzero;stroke:none;stroke-width:0.0352777" />
      <path
         id="path217"
         d="m 71.550373,91.267138 -6.431148,-11.1125 0.814917,-0.469193 6.431147,11.112497 -0.814916,0.469196"
         style="fill:#000000;fill-opacity:1;fill-rule:nonzero;stroke:none;stroke-width:0.0352777" />
    </g>
  </g>
</svg>
