<?xml version="1.0" encoding="UTF-8" standalone="no"?>
<svg
   id="Camada_2"
   data-name="Camada 2"
   viewBox="0 0 403.3 398.9"
   version="1.1"
   xmlns="http://www.w3.org/2000/svg"
   xmlns:svg="http://www.w3.org/2000/svg">
  <defs
     id="defs1">
    <style
       id="style1">
      .cls-1 {
        fill: #ff0101;
      }

      .cls-2 {
        fill: #fe5314;
      }
    </style>
  </defs>
  <path
     class="cls-1"
     d="m 199.55,398.9 0.09,-72.99 c 0.27,-0.38 6.19,-0.13 7.22,-0.18 53.83,-2.35 102.11,-43.19 115.3,-94.94 6.95,-1.59 13.14,-5.65 19.85,-7.84 0.92,-0.3 4.65,-1.49 5.3,-1.1 0.54,0.57 0.42,1.46 0.39,2.2 -0.24,7.03 -4.01,18.39 -6.39,25.2 -18.07,51.71 -65.15,90.94 -119.53,98.92 l -19.02,50.01 -2.82,0.73 h -0.4 z"
     id="path1" />
  <path
     class="cls-2"
     d="m 325.82,199.95 c -0.29,-0.18 -0.28,-0.4 -0.31,-0.69 -0.24,-2.05 0.11,-4.67 0.02,-6.82 -2.33,-53.55 -42.66,-102.23 -94.58,-114.77 -2.09,-7.51 -6.39,-14.33 -8.65,-21.74 -0.43,-1.4 -1.72,-4.16 0.55,-4.17 5.49,-0.02 15.97,3.24 21.45,4.96 54.36,17.11 95.29,64.4 103.67,120.97 l 54.73,21.75 0.6,0.5 h -77.48 z"
     id="path3" />
  <path
     class="cls-1"
     d="m 199.75,0 v 73.68 c -0.61,0.66 -1.54,0.12 -2.29,0.09 -7.9,-0.25 -17.19,0.87 -24.94,2.47 -46.02,9.52 -83.24,47.26 -95.04,92.31 l -25.9,8.7 c 8.82,-61.62 57.28,-111.44 117.74,-124.4 2.46,-0.53 5.09,-0.78 7.48,-1.31 0.28,-0.06 0.65,-0.13 0.85,-0.35 L 196.29,2.25 Z"
     id="path4" />
  <path
     class="cls-2"
     d="m 168.51,322.17 9.02,25.27 c 0.16,0.44 -0.6,0.3 -0.89,0.28 -2.35,-0.1 -5.93,-0.98 -8.33,-1.47 C 107.81,333.82 60.64,282.69 51.07,221.95 L 0,201.35 73.59,199.83 c 0.39,0.29 0.14,6.18 0.19,7.22 2.34,53.75 42.92,102.08 94.74,115.11 z"
     id="path5" />
</svg>
