<?xml version="1.0" encoding="UTF-8" standalone="no"?>
<!-- Created with Inkscape (http://www.inkscape.org/) -->

<svg
   version="1.1"
   id="svg1"
   width="570"
   height="570"
   viewBox="0 0 570 570.00002"
   xmlns="http://www.w3.org/2000/svg"
   xmlns:svg="http://www.w3.org/2000/svg">
  <defs
     id="defs1" />
  <g
     id="g1"
     transform="translate(-2384.7065,-292.06667)">
    <g
       id="g764"
       transform="translate(5.67325,5.672655)">
      <path
         id="path219"
         d="m 2664.0399,830.85333 c 5.48,0 9.9334,4.448 9.9334,9.93467 0,5.48667 -4.4534,9.93333 -9.9334,9.93333 -5.4933,0 -9.9466,-4.44666 -9.9466,-9.93333 0,-5.48667 4.4533,-9.93467 9.9466,-9.93467"
         style="fill:#000000;fill-opacity:1;fill-rule:nonzero;stroke:none;stroke-width:0.133333" />
      <path
         id="path220"
         d="m 2799.9999,794.07333 c 5.4934,0 9.9334,4.448 9.9334,9.93467 0,5.48667 -4.44,9.93333 -9.9334,9.93333 -5.48,0 -9.9333,-4.44666 -9.9333,-9.93333 0,-5.48667 4.4533,-9.93467 9.9333,-9.93467"
         style="fill:#000000;fill-opacity:1;fill-rule:nonzero;stroke:none;stroke-width:0.133333" />
      <path
         id="path221"
         d="m 2896.6533,697.42667 c 5.48,0 9.9333,4.45333 9.9333,9.93333 0,5.49334 -4.4533,9.93333 -9.9333,9.93333 -5.4934,0 -9.9334,-4.43999 -9.9334,-9.93333 0,-5.48 4.44,-9.93333 9.9334,-9.93333"
         style="fill:#000000;fill-opacity:1;fill-rule:nonzero;stroke:none;stroke-width:0.133333" />
      <path
         id="path222"
         d="m 2933.4266,561.45334 c 5.4933,0 9.9333,4.45333 9.9333,9.93333 0,5.49334 -4.44,9.93333 -9.9333,9.93333 -5.48,0 -9.9333,-4.43999 -9.9333,-9.93333 0,-5.48 4.4533,-9.93333 9.9333,-9.93333"
         style="fill:#000000;fill-opacity:1;fill-rule:nonzero;stroke:none;stroke-width:0.133333" />
      <path
         id="path223"
         d="m 2896.6533,425.49334 c 5.48,0 9.9333,4.44 9.9333,9.93334 0,5.48 -4.4533,9.93333 -9.9333,9.93333 -5.4934,0 -9.9334,-4.45333 -9.9334,-9.93333 0,-5.49334 4.44,-9.93334 9.9334,-9.93334"
         style="fill:#000000;fill-opacity:1;fill-rule:nonzero;stroke:none;stroke-width:0.133333" />
      <path
         id="path224"
         d="m 2799.9999,328.84001 c 5.4934,0 9.9334,4.45333 9.9334,9.93333 0,5.49334 -4.44,9.93334 -9.9334,9.93334 -5.48,0 -9.9333,-4.44 -9.9333,-9.93334 0,-5.48 4.4533,-9.93333 9.9333,-9.93333"
         style="fill:#000000;fill-opacity:1;fill-rule:nonzero;stroke:none;stroke-width:0.133333" />
      <path
         id="path225"
         d="m 2664.0399,292.06668 c 5.48,0 9.9334,4.44 9.9334,9.93333 0,5.48 -4.4534,9.93334 -9.9334,9.93334 -5.4933,0 -9.9466,-4.45334 -9.9466,-9.93334 0,-5.49333 4.4533,-9.93333 9.9466,-9.93333"
         style="fill:#000000;fill-opacity:1;fill-rule:nonzero;stroke:none;stroke-width:0.133333" />
      <path
         id="path226"
         d="m 2664.0399,830.85333 c -5.4933,0 -9.9466,4.448 -9.9466,9.93467 0,5.48667 4.4533,9.93333 9.9466,9.93333 5.48,0 9.9334,-4.44666 9.9334,-9.93333 0,-5.48667 -4.4534,-9.93467 -9.9334,-9.93467"
         style="fill:#000000;fill-opacity:1;fill-rule:nonzero;stroke:none;stroke-width:0.133333" />
      <path
         id="path227"
         d="m 2528.0666,794.07333 c -5.4933,0 -9.9333,4.448 -9.9333,9.93467 0,5.48667 4.44,9.93333 9.9333,9.93333 5.48,0 9.9333,-4.44666 9.9333,-9.93333 0,-5.48667 -4.4533,-9.93467 -9.9333,-9.93467"
         style="fill:#000000;fill-opacity:1;fill-rule:nonzero;stroke:none;stroke-width:0.133333" />
      <path
         id="path228"
         d="m 2431.4133,697.42667 c -5.48,0 -9.9334,4.45333 -9.9334,9.93333 0,5.49334 4.4534,9.93333 9.9334,9.93333 5.4933,0 9.9333,-4.43999 9.9333,-9.93333 0,-5.48 -4.44,-9.93333 -9.9333,-9.93333"
         style="fill:#000000;fill-opacity:1;fill-rule:nonzero;stroke:none;stroke-width:0.133333" />
      <path
         id="path229"
         d="m 2394.6399,561.45334 c -5.4933,0 -9.9333,4.45333 -9.9333,9.93333 0,5.49334 4.44,9.93333 9.9333,9.93333 5.48,0 9.9334,-4.43999 9.9334,-9.93333 0,-5.48 -4.4534,-9.93333 -9.9334,-9.93333"
         style="fill:#000000;fill-opacity:1;fill-rule:nonzero;stroke:none;stroke-width:0.133333" />
      <path
         id="path230"
         d="m 2431.4133,425.49334 c -5.48,0 -9.9334,4.44 -9.9334,9.93334 0,5.48 4.4534,9.93333 9.9334,9.93333 5.4933,0 9.9333,-4.45333 9.9333,-9.93333 0,-5.49334 -4.44,-9.93334 -9.9333,-9.93334"
         style="fill:#000000;fill-opacity:1;fill-rule:nonzero;stroke:none;stroke-width:0.133333" />
      <path
         id="path231"
         d="m 2528.0666,328.84001 c -5.4933,0 -9.9333,4.45333 -9.9333,9.93333 0,5.49334 4.44,9.93334 9.9333,9.93334 5.48,0 9.9333,-4.44 9.9333,-9.93334 0,-5.48 -4.4533,-9.93333 -9.9333,-9.93333"
         style="fill:#000000;fill-opacity:1;fill-rule:nonzero;stroke:none;stroke-width:0.133333" />
      <path
         id="path232"
         d="m 2664.0399,292.06668 c -5.4933,0 -9.9466,4.44 -9.9466,9.93333 0,5.48 4.4533,9.93334 9.9466,9.93334 5.48,0 9.9334,-4.45334 9.9334,-9.93334 0,-5.49333 -4.4534,-9.93333 -9.9334,-9.93333"
         style="fill:#000000;fill-opacity:1;fill-rule:nonzero;stroke:none;stroke-width:0.133333" />
      <path
         id="path233"
         d="m 2693.2533,832.912 c 2.8133,0 5.0933,2.28 5.0933,5.092 0,2.81333 -2.28,5.09333 -5.0933,5.09333 -2.8134,0 -5.0934,-2.28 -5.0934,-5.09333 0,-2.812 2.28,-5.092 5.0934,-5.092"
         style="fill:#000000;fill-opacity:1;fill-rule:nonzero;stroke:none;stroke-width:0.133333" />
      <path
         id="path234"
         d="m 2721.5599,828.3 c 2.8134,0 5.0934,2.28 5.0934,5.092 0,2.81333 -2.28,5.09333 -5.0934,5.09333 -2.8,0 -5.08,-2.28 -5.08,-5.09333 0,-2.812 2.28,-5.092 5.08,-5.092"
         style="fill:#000000;fill-opacity:1;fill-rule:nonzero;stroke:none;stroke-width:0.133333" />
      <path
         id="path235"
         d="m 2748.7999,820.81333 c 2.8134,0 5.0934,2.28 5.0934,5.09334 0,2.812 -2.28,5.092 -5.0934,5.092 -2.8133,0 -5.0933,-2.28 -5.0933,-5.092 0,-2.81334 2.28,-5.09334 5.0933,-5.09334"
         style="fill:#000000;fill-opacity:1;fill-rule:nonzero;stroke:none;stroke-width:0.133333" />
      <path
         id="path236"
         d="m 2774.7999,810.616 c 2.8134,0 5.0934,2.28 5.0934,5.092 0,2.81333 -2.28,5.092 -5.0934,5.092 -2.8133,0 -5.0933,-2.27867 -5.0933,-5.092 0,-2.812 2.28,-5.092 5.0933,-5.092"
         style="fill:#000000;fill-opacity:1;fill-rule:nonzero;stroke:none;stroke-width:0.133333" />
      <path
         id="path237"
         d="m 2822.4266,782.74133 c 2.8133,0 5.0933,2.28 5.0933,5.092 0,2.81334 -2.28,5.09334 -5.0933,5.09334 -2.8133,0 -5.0933,-2.28 -5.0933,-5.09334 0,-2.812 2.28,-5.092 5.0933,-5.092"
         style="fill:#000000;fill-opacity:1;fill-rule:nonzero;stroke:none;stroke-width:0.133333" />
      <path
         id="path238"
         d="m 2843.7199,765.38667 c 2.8134,0 5.0934,2.28 5.0934,5.09333 0,2.81333 -2.28,5.09333 -5.0934,5.09333 -2.8133,0 -5.0933,-2.28 -5.0933,-5.09333 0,-2.81333 2.28,-5.09333 5.0933,-5.09333"
         style="fill:#000000;fill-opacity:1;fill-rule:nonzero;stroke:none;stroke-width:0.133333" />
      <path
         id="path239"
         d="m 2863.1199,745.98667 c 2.8134,0 5.0934,2.28 5.0934,5.09333 0,2.81333 -2.28,5.09333 -5.0934,5.09333 -2.8,0 -5.08,-2.28 -5.08,-5.09333 0,-2.81333 2.28,-5.09333 5.08,-5.09333"
         style="fill:#000000;fill-opacity:1;fill-rule:nonzero;stroke:none;stroke-width:0.133333" />
      <path
         id="path240"
         d="m 2880.4799,724.68 c 2.8134,0 5.0934,2.28 5.0934,5.09333 0,2.81334 -2.28,5.09334 -5.0934,5.09334 -2.8133,0 -5.0933,-2.28 -5.0933,-5.09334 0,-2.81333 2.28,-5.09333 5.0933,-5.09333"
         style="fill:#000000;fill-opacity:1;fill-rule:nonzero;stroke:none;stroke-width:0.133333" />
      <path
         id="path241"
         d="m 2908.3466,677.06667 c 2.8133,0 5.0933,2.28 5.0933,5.09333 0,2.81334 -2.28,5.09334 -5.0933,5.09334 -2.8133,0 -5.0933,-2.28 -5.0933,-5.09334 0,-2.81333 2.28,-5.09333 5.0933,-5.09333"
         style="fill:#000000;fill-opacity:1;fill-rule:nonzero;stroke:none;stroke-width:0.133333" />
      <path
         id="path242"
         d="m 2918.5466,651.06667 c 2.8133,0 5.0933,2.28 5.0933,5.09333 0,2.81334 -2.28,5.09334 -5.0933,5.09334 -2.8133,0 -5.0933,-2.28 -5.0933,-5.09334 0,-2.81333 2.28,-5.09333 5.0933,-5.09333"
         style="fill:#000000;fill-opacity:1;fill-rule:nonzero;stroke:none;stroke-width:0.133333" />
      <path
         id="path243"
         d="m 2926.0399,623.82667 c 2.8134,0 5.0934,2.28 5.0934,5.09333 0,2.81334 -2.28,5.09334 -5.0934,5.09334 -2.8133,0 -5.0933,-2.28 -5.0933,-5.09334 0,-2.81333 2.28,-5.09333 5.0933,-5.09333"
         style="fill:#000000;fill-opacity:1;fill-rule:nonzero;stroke:none;stroke-width:0.133333" />
      <path
         id="path244"
         d="m 2930.6533,595.52 c 2.8,0 5.08,2.28 5.08,5.09334 0,2.81333 -2.28,5.09333 -5.08,5.09333 -2.8134,0 -5.0934,-2.28 -5.0934,-5.09333 0,-2.81334 2.28,-5.09334 5.0934,-5.09334"
         style="fill:#000000;fill-opacity:1;fill-rule:nonzero;stroke:none;stroke-width:0.133333" />
      <path
         id="path245"
         d="m 2930.6533,537.08001 c 2.8,0 5.08,2.28 5.08,5.09333 0,2.81333 -2.28,5.09333 -5.08,5.09333 -2.8134,0 -5.0934,-2.28 -5.0934,-5.09333 0,-2.81333 2.28,-5.09333 5.0934,-5.09333"
         style="fill:#000000;fill-opacity:1;fill-rule:nonzero;stroke:none;stroke-width:0.133333" />
      <path
         id="path246"
         d="m 2926.0399,508.76001 c 2.8134,0 5.0934,2.28 5.0934,5.09333 0,2.81333 -2.28,5.09333 -5.0934,5.09333 -2.8133,0 -5.0933,-2.28 -5.0933,-5.09333 0,-2.81333 2.28,-5.09333 5.0933,-5.09333"
         style="fill:#000000;fill-opacity:1;fill-rule:nonzero;stroke:none;stroke-width:0.133333" />
      <path
         id="path247"
         d="m 2918.5466,481.53334 c 2.8133,0 5.0933,2.28 5.0933,5.09333 0,2.81334 -2.28,5.09334 -5.0933,5.09334 -2.8133,0 -5.0933,-2.28 -5.0933,-5.09334 0,-2.81333 2.28,-5.09333 5.0933,-5.09333"
         style="fill:#000000;fill-opacity:1;fill-rule:nonzero;stroke:none;stroke-width:0.133333" />
      <path
         id="path248"
         d="m 2908.3466,455.53334 c 2.8133,0 5.0933,2.28 5.0933,5.09333 0,2.81334 -2.28,5.09334 -5.0933,5.09334 -2.8133,0 -5.0933,-2.28 -5.0933,-5.09334 0,-2.81333 2.28,-5.09333 5.0933,-5.09333"
         style="fill:#000000;fill-opacity:1;fill-rule:nonzero;stroke:none;stroke-width:0.133333" />
      <path
         id="path249"
         d="m 2880.4799,407.90668 c 2.8134,0 5.0934,2.28 5.0934,5.09333 0,2.81333 -2.28,5.09333 -5.0934,5.09333 -2.8133,0 -5.0933,-2.28 -5.0933,-5.09333 0,-2.81333 2.28,-5.09333 5.0933,-5.09333"
         style="fill:#000000;fill-opacity:1;fill-rule:nonzero;stroke:none;stroke-width:0.133333" />
      <path
         id="path250"
         d="m 2863.1199,386.61334 c 2.8134,0 5.0934,2.28 5.0934,5.09334 0,2.81333 -2.28,5.09333 -5.0934,5.09333 -2.8,0 -5.08,-2.28 -5.08,-5.09333 0,-2.81334 2.28,-5.09334 5.08,-5.09334"
         style="fill:#000000;fill-opacity:1;fill-rule:nonzero;stroke:none;stroke-width:0.133333" />
      <path
         id="path251"
         d="m 2843.7199,367.21334 c 2.8134,0 5.0934,2.26667 5.0934,5.08 0,2.81334 -2.28,5.09334 -5.0934,5.09334 -2.8133,0 -5.0933,-2.28 -5.0933,-5.09334 0,-2.81333 2.28,-5.08 5.0933,-5.08"
         style="fill:#000000;fill-opacity:1;fill-rule:nonzero;stroke:none;stroke-width:0.133333" />
      <path
         id="path252"
         d="m 2822.4266,349.85334 c 2.8133,0 5.0933,2.28 5.0933,5.09334 0,2.81333 -2.28,5.09333 -5.0933,5.09333 -2.8133,0 -5.0933,-2.28 -5.0933,-5.09333 0,-2.81334 2.28,-5.09334 5.0933,-5.09334"
         style="fill:#000000;fill-opacity:1;fill-rule:nonzero;stroke:none;stroke-width:0.133333" />
      <path
         id="path253"
         d="m 2774.7999,321.98668 c 2.8134,0 5.0934,2.28 5.0934,5.09333 0,2.81333 -2.28,5.09333 -5.0934,5.09333 -2.8133,0 -5.0933,-2.28 -5.0933,-5.09333 0,-2.81333 2.28,-5.09333 5.0933,-5.09333"
         style="fill:#000000;fill-opacity:1;fill-rule:nonzero;stroke:none;stroke-width:0.133333" />
      <path
         id="path254"
         d="m 2748.7999,311.78668 c 2.8134,0 5.0934,2.28 5.0934,5.09333 0,2.81333 -2.28,5.09333 -5.0934,5.09333 -2.8133,0 -5.0933,-2.28 -5.0933,-5.09333 0,-2.81333 2.28,-5.09333 5.0933,-5.09333"
         style="fill:#000000;fill-opacity:1;fill-rule:nonzero;stroke:none;stroke-width:0.133333" />
      <path
         id="path255"
         d="m 2721.5599,304.29335 c 2.8134,0 5.0934,2.28 5.0934,5.09333 0,2.81333 -2.28,5.09333 -5.0934,5.09333 -2.8,0 -5.08,-2.28 -5.08,-5.09333 0,-2.81333 2.28,-5.09333 5.08,-5.09333"
         style="fill:#000000;fill-opacity:1;fill-rule:nonzero;stroke:none;stroke-width:0.133333" />
      <path
         id="path256"
         d="m 2693.2533,299.68001 c 2.8133,0 5.0933,2.28 5.0933,5.09334 0,2.81333 -2.28,5.09333 -5.0933,5.09333 -2.8134,0 -5.0934,-2.28 -5.0934,-5.09333 0,-2.81334 2.28,-5.09334 5.0934,-5.09334"
         style="fill:#000000;fill-opacity:1;fill-rule:nonzero;stroke:none;stroke-width:0.133333" />
      <path
         id="path257"
         d="m 2664.0399,298.10668 c 2.8,0 5.08,2.28 5.08,5.09333 0,2.81334 -2.28,5.09334 -5.08,5.09334 -2.8133,0 -5.0933,-2.28 -5.0933,-5.09334 0,-2.81333 2.28,-5.09333 5.0933,-5.09333"
         style="fill:#000000;fill-opacity:1;fill-rule:nonzero;stroke:none;stroke-width:0.133333" />
      <path
         id="path258"
         d="m 2634.8133,832.912 c -2.8134,0 -5.0934,2.28 -5.0934,5.092 0,2.81333 2.28,5.09333 5.0934,5.09333 2.8133,0 5.0933,-2.28 5.0933,-5.09333 0,-2.812 -2.28,-5.092 -5.0933,-5.092"
         style="fill:#000000;fill-opacity:1;fill-rule:nonzero;stroke:none;stroke-width:0.133333" />
      <path
         id="path259"
         d="m 2606.5066,828.3 c -2.8133,0 -5.0933,2.28 -5.0933,5.092 0,2.81333 2.28,5.09333 5.0933,5.09333 2.8133,0 5.0933,-2.28 5.0933,-5.09333 0,-2.812 -2.28,-5.092 -5.0933,-5.092"
         style="fill:#000000;fill-opacity:1;fill-rule:nonzero;stroke:none;stroke-width:0.133333" />
      <path
         id="path260"
         d="m 2579.2666,820.81333 c -2.8133,0 -5.0933,2.28 -5.0933,5.09334 0,2.812 2.28,5.092 5.0933,5.092 2.8133,0 5.0933,-2.28 5.0933,-5.092 0,-2.81334 -2.28,-5.09334 -5.0933,-5.09334"
         style="fill:#000000;fill-opacity:1;fill-rule:nonzero;stroke:none;stroke-width:0.133333" />
      <path
         id="path261"
         d="m 2553.2666,810.616 c -2.8133,0 -5.0933,2.28 -5.0933,5.092 0,2.81333 2.28,5.092 5.0933,5.092 2.8133,0 5.0933,-2.27867 5.0933,-5.092 0,-2.812 -2.28,-5.092 -5.0933,-5.092"
         style="fill:#000000;fill-opacity:1;fill-rule:nonzero;stroke:none;stroke-width:0.133333" />
      <path
         id="path262"
         d="m 2505.6399,782.74133 c -2.8,0 -5.08,2.28 -5.08,5.092 0,2.81334 2.28,5.09334 5.08,5.09334 2.8134,0 5.0934,-2.28 5.0934,-5.09334 0,-2.812 -2.28,-5.092 -5.0934,-5.092"
         style="fill:#000000;fill-opacity:1;fill-rule:nonzero;stroke:none;stroke-width:0.133333" />
      <path
         id="path263"
         d="m 2484.3466,765.38667 c -2.8133,0 -5.0933,2.28 -5.0933,5.09333 0,2.81333 2.28,5.09333 5.0933,5.09333 2.8133,0 5.0933,-2.28 5.0933,-5.09333 0,-2.81333 -2.28,-5.09333 -5.0933,-5.09333"
         style="fill:#000000;fill-opacity:1;fill-rule:nonzero;stroke:none;stroke-width:0.133333" />
      <path
         id="path264"
         d="m 2464.9466,745.98667 c -2.8133,0 -5.0933,2.28 -5.0933,5.09333 0,2.81333 2.28,5.09333 5.0933,5.09333 2.8133,0 5.0933,-2.28 5.0933,-5.09333 0,-2.81333 -2.28,-5.09333 -5.0933,-5.09333"
         style="fill:#000000;fill-opacity:1;fill-rule:nonzero;stroke:none;stroke-width:0.133333" />
      <path
         id="path265"
         d="m 2447.5866,724.68 c -2.8133,0 -5.0933,2.28 -5.0933,5.09333 0,2.81334 2.28,5.09334 5.0933,5.09334 2.8133,0 5.0933,-2.28 5.0933,-5.09334 0,-2.81333 -2.28,-5.09333 -5.0933,-5.09333"
         style="fill:#000000;fill-opacity:1;fill-rule:nonzero;stroke:none;stroke-width:0.133333" />
      <path
         id="path266"
         d="m 2419.7199,677.06667 c -2.8133,0 -5.0933,2.28 -5.0933,5.09333 0,2.81334 2.28,5.09334 5.0933,5.09334 2.8134,0 5.0934,-2.28 5.0934,-5.09334 0,-2.81333 -2.28,-5.09333 -5.0934,-5.09333"
         style="fill:#000000;fill-opacity:1;fill-rule:nonzero;stroke:none;stroke-width:0.133333" />
      <path
         id="path267"
         d="m 2409.5199,651.06667 c -2.8133,0 -5.0933,2.28 -5.0933,5.09333 0,2.81334 2.28,5.09334 5.0933,5.09334 2.8134,0 5.0934,-2.28 5.0934,-5.09334 0,-2.81333 -2.28,-5.09333 -5.0934,-5.09333"
         style="fill:#000000;fill-opacity:1;fill-rule:nonzero;stroke:none;stroke-width:0.133333" />
      <path
         id="path268"
         d="m 2402.0266,623.82667 c -2.8,0 -5.08,2.28 -5.08,5.09333 0,2.81334 2.28,5.09334 5.08,5.09334 2.8133,0 5.0933,-2.28 5.0933,-5.09334 0,-2.81333 -2.28,-5.09333 -5.0933,-5.09333"
         style="fill:#000000;fill-opacity:1;fill-rule:nonzero;stroke:none;stroke-width:0.133333" />
      <path
         id="path269"
         d="m 2397.4266,595.52 c -2.8133,0 -5.0933,2.28 -5.0933,5.09334 0,2.81333 2.28,5.09333 5.0933,5.09333 2.8133,0 5.08,-2.28 5.08,-5.09333 0,-2.81334 -2.2667,-5.09334 -5.08,-5.09334"
         style="fill:#000000;fill-opacity:1;fill-rule:nonzero;stroke:none;stroke-width:0.133333" />
      <path
         id="path270"
         d="m 2397.4266,537.08001 c -2.8133,0 -5.0933,2.28 -5.0933,5.09333 0,2.81333 2.28,5.09333 5.0933,5.09333 2.8133,0 5.08,-2.28 5.08,-5.09333 0,-2.81333 -2.2667,-5.09333 -5.08,-5.09333"
         style="fill:#000000;fill-opacity:1;fill-rule:nonzero;stroke:none;stroke-width:0.133333" />
      <path
         id="path271"
         d="m 2402.0266,508.76001 c -2.8,0 -5.08,2.28 -5.08,5.09333 0,2.81333 2.28,5.09333 5.08,5.09333 2.8133,0 5.0933,-2.28 5.0933,-5.09333 0,-2.81333 -2.28,-5.09333 -5.0933,-5.09333"
         style="fill:#000000;fill-opacity:1;fill-rule:nonzero;stroke:none;stroke-width:0.133333" />
      <path
         id="path272"
         d="m 2409.5199,481.53334 c -2.8133,0 -5.0933,2.28 -5.0933,5.09333 0,2.81334 2.28,5.09334 5.0933,5.09334 2.8134,0 5.0934,-2.28 5.0934,-5.09334 0,-2.81333 -2.28,-5.09333 -5.0934,-5.09333"
         style="fill:#000000;fill-opacity:1;fill-rule:nonzero;stroke:none;stroke-width:0.133333" />
      <path
         id="path273"
         d="m 2419.7199,455.53334 c -2.8133,0 -5.0933,2.28 -5.0933,5.09333 0,2.81334 2.28,5.09334 5.0933,5.09334 2.8134,0 5.0934,-2.28 5.0934,-5.09334 0,-2.81333 -2.28,-5.09333 -5.0934,-5.09333"
         style="fill:#000000;fill-opacity:1;fill-rule:nonzero;stroke:none;stroke-width:0.133333" />
      <path
         id="path274"
         d="m 2447.5866,407.90668 c -2.8133,0 -5.0933,2.28 -5.0933,5.09333 0,2.81333 2.28,5.09333 5.0933,5.09333 2.8133,0 5.0933,-2.28 5.0933,-5.09333 0,-2.81333 -2.28,-5.09333 -5.0933,-5.09333"
         style="fill:#000000;fill-opacity:1;fill-rule:nonzero;stroke:none;stroke-width:0.133333" />
      <path
         id="path275"
         d="m 2464.9466,386.61334 c -2.8133,0 -5.0933,2.28 -5.0933,5.09334 0,2.81333 2.28,5.09333 5.0933,5.09333 2.8133,0 5.0933,-2.28 5.0933,-5.09333 0,-2.81334 -2.28,-5.09334 -5.0933,-5.09334"
         style="fill:#000000;fill-opacity:1;fill-rule:nonzero;stroke:none;stroke-width:0.133333" />
      <path
         id="path276"
         d="m 2484.3466,367.21334 c -2.8133,0 -5.0933,2.26667 -5.0933,5.08 0,2.81334 2.28,5.09334 5.0933,5.09334 2.8133,0 5.0933,-2.28 5.0933,-5.09334 0,-2.81333 -2.28,-5.08 -5.0933,-5.08"
         style="fill:#000000;fill-opacity:1;fill-rule:nonzero;stroke:none;stroke-width:0.133333" />
      <path
         id="path277"
         d="m 2505.6399,349.85334 c -2.8,0 -5.08,2.28 -5.08,5.09334 0,2.81333 2.28,5.09333 5.08,5.09333 2.8134,0 5.0934,-2.28 5.0934,-5.09333 0,-2.81334 -2.28,-5.09334 -5.0934,-5.09334"
         style="fill:#000000;fill-opacity:1;fill-rule:nonzero;stroke:none;stroke-width:0.133333" />
      <path
         id="path278"
         d="m 2553.2666,321.98668 c -2.8133,0 -5.0933,2.28 -5.0933,5.09333 0,2.81333 2.28,5.09333 5.0933,5.09333 2.8133,0 5.0933,-2.28 5.0933,-5.09333 0,-2.81333 -2.28,-5.09333 -5.0933,-5.09333"
         style="fill:#000000;fill-opacity:1;fill-rule:nonzero;stroke:none;stroke-width:0.133333" />
      <path
         id="path279"
         d="m 2579.2666,311.78668 c -2.8133,0 -5.0933,2.28 -5.0933,5.09333 0,2.81333 2.28,5.09333 5.0933,5.09333 2.8133,0 5.0933,-2.28 5.0933,-5.09333 0,-2.81333 -2.28,-5.09333 -5.0933,-5.09333"
         style="fill:#000000;fill-opacity:1;fill-rule:nonzero;stroke:none;stroke-width:0.133333" />
      <path
         id="path280"
         d="m 2606.5066,304.29335 c -2.8133,0 -5.0933,2.28 -5.0933,5.09333 0,2.81333 2.28,5.09333 5.0933,5.09333 2.8133,0 5.0933,-2.28 5.0933,-5.09333 0,-2.81333 -2.28,-5.09333 -5.0933,-5.09333"
         style="fill:#000000;fill-opacity:1;fill-rule:nonzero;stroke:none;stroke-width:0.133333" />
      <path
         id="path281"
         d="m 2634.8133,299.68001 c -2.8134,0 -5.0934,2.28 -5.0934,5.09334 0,2.81333 2.28,5.09333 5.0934,5.09333 2.8133,0 5.0933,-2.28 5.0933,-5.09333 0,-2.81334 -2.28,-5.09334 -5.0933,-5.09334"
         style="fill:#000000;fill-opacity:1;fill-rule:nonzero;stroke:none;stroke-width:0.133333" />
    </g>
  </g>
</svg>
