<?xml version="1.0" encoding="UTF-8" standalone="no"?>
<!-- Created with Inkscape (http://www.inkscape.org/) -->

<svg
   version="1.1"
   id="svg1"
   width="700"
   height="700"
   viewBox="0 0 700 700"
   xmlns="http://www.w3.org/2000/svg"
   xmlns:svg="http://www.w3.org/2000/svg">
  <defs
     id="defs1" />
  <g
     id="g1"
     transform="translate(-4504.6466,-1124.584)">
    <g
       id="g867"
       transform="translate(62.0934,62.09595)">
      <path
         id="path736"
         d="m 4797.0932,1104.6147 h -9.08 v -36.0787 h 9.08 v 36.0787"
         style="fill:#000000;fill-opacity:1;fill-rule:nonzero;stroke:none;stroke-width:0.133333" />
      <path
         id="path737"
         d="m 4950.4132,1148.0667 -7.8667,-4.5493 17.2134,-29.7374 7.8533,4.5507 -17.2,29.736"
         style="fill:#000000;fill-opacity:1;fill-rule:nonzero;stroke:none;stroke-width:0.133333" />
      <path
         id="path738"
         d="m 5061.5199,1262.4893 -4.5467,-7.864 31.2267,-18.0666 4.5466,7.864 -31.2266,18.0666"
         style="fill:#000000;fill-opacity:1;fill-rule:nonzero;stroke:none;stroke-width:0.133333" />
      <path
         id="path739"
         d="m 5136.5065,1417.0267 h -36.08 v -9.08 h 36.08 v 9.08"
         style="fill:#000000;fill-opacity:1;fill-rule:nonzero;stroke:none;stroke-width:0.133333" />
      <path
         id="path740"
         d="m 5088.1999,1588.4133 -31.2267,-18.0666 4.5467,-7.8667 31.2266,18.0667 -4.5466,7.8666"
         style="fill:#000000;fill-opacity:1;fill-rule:nonzero;stroke:none;stroke-width:0.133333" />
      <path
         id="path741"
         d="m 4960.6132,1712.68 -18.0667,-31.2267 7.8667,-4.5466 18.0667,31.2266 -7.8667,4.5467"
         style="fill:#000000;fill-opacity:1;fill-rule:nonzero;stroke:none;stroke-width:0.133333" />
      <path
         id="path742"
         d="m 4797.0932,1756.4401 h -9.08 V 1720.36 h 9.08 v 36.0801"
         style="fill:#000000;fill-opacity:1;fill-rule:nonzero;stroke:none;stroke-width:0.133333" />
      <path
         id="path743"
         d="m 4624.4799,1712.68 -7.8533,-4.5467 18.0666,-31.2266 7.8667,4.5466 -18.08,31.2267"
         style="fill:#000000;fill-opacity:1;fill-rule:nonzero;stroke:none;stroke-width:0.133333" />
      <path
         id="path744"
         d="m 4496.9066,1588.4133 -4.5467,-7.8666 31.2267,-18.0667 4.5466,7.8667 -31.2266,18.0666"
         style="fill:#000000;fill-opacity:1;fill-rule:nonzero;stroke:none;stroke-width:0.133333" />
      <path
         id="path745"
         d="m 4484.6799,1417.0267 h -36.08 v -9.08 h 36.08 v 9.08"
         style="fill:#000000;fill-opacity:1;fill-rule:nonzero;stroke:none;stroke-width:0.133333" />
      <path
         id="path746"
         d="m 4523.5866,1262.4893 -31.2267,-18.068 4.5467,-7.864 31.2266,18.068 -4.5466,7.864"
         style="fill:#000000;fill-opacity:1;fill-rule:nonzero;stroke:none;stroke-width:0.133333" />
      <path
         id="path747"
         d="m 4634.6932,1148.068 -18.0666,-31.228 7.8666,-4.5506 18.0667,31.228 -7.8667,4.5506"
         style="fill:#000000;fill-opacity:1;fill-rule:nonzero;stroke:none;stroke-width:0.133333" />
      <path
         id="path748"
         d="m 4827.2799,1107.0867 -5.16,-0.536 1.76,-16.9107 5.16,0.536 -1.76,16.9107"
         style="fill:#000000;fill-opacity:1;fill-rule:nonzero;stroke:none;stroke-width:0.133333" />
      <path
         id="path749"
         d="m 4859.0265,1112.3507 -5.08,-1.0747 3.52,-16.6333 5.08,1.0747 -3.52,16.6333"
         style="fill:#000000;fill-opacity:1;fill-rule:nonzero;stroke:none;stroke-width:0.133333" />
      <path
         id="path750"
         d="m 4890.0265,1120.92 -4.9466,-1.6026 5.2533,-16.172 4.9333,1.604 -5.24,16.1706"
         style="fill:#000000;fill-opacity:1;fill-rule:nonzero;stroke:none;stroke-width:0.133333" />
      <path
         id="path751"
         d="m 4919.9465,1132.7067 -4.7466,-2.1147 6.9333,-15.528 4.7333,2.1147 -6.92,15.528"
         style="fill:#000000;fill-opacity:1;fill-rule:nonzero;stroke:none;stroke-width:0.133333" />
      <path
         id="path752"
         d="m 4975.2932,1165.352 -4.2,-3.0546 10,-13.748 4.2,3.0546 -10,13.748"
         style="fill:#000000;fill-opacity:1;fill-rule:nonzero;stroke:none;stroke-width:0.133333" />
      <path
         id="path753"
         d="m 5000.1199,1185.8294 -3.8667,-3.476 11.3867,-12.632 3.8533,3.476 -11.3733,12.632"
         style="fill:#000000;fill-opacity:1;fill-rule:nonzero;stroke:none;stroke-width:0.133333" />
      <path
         id="path754"
         d="m 5022.6932,1208.7747 -3.48,-3.8573 12.6267,-11.376 3.48,3.856 -12.6267,11.3773"
         style="fill:#000000;fill-opacity:1;fill-rule:nonzero;stroke:none;stroke-width:0.133333" />
      <path
         id="path755"
         d="m 5042.7465,1233.944 -3.0533,-4.1987 13.7333,-10.0013 3.0667,4.1973 -13.7467,10.0027"
         style="fill:#000000;fill-opacity:1;fill-rule:nonzero;stroke:none;stroke-width:0.133333" />
      <path
         id="path756"
         d="m 5074.4532,1289.8347 -2.12,-4.7414 15.52,-6.9226 2.12,4.7413 -15.52,6.9227"
         style="fill:#000000;fill-opacity:1;fill-rule:nonzero;stroke:none;stroke-width:0.133333" />
      <path
         id="path757"
         d="m 5085.7199,1319.956 -1.6,-4.9387 16.1733,-5.2506 1.6,4.9386 -16.1733,5.2507"
         style="fill:#000000;fill-opacity:1;fill-rule:nonzero;stroke:none;stroke-width:0.133333" />
      <path
         id="path758"
         d="m 5093.7599,1351.0933 -1.0667,-5.08 16.6267,-3.52 1.08,5.08 -16.64,3.52"
         style="fill:#000000;fill-opacity:1;fill-rule:nonzero;stroke:none;stroke-width:0.133333" />
      <path
         id="path759"
         d="m 5098.4932,1382.92 -0.5467,-5.1733 16.92,-1.7467 0.5334,5.16 -16.9067,1.76"
         style="fill:#000000;fill-opacity:1;fill-rule:nonzero;stroke:none;stroke-width:0.133333" />
      <path
         id="path760"
         d="m 5114.8665,1448.9733 -16.92,-1.7466 0.5467,-5.1734 16.9067,1.76 -0.5334,5.16"
         style="fill:#000000;fill-opacity:1;fill-rule:nonzero;stroke:none;stroke-width:0.133333" />
      <path
         id="path761"
         d="m 5109.3199,1482.48 -16.6267,-3.52 1.0667,-5.08 16.64,3.52 -1.08,5.08"
         style="fill:#000000;fill-opacity:1;fill-rule:nonzero;stroke:none;stroke-width:0.133333" />
      <path
         id="path762"
         d="m 5100.2932,1515.2133 -16.1733,-5.2533 1.6,-4.9467 16.1733,5.2534 -1.6,4.9466"
         style="fill:#000000;fill-opacity:1;fill-rule:nonzero;stroke:none;stroke-width:0.133333" />
      <path
         id="path763"
         d="m 5087.8532,1546.8 -15.52,-6.92 2.12,-4.7467 15.52,6.9334 -2.12,4.7333"
         style="fill:#000000;fill-opacity:1;fill-rule:nonzero;stroke:none;stroke-width:0.133333" />
      <path
         id="path764"
         d="m 5053.4265,1605.2267 -13.7333,-10 3.0533,-4.2 13.7467,10 -3.0667,4.2"
         style="fill:#000000;fill-opacity:1;fill-rule:nonzero;stroke:none;stroke-width:0.133333" />
      <path
         id="path765"
         d="m 5031.8399,1631.4267 -12.6267,-11.3734 3.4667,-3.8533 12.64,11.3733 -3.48,3.8534"
         style="fill:#000000;fill-opacity:1;fill-rule:nonzero;stroke:none;stroke-width:0.133333" />
      <path
         id="path766"
         d="m 5007.6399,1655.2533 -11.3867,-12.64 3.8667,-3.4666 11.3733,12.6266 -3.8533,3.48"
         style="fill:#000000;fill-opacity:1;fill-rule:nonzero;stroke:none;stroke-width:0.133333" />
      <path
         id="path767"
         d="m 4981.0932,1676.4267 -10,-13.7467 4.2,-3.0533 10,13.7466 -4.2,3.0534"
         style="fill:#000000;fill-opacity:1;fill-rule:nonzero;stroke:none;stroke-width:0.133333" />
      <path
         id="path768"
         d="m 4922.1199,1709.9067 -6.92,-15.52 4.7466,-2.12 6.92,15.52 -4.7466,2.12"
         style="fill:#000000;fill-opacity:1;fill-rule:nonzero;stroke:none;stroke-width:0.133333" />
      <path
         id="path769"
         d="m 4890.3332,1721.8267 -5.2533,-16.1734 4.9466,-1.6 5.24,16.1734 -4.9333,1.6"
         style="fill:#000000;fill-opacity:1;fill-rule:nonzero;stroke:none;stroke-width:0.133333" />
      <path
         id="path770"
         d="m 4857.4665,1730.3333 -3.52,-16.64 5.08,-1.0666 3.52,16.6266 -5.08,1.08"
         style="fill:#000000;fill-opacity:1;fill-rule:nonzero;stroke:none;stroke-width:0.133333" />
      <path
         id="path771"
         d="m 4823.8799,1735.3333 -1.76,-16.9066 5.16,-0.5467 1.76,16.92 -5.16,0.5333"
         style="fill:#000000;fill-opacity:1;fill-rule:nonzero;stroke:none;stroke-width:0.133333" />
      <path
         id="path772"
         d="m 4761.2265,1735.3333 -5.16,-0.5333 1.7467,-16.92 5.1733,0.5467 -1.76,16.9066"
         style="fill:#000000;fill-opacity:1;fill-rule:nonzero;stroke:none;stroke-width:0.133333" />
      <path
         id="path773"
         d="m 4727.6399,1730.3333 -5.08,-1.08 3.52,-16.6266 5.08,1.0666 -3.52,16.64"
         style="fill:#000000;fill-opacity:1;fill-rule:nonzero;stroke:none;stroke-width:0.133333" />
      <path
         id="path774"
         d="m 4694.7732,1721.8267 -4.9467,-1.6 5.2534,-16.1734 4.9466,1.6 -5.2533,16.1734"
         style="fill:#000000;fill-opacity:1;fill-rule:nonzero;stroke:none;stroke-width:0.133333" />
      <path
         id="path775"
         d="m 4662.9732,1709.9067 -4.7333,-2.12 6.92,-15.52 4.7466,2.12 -6.9333,15.52"
         style="fill:#000000;fill-opacity:1;fill-rule:nonzero;stroke:none;stroke-width:0.133333" />
      <path
         id="path776"
         d="m 4604.0132,1676.4267 -4.2,-3.0534 10,-13.7466 4.2,3.0533 -10,13.7467"
         style="fill:#000000;fill-opacity:1;fill-rule:nonzero;stroke:none;stroke-width:0.133333" />
      <path
         id="path777"
         d="m 4577.4666,1655.2533 -3.8667,-3.48 11.3867,-12.6266 3.8533,3.48 -11.3733,12.6266"
         style="fill:#000000;fill-opacity:1;fill-rule:nonzero;stroke:none;stroke-width:0.133333" />
      <path
         id="path778"
         d="m 4553.2666,1631.44 -3.48,-3.8667 12.6266,-11.3733 3.48,3.8533 -12.6266,11.3867"
         style="fill:#000000;fill-opacity:1;fill-rule:nonzero;stroke:none;stroke-width:0.133333" />
      <path
         id="path779"
         d="m 4531.6666,1605.2267 -3.0534,-4.2 13.7467,-10 3.0533,4.2 -13.7466,10"
         style="fill:#000000;fill-opacity:1;fill-rule:nonzero;stroke:none;stroke-width:0.133333" />
      <path
         id="path780"
         d="m 4497.2399,1546.8 -2.1067,-4.7333 15.52,-6.9334 2.12,4.7467 -15.5333,6.92"
         style="fill:#000000;fill-opacity:1;fill-rule:nonzero;stroke:none;stroke-width:0.133333" />
      <path
         id="path781"
         d="m 4484.8132,1515.2 -1.6,-4.9333 16.1734,-5.2534 1.6,4.9467 -16.1734,5.24"
         style="fill:#000000;fill-opacity:1;fill-rule:nonzero;stroke:none;stroke-width:0.133333" />
      <path
         id="path782"
         d="m 4475.7866,1482.48 -1.08,-5.08 16.64,-3.52 1.0666,5.08 -16.6266,3.52"
         style="fill:#000000;fill-opacity:1;fill-rule:nonzero;stroke:none;stroke-width:0.133333" />
      <path
         id="path783"
         d="m 4470.2399,1448.9733 -0.5333,-5.16 16.9066,-1.76 0.5334,5.1734 -16.9067,1.7466"
         style="fill:#000000;fill-opacity:1;fill-rule:nonzero;stroke:none;stroke-width:0.133333" />
      <path
         id="path784"
         d="m 4486.6132,1382.92 -16.9066,-1.76 0.5333,-5.16 16.9067,1.7467 -0.5334,5.1733"
         style="fill:#000000;fill-opacity:1;fill-rule:nonzero;stroke:none;stroke-width:0.133333" />
      <path
         id="path785"
         d="m 4491.3466,1351.0933 -16.64,-3.52 1.08,-5.08 16.6266,3.52 -1.0666,5.08"
         style="fill:#000000;fill-opacity:1;fill-rule:nonzero;stroke:none;stroke-width:0.133333" />
      <path
         id="path786"
         d="m 4499.3866,1319.956 -16.1734,-5.2507 1.6,-4.9373 16.1734,5.2493 -1.6,4.9387"
         style="fill:#000000;fill-opacity:1;fill-rule:nonzero;stroke:none;stroke-width:0.133333" />
      <path
         id="path787"
         d="m 4510.6532,1289.8347 -15.52,-6.9227 2.1067,-4.7413 15.5333,6.9226 -2.12,4.7414"
         style="fill:#000000;fill-opacity:1;fill-rule:nonzero;stroke:none;stroke-width:0.133333" />
      <path
         id="path788"
         d="m 4542.3599,1233.944 -13.7467,-10.0027 3.0534,-4.1973 13.7466,10.0013 -3.0533,4.1987"
         style="fill:#000000;fill-opacity:1;fill-rule:nonzero;stroke:none;stroke-width:0.133333" />
      <path
         id="path789"
         d="m 4562.4132,1208.7747 -12.6266,-11.3787 3.48,-3.856 12.6266,11.3774 -3.48,3.8573"
         style="fill:#000000;fill-opacity:1;fill-rule:nonzero;stroke:none;stroke-width:0.133333" />
      <path
         id="path790"
         d="m 4584.9866,1185.8294 -11.3867,-12.632 3.8667,-3.476 11.3733,12.632 -3.8533,3.476"
         style="fill:#000000;fill-opacity:1;fill-rule:nonzero;stroke:none;stroke-width:0.133333" />
      <path
         id="path791"
         d="m 4609.8132,1165.352 -10,-13.748 4.2,-3.0546 10,13.748 -4.2,3.0546"
         style="fill:#000000;fill-opacity:1;fill-rule:nonzero;stroke:none;stroke-width:0.133333" />
      <path
         id="path792"
         d="m 4665.1599,1132.7067 -6.92,-15.528 4.7333,-2.1147 6.9333,15.528 -4.7466,2.1147"
         style="fill:#000000;fill-opacity:1;fill-rule:nonzero;stroke:none;stroke-width:0.133333" />
      <path
         id="path793"
         d="m 4695.0799,1120.92 -5.2534,-16.1706 4.9467,-1.604 5.2533,16.172 -4.9466,1.6026"
         style="fill:#000000;fill-opacity:1;fill-rule:nonzero;stroke:none;stroke-width:0.133333" />
      <path
         id="path794"
         d="m 4726.0799,1112.3507 -3.52,-16.6333 5.08,-1.0747 3.52,16.6333 -5.08,1.0747"
         style="fill:#000000;fill-opacity:1;fill-rule:nonzero;stroke:none;stroke-width:0.133333" />
      <path
         id="path795"
         d="m 4757.8132,1107.0867 -1.7467,-16.9107 5.16,-0.536 1.76,16.9107 -5.1733,0.536"
         style="fill:#000000;fill-opacity:1;fill-rule:nonzero;stroke:none;stroke-width:0.133333" />
    </g>
  </g>
</svg>
