<?xml version="1.0" encoding="UTF-8" standalone="no"?>
<svg
   id="Capa_1"
   enable-background="new 0 0 512 512"
   viewBox="0 0 512 512"
   version="1.1"
   xmlns="http://www.w3.org/2000/svg"
   xmlns:svg="http://www.w3.org/2000/svg">
  <defs
     id="defs30" />
  <g
     id="g15"
     style="fill:#fe5314;fill-opacity:1">
    <path
       d="m290.832 106.447v-10.292c11.702-3.087 20.356-13.759 20.356-26.418v-23.271c0-25.621-20.845-46.466-46.466-46.466h-17.443c-25.622 0-46.466 20.845-46.466 46.466v23.271c0 12.659 8.654 23.331 20.356 26.418v10.315c-35.65 6.179-69.283 21.754-97.149 45.369-3.16 2.678-3.551 7.41-.873 10.57 2.677 3.16 7.41 3.551 10.57.873 34.105-28.901 77.533-44.818 122.283-44.818 104.363 0 189.268 84.905 189.268 189.268s-84.905 189.268-189.268 189.268-189.268-84.905-189.268-189.268c0-44.893 16.007-88.427 45.071-122.582 2.684-3.154 2.303-7.888-.852-10.572s-7.888-2.305-10.572.852c-31.371 36.865-48.647 83.851-48.647 132.303 0 112.633 91.634 204.267 204.268 204.267s204.268-91.634 204.268-204.268c0-100.761-73.338-184.705-169.436-201.285zm-75.02-36.71v-23.271c0-17.351 14.116-31.466 31.466-31.466h17.443c17.351 0 31.466 14.116 31.466 31.466v23.271c0 4.21-2.125 7.93-5.356 10.154v-1.599c0-9.825-7.993-17.818-17.818-17.818h-34.026c-9.825 0-17.818 7.993-17.818 17.818v1.599c-3.232-2.223-5.357-5.943-5.357-10.154zm20.356 34.706v-26.151c0-1.554 1.264-2.818 2.818-2.818h34.026c1.554 0 2.818 1.264 2.818 2.818v26.137c-6.528-.632-13.141-.965-19.832-.965-6.644 0-13.26.337-19.83.979z"
       id="path1"
       style="fill:#fe5314;fill-opacity:1" />
    <path
       d="m417.249 298.773c4.121-.417 7.124-4.095 6.708-8.216-4.184-41.388-23.51-79.659-54.417-107.763-31.121-28.298-71.443-43.882-113.539-43.882-93.088 0-168.82 75.732-168.82 168.82s75.732 168.82 168.82 168.82c42.217 0 82.625-15.664 113.779-44.106 30.949-28.253 50.211-66.691 54.238-108.234.4-4.123-2.618-7.789-6.741-8.188-4.122-.399-7.789 2.618-8.188 6.741-3.668 37.84-21.22 72.858-49.421 98.604-28.385 25.913-65.201 40.184-103.667 40.184-84.817 0-153.82-69.003-153.82-153.82s69.003-153.82 153.82-153.82c38.355 0 75.094 14.199 103.448 39.98 28.164 25.609 45.773 60.474 49.584 98.173.415 4.121 4.094 7.122 8.216 6.707z"
       id="path2"
       style="fill:#fe5314;fill-opacity:1" />
    <path
       d="m251.437 206.784v-9.054l11.991 13.944c1.453 1.69 3.544 2.61 5.688 2.61.873 0 1.755-.153 2.606-.468 2.94-1.091 4.892-3.896 4.892-7.032v-29.278c0-4.142-3.358-7.5-7.5-7.5s-7.5 3.358-7.5 7.5v9.054l-11.991-13.944c-2.045-2.378-5.354-3.233-8.294-2.142s-4.892 3.896-4.892 7.032v29.278c0 4.142 3.358 7.5 7.5 7.5 4.143 0 7.5-3.358 7.5-7.5z"
       id="path3"
       style="fill:#fe5314;fill-opacity:1" />
    <path
       d="m162.174 307.732c0-4.142-3.358-7.5-7.5-7.5h-26.772c-4.142 0-7.5 3.358-7.5 7.5s3.358 7.5 7.5 7.5h26.772c4.142 0 7.5-3.358 7.5-7.5z"
       id="path4"
       style="fill:#fe5314;fill-opacity:1" />
    <path
       d="m392.651 307.732c0-4.142-3.358-7.5-7.5-7.5h-26.772c-4.142 0-7.5 3.358-7.5 7.5s3.358 7.5 7.5 7.5h26.772c4.142 0 7.5-3.358 7.5-7.5z"
       id="path5"
       style="fill:#fe5314;fill-opacity:1" />
    <path
       d="m249.026 409.584v26.772c0 4.142 3.358 7.5 7.5 7.5s7.5-3.358 7.5-7.5v-26.772c0-4.142-3.358-7.5-7.5-7.5s-7.5 3.358-7.5 7.5z"
       id="path6"
       style="fill:#fe5314;fill-opacity:1" />
    <path
       d="m146.698 362.481-5.314 3.068c-3.587 2.071-4.816 6.658-2.745 10.245 1.389 2.406 3.91 3.751 6.502 3.751 1.272 0 2.562-.324 3.743-1.006l5.314-3.068c3.587-2.071 4.816-6.658 2.745-10.245s-6.658-4.817-10.245-2.745z"
       id="path7"
       style="fill:#fe5314;fill-opacity:1" />
    <path
       d="m362.612 253.989c1.272 0 2.562-.325 3.743-1.006l5.313-3.068c3.587-2.071 4.816-6.658 2.745-10.245-2.071-3.588-6.659-4.814-10.245-2.745l-5.313 3.068c-3.587 2.071-4.816 6.658-2.745 10.245 1.389 2.406 3.91 3.751 6.502 3.751z"
       id="path8"
       style="fill:#fe5314;fill-opacity:1" />
    <path
       d="m199.032 407.315c-3.587-2.072-8.174-.843-10.245 2.745l-3.068 5.313c-2.071 3.587-.842 8.174 2.745 10.245 1.181.682 2.471 1.006 3.743 1.006 2.592 0 5.113-1.345 6.502-3.751l3.068-5.313c2.071-3.586.842-8.173-2.745-10.245z"
       id="path9"
       style="fill:#fe5314;fill-opacity:1" />
    <path
       d="m317.764 209.155c2.592 0 5.113-1.346 6.502-3.751l3.068-5.314c2.071-3.587.842-8.174-2.745-10.245-3.587-2.073-8.175-.842-10.245 2.745l-3.068 5.314c-2.071 3.587-.842 8.174 2.745 10.245 1.181.682 2.471 1.006 3.743 1.006z"
       id="path10"
       style="fill:#fe5314;fill-opacity:1" />
    <path
       d="m366.355 362.481c-3.588-2.073-8.174-.843-10.245 2.745-2.071 3.587-.842 8.174 2.745 10.245l5.313 3.068c1.181.682 2.471 1.006 3.743 1.006 2.592 0 5.113-1.345 6.502-3.751 2.071-3.587.842-8.174-2.745-10.245z"
       id="path11"
       style="fill:#fe5314;fill-opacity:1" />
    <path
       d="m146.698 252.982c1.181.682 2.471 1.006 3.743 1.006 2.592 0 5.113-1.346 6.502-3.751 2.071-3.587.842-8.174-2.745-10.245l-5.314-3.068c-3.587-2.071-8.175-.842-10.245 2.745-2.071 3.587-.842 8.174 2.745 10.245z"
       id="path12"
       style="fill:#fe5314;fill-opacity:1" />
    <path
       d="m314.021 407.315c-3.587 2.071-4.816 6.658-2.745 10.245l3.068 5.313c1.389 2.406 3.91 3.751 6.502 3.751 1.272 0 2.562-.325 3.743-1.006 3.587-2.071 4.816-6.658 2.745-10.245l-3.068-5.313c-2.071-3.587-6.66-4.814-10.245-2.745z"
       id="path13"
       style="fill:#fe5314;fill-opacity:1" />
    <path
       d="m188.787 205.403c1.389 2.406 3.91 3.751 6.502 3.751 1.272 0 2.562-.324 3.743-1.006 3.587-2.071 4.816-6.658 2.745-10.245l-3.068-5.314c-2.071-3.587-6.658-4.817-10.245-2.745-3.587 2.071-4.816 6.658-2.745 10.245z"
       id="path14"
       style="fill:#fe5314;fill-opacity:1" />
    <path
       d="m324.956 237.258c-4.19-4.1-10.376-4.82-15.396-1.79l-65.711 39.664c-4.208 2.54-8.072 5.605-11.51 9.088-.062.06-.128.113-.189.175-.061.063-.114.131-.173.195-3.407 3.513-6.386 7.442-8.834 11.704l-38.224 66.558c-2.919 5.083-2.066 11.253 2.124 15.353 2.462 2.409 5.613 3.651 8.812 3.651 2.245 0 4.514-.612 6.583-1.861l27.802-16.781c3.546-2.141 4.686-6.75 2.545-10.296-2.139-3.546-6.748-4.685-10.297-2.545l-20.057 12.106 33.718-58.714c.603-1.049 1.263-2.061 1.949-3.055l25.31 24.765c-.978.707-1.976 1.389-3.011 2.014l-10.385 6.269c-3.546 2.141-4.686 6.75-2.545 10.297s6.751 4.686 10.297 2.545l10.385-6.269c4.215-2.544 8.085-5.613 11.527-9.104.057-.055.117-.103.173-.159.059-.06.108-.125.165-.186 3.41-3.515 6.392-7.447 8.842-11.712l38.224-66.558c2.92-5.084 2.066-11.254-2.124-15.354zm-49.107 74.441c-.603 1.049-1.263 2.061-1.949 3.055l-25.31-24.765c.978-.707 1.975-1.389 3.011-2.014l57.966-34.989z"
       id="path15"
       style="fill:#fe5314;fill-opacity:1" />
  </g>
  <g
     id="g16"
     style="fill:#fe5314;fill-opacity:1" />
  <g
     id="g17"
     style="fill:#fe5314;fill-opacity:1" />
  <g
     id="g18"
     style="fill:#fe5314;fill-opacity:1" />
  <g
     id="g19"
     style="fill:#fe5314;fill-opacity:1" />
  <g
     id="g20"
     style="fill:#fe5314;fill-opacity:1" />
  <g
     id="g21"
     style="fill:#fe5314;fill-opacity:1" />
  <g
     id="g22"
     style="fill:#fe5314;fill-opacity:1" />
  <g
     id="g23"
     style="fill:#fe5314;fill-opacity:1" />
  <g
     id="g24"
     style="fill:#fe5314;fill-opacity:1" />
  <g
     id="g25"
     style="fill:#fe5314;fill-opacity:1" />
  <g
     id="g26"
     style="fill:#fe5314;fill-opacity:1" />
  <g
     id="g27"
     style="fill:#fe5314;fill-opacity:1" />
  <g
     id="g28"
     style="fill:#fe5314;fill-opacity:1" />
  <g
     id="g29"
     style="fill:#fe5314;fill-opacity:1" />
  <g
     id="g30"
     style="fill:#fe5314;fill-opacity:1" />
</svg>
