<?xml version="1.0" encoding="UTF-8" standalone="no"?>
<svg
   id="Capa_1"
   enable-background="new 0 0 512.001 512.001"
   height="512"
   viewBox="0 0 512.001 512.001"
   width="512"
   version="1.1"
   xmlns="http://www.w3.org/2000/svg"
   xmlns:svg="http://www.w3.org/2000/svg">
  <defs
     id="defs4" />
  <g
     id="g4"
     style="fill:#fe5314;fill-opacity:1">
    <path
       d="m280.752 348.161c-13.027 13.578-36.47 13.577-49.497 0-3.904-3.905-10.237-3.905-14.142 0s-3.906 10.237 0 14.142c20.471 21.337 57.311 21.336 77.782 0 9.023-9.72-4.434-23.163-14.143-14.142z"
       id="path1"
       style="fill:#fe5314;fill-opacity:1" />
    <path
       d="m224.184 320.231c13.254-.492 13.244-19.513 0-20h-.008c-13.254.494-13.236 19.515.008 20z"
       id="path2"
       style="fill:#fe5314;fill-opacity:1" />
    <path
       d="m287.823 300.232h-.007c-5.523 0-9.997 4.477-9.997 10 .492 13.249 19.516 13.249 20.004 0 0-5.523-4.477-10-10-10z"
       id="path3"
       style="fill:#fe5314;fill-opacity:1" />
    <path
       d="m437.02 148.302c-160.135-160.656-437.415-45.697-437.02 181.022-.001 5.52 4.476 9.997 9.999 9.997h136.451c15.401 132.463 203.745 132.366 219.098 0h136.452c5.523 0 10-4.477 10-10 .001-68.38-26.628-132.667-74.98-181.019zm-71.801-28.153-22.971 39.787c-52.353-27.369-120.144-27.368-172.496 0l-22.971-39.787c64.432-35.438 154.006-35.437 218.438 0zm-13.171 155.527c2.521-9.394 5.041-18.79 7.563-28.204 1.665-6.247-.089-12.686-4.694-17.224-4.532-4.466-11.125-6.184-17.231-4.49l-28.035 7.519c-68.035-39.341-157.353 8.484-163.2 86.044h-60.155c19.82-212.006 319.668-211.845 339.408 0h-60.158c-1.393-15.342-5.981-30.208-13.498-43.645zm-222.57-145.498 22.968 39.782c-50.547 32.691-83.461 89.296-86.184 149.361h-46.054c3.331-79.458 46.137-148.889 109.27-189.143zm126.522 289.143c-49.626 0-90-40.374-90-90-.889-69.271 78.468-113.682 136.977-76.778 2.341 1.435 5.167 1.845 7.82 1.134l28.494-7.642c-2.547 9.503-5.095 18.999-7.643 28.495-.712 2.652-.302 5.479 1.134 7.82 36.9 58.52-7.522 137.861-76.782 136.971zm189.738-100c-2.72-60.059-35.642-116.676-86.184-149.361l22.968-39.782c63.133 40.253 105.939 109.685 109.269 189.143z"
       id="path4"
       style="fill:#fe5314;fill-opacity:1" />
  </g>
</svg>
