<?xml version="1.0" encoding="UTF-8" standalone="no"?>
<svg
   id="Layer_1"
   viewBox="0 0 512 512"
   data-name="Layer 1"
   version="1.1"
   xmlns="http://www.w3.org/2000/svg"
   xmlns:svg="http://www.w3.org/2000/svg">
  <defs
     id="defs1" />
  <path
     d="m473.859 50.198h-64.45c-1.28-4.025-3.675-7.614-7.056-10.456-5.244-4.406-11.851-6.182-18.594-5.004l-23.648 4.134c-1.967-19.638-18.59-35.023-38.738-35.023s-36.771 15.385-38.738 35.023l-23.648-4.134c-6.746-1.175-13.352.597-18.595 5.004-3.381 2.841-5.776 6.43-7.056 10.456h-64.45c-18.828 0-34.146 15.318-34.146 34.146v75.322c-4.766.664-9.542 1.623-14.308 2.9-30.37 8.138-55.753 27.615-71.474 54.844s-19.897 58.95-11.76 89.319c5.485 20.47 16.367 39.066 31.468 53.779 3.753 3.656 4.689 9.052 2.469 13.695-6.939-.605-13.941 2.731-17.646 9.15l-45.373 78.587c-8.494 14.714-3.436 33.596 11.278 42.091 4.841 2.794 10.13 4.122 15.354 4.121 10.656 0 21.036-5.526 26.737-15.399l45.372-78.587c3.705-6.42 3.094-14.151-.899-19.857 2.91-4.244 8.046-6.13 13.094-4.708 5.16 1.455 10.402 2.544 15.687 3.274v65.696c0 18.828 15.318 34.146 34.146 34.146h304.973c18.828 0 34.146-15.318 34.147-34.146v-374.227c0-18.828-15.318-34.146-34.146-34.146zm-227.601 6.999c0-2.759 1.026-4.962 3.138-6.736 2.113-1.775 4.456-2.406 7.179-1.932l31.658 5.534c2.037.356 4.125-.207 5.708-1.536 1.583-1.33 2.497-3.292 2.497-5.359v-4.387c0-13.748 11.186-24.933 24.934-24.933s24.934 11.185 24.934 24.933v4.387c0 2.067.914 4.029 2.497 5.359 1.582 1.329 3.672 1.895 5.708 1.536l31.658-5.534c2.718-.476 5.064.155 7.178 1.932 2.112 1.774 3.139 3.979 3.139 6.736v27.366h-150.227v-27.366zm157.227 41.366c3.866 0 7-3.134 7-7v-.055h56.21v359.899h-290.646v-60.168c1.776-.389 3.549-.804 5.311-1.276 11.78-3.156 22.805-8.026 32.811-14.385-.015.191-.029.382-.029.577 0 3.866 3.134 7 7 7h200.46c3.866 0 7-3.134 7-7s-3.134-7-7-7h-198.319c7.453-5.809 14.199-12.529 20.101-20.055h178.218c3.866 0 7-3.134 7-7s-3.134-7-7-7h-168.758c3.727-6.457 6.796-13.169 9.214-20.054h159.543c3.866 0 7-3.134 7-7s-3.134-7-7-7h-155.584c3.906-18.05 3.493-36.894-1.424-55.246-1.37-5.111-3.063-10.05-5.042-14.809v-58.319c0-3.866-3.134-7-7-7h-31.409c-3.866 0-7 3.134-7 7v4.392c-11.623-7.404-24.519-12.773-38.093-15.766v-69.79h56.21v.055c0 3.866 3.134 7 7 7h164.227zm-157.935 107.729c-5.133-6.926-10.982-13.217-17.409-18.793v-7.828h17.409zm-96.812-121.948c0-11.109 9.038-20.146 20.146-20.146h63.374v13.311h-63.21c-3.866 0-7 3.134-7 7v74.579c-4.396-.423-8.839-.598-13.311-.516v-74.228zm-54.006 322.821-45.371 78.587c-4.637 8.028-14.939 10.79-22.967 6.153-8.028-4.635-10.789-14.938-6.153-22.966l45.372-78.587c.595-1.031 1.563-1.771 2.727-2.082 1.168-.312 2.373-.155 3.403.439l21.347 12.323c2.143 1.238 2.88 3.989 1.643 6.132zm.067-21.31-10.766-6.215c4.488-9.946 2.396-21.37-5.599-29.159-13.298-12.956-22.881-29.338-27.714-47.375-7.17-26.758-3.491-54.706 10.36-78.696s36.215-41.15 62.973-48.32c55.238-14.801 112.215 18.097 127.016 73.333s-18.096 112.216-73.333 127.017c-18.038 4.834-37.019 4.726-54.886-.313-10.743-3.027-21.681.871-28.051 9.73zm399.206 72.715c0 11.108-9.039 20.146-20.147 20.146h-304.973c-11.108 0-20.146-9.037-20.146-20.146v-64.62c4.438.079 8.882-.081 13.311-.505v64.96c0 3.866 3.134 7 7 7h304.645c3.866 0 7-3.134 7-7v-373.897c0-3.866-3.134-7-7-7h-63.21v-13.311h63.374c11.108 0 20.146 9.037 20.146 20.146v374.228zm-216.514-203.167h31.409c3.866 0 7-3.134 7-7v-97.8c0-3.866-3.134-7-7-7h-31.409c-3.866 0-7 3.134-7 7v97.8c0 3.866 3.134 7 7 7zm7-97.8h17.409v83.8h-17.409zm49.351 97.8h31.408c3.866 0 7-3.134 7-7v-70.202c0-3.866-3.134-7-7-7h-31.408c-3.866 0-7 3.134-7 7v70.202c0 3.866 3.134 7 7 7zm7-70.202h17.408v56.202h-17.408zm49.351 70.202h31.408c3.866 0 7-3.134 7-7v-122.999c0-3.866-3.134-7-7-7h-31.408c-3.866 0-7 3.134-7 7v123c0 3.866 3.134 7 7 7zm7-123h17.408v109h-17.408zm30.082 277.804c0 3.866-3.134 7-7 7h-199.134c-3.866 0-7-3.134-7-7s3.134-7 7-7h199.134c3.866 0 7 3.134 7 7zm-189.055-133.943c0-48.151-39.174-87.326-87.325-87.326s-87.326 39.175-87.326 87.326 39.175 87.325 87.326 87.325 87.325-39.174 87.325-87.325zm-160.651 0c0-40.433 32.894-73.326 73.326-73.326 38.07 0 69.446 29.166 72.983 66.326h-26.578c-2.893 0-5.487 1.779-6.529 4.478l-7.893 20.427-16.219-58.923c-.83-3.016-3.561-5.115-6.688-5.143-3.159-.04-5.896 2.022-6.777 5.025l-10.039 34.136h-30.62c-3.866 0-7 3.134-7 7s3.134 7 7 7h35.857c3.105 0 5.839-2.046 6.716-5.025l4.579-15.569 15.323 55.671c.802 2.913 3.382 4.982 6.398 5.134.118.006.235.009.353.009 2.879 0 5.481-1.77 6.527-4.478l13.811-35.741h21.778c-3.537 37.159-34.913 66.325-72.983 66.325-40.433 0-73.326-32.894-73.326-73.325z"
     id="path1"
     style="fill:#fe5314;fill-opacity:1" />
</svg>
